%TF.GenerationSoftware,KiCad,Pcbnew,9.0.0*%
%TF.CreationDate,2026-04-30T19:49:20+09:00*%
%TF.ProjectId,BAT_ECU_PCB_V1,4241545f-4543-4555-9f50-43425f56312e,rev?*%
%TF.SameCoordinates,PX487ab00PY80befc0*%
%TF.FileFunction,Copper,L1,Top*%
%TF.FilePolarity,Positive*%
%FSLAX46Y46*%
G04 Gerber Fmt 4.6, Leading zero omitted, Abs format (unit mm)*
G04 Created by KiCad (PCBNEW 9.0.0) date 2026-04-30 19:49:20*
%MOMM*%
%LPD*%
G01*
G04 APERTURE LIST*
G04 Aperture macros list*
%AMRoundRect*
0 Rectangle with rounded corners*
0 $1 Rounding radius*
0 $2 $3 $4 $5 $6 $7 $8 $9 X,Y pos of 4 corners*
0 Add a 4 corners polygon primitive as box body*
4,1,4,$2,$3,$4,$5,$6,$7,$8,$9,$2,$3,0*
0 Add four circle primitives for the rounded corners*
1,1,$1+$1,$2,$3*
1,1,$1+$1,$4,$5*
1,1,$1+$1,$6,$7*
1,1,$1+$1,$8,$9*
0 Add four rect primitives between the rounded corners*
20,1,$1+$1,$2,$3,$4,$5,0*
20,1,$1+$1,$4,$5,$6,$7,0*
20,1,$1+$1,$6,$7,$8,$9,0*
20,1,$1+$1,$8,$9,$2,$3,0*%
G04 Aperture macros list end*
%TA.AperFunction,SMDPad,CuDef*%
%ADD10RoundRect,0.200000X-0.275000X0.200000X-0.275000X-0.200000X0.275000X-0.200000X0.275000X0.200000X0*%
%TD*%
%TA.AperFunction,SMDPad,CuDef*%
%ADD11RoundRect,0.200000X-0.200000X-0.275000X0.200000X-0.275000X0.200000X0.275000X-0.200000X0.275000X0*%
%TD*%
%TA.AperFunction,SMDPad,CuDef*%
%ADD12RoundRect,0.225000X-0.225000X-0.250000X0.225000X-0.250000X0.225000X0.250000X-0.225000X0.250000X0*%
%TD*%
%TA.AperFunction,SMDPad,CuDef*%
%ADD13RoundRect,0.250000X-0.325000X-1.100000X0.325000X-1.100000X0.325000X1.100000X-0.325000X1.100000X0*%
%TD*%
%TA.AperFunction,SMDPad,CuDef*%
%ADD14RoundRect,0.218750X0.218750X0.256250X-0.218750X0.256250X-0.218750X-0.256250X0.218750X-0.256250X0*%
%TD*%
%TA.AperFunction,SMDPad,CuDef*%
%ADD15C,1.000000*%
%TD*%
%TA.AperFunction,ComponentPad*%
%ADD16R,2.000000X0.900000*%
%TD*%
%TA.AperFunction,ComponentPad*%
%ADD17RoundRect,1.025000X-1.025000X1.025000X-1.025000X-1.025000X1.025000X-1.025000X1.025000X1.025000X0*%
%TD*%
%TA.AperFunction,ComponentPad*%
%ADD18C,4.100000*%
%TD*%
%TA.AperFunction,SMDPad,CuDef*%
%ADD19RoundRect,0.375000X0.375000X-0.625000X0.375000X0.625000X-0.375000X0.625000X-0.375000X-0.625000X0*%
%TD*%
%TA.AperFunction,SMDPad,CuDef*%
%ADD20RoundRect,0.500000X1.400000X-0.500000X1.400000X0.500000X-1.400000X0.500000X-1.400000X-0.500000X0*%
%TD*%
%TA.AperFunction,SMDPad,CuDef*%
%ADD21R,0.600000X1.550000*%
%TD*%
%TA.AperFunction,ComponentPad*%
%ADD22C,0.600000*%
%TD*%
%TA.AperFunction,SMDPad,CuDef*%
%ADD23R,3.100000X2.600000*%
%TD*%
%TA.AperFunction,SMDPad,CuDef*%
%ADD24R,4.500000X2.950000*%
%TD*%
%TA.AperFunction,SMDPad,CuDef*%
%ADD25RoundRect,0.200000X0.275000X-0.200000X0.275000X0.200000X-0.275000X0.200000X-0.275000X-0.200000X0*%
%TD*%
%TA.AperFunction,SMDPad,CuDef*%
%ADD26RoundRect,0.150000X0.825000X0.150000X-0.825000X0.150000X-0.825000X-0.150000X0.825000X-0.150000X0*%
%TD*%
%TA.AperFunction,SMDPad,CuDef*%
%ADD27RoundRect,0.225000X0.225000X0.250000X-0.225000X0.250000X-0.225000X-0.250000X0.225000X-0.250000X0*%
%TD*%
%TA.AperFunction,SMDPad,CuDef*%
%ADD28RoundRect,0.225000X-0.250000X0.225000X-0.250000X-0.225000X0.250000X-0.225000X0.250000X0.225000X0*%
%TD*%
%TA.AperFunction,ComponentPad*%
%ADD29RoundRect,0.250000X1.050000X-0.750000X1.050000X0.750000X-1.050000X0.750000X-1.050000X-0.750000X0*%
%TD*%
%TA.AperFunction,ComponentPad*%
%ADD30O,2.600000X2.000000*%
%TD*%
%TA.AperFunction,SMDPad,CuDef*%
%ADD31RoundRect,0.200000X0.200000X0.275000X-0.200000X0.275000X-0.200000X-0.275000X0.200000X-0.275000X0*%
%TD*%
%TA.AperFunction,ComponentPad*%
%ADD32R,1.700000X1.700000*%
%TD*%
%TA.AperFunction,ComponentPad*%
%ADD33O,1.700000X1.700000*%
%TD*%
%TA.AperFunction,SMDPad,CuDef*%
%ADD34R,1.200000X1.400000*%
%TD*%
%TA.AperFunction,SMDPad,CuDef*%
%ADD35RoundRect,0.250000X-0.250000X-0.475000X0.250000X-0.475000X0.250000X0.475000X-0.250000X0.475000X0*%
%TD*%
%TA.AperFunction,SMDPad,CuDef*%
%ADD36RoundRect,0.250000X0.250000X0.475000X-0.250000X0.475000X-0.250000X-0.475000X0.250000X-0.475000X0*%
%TD*%
%TA.AperFunction,SMDPad,CuDef*%
%ADD37RoundRect,0.250000X0.475000X-0.250000X0.475000X0.250000X-0.475000X0.250000X-0.475000X-0.250000X0*%
%TD*%
%TA.AperFunction,SMDPad,CuDef*%
%ADD38RoundRect,0.218750X-0.218750X-0.256250X0.218750X-0.256250X0.218750X0.256250X-0.218750X0.256250X0*%
%TD*%
%TA.AperFunction,ComponentPad*%
%ADD39C,2.000000*%
%TD*%
%TA.AperFunction,SMDPad,CuDef*%
%ADD40RoundRect,0.150000X-0.150000X0.587500X-0.150000X-0.587500X0.150000X-0.587500X0.150000X0.587500X0*%
%TD*%
%TA.AperFunction,ComponentPad*%
%ADD41RoundRect,1.025000X1.025000X-1.025000X1.025000X1.025000X-1.025000X1.025000X-1.025000X-1.025000X0*%
%TD*%
%TA.AperFunction,SMDPad,CuDef*%
%ADD42RoundRect,0.062500X0.375000X0.062500X-0.375000X0.062500X-0.375000X-0.062500X0.375000X-0.062500X0*%
%TD*%
%TA.AperFunction,SMDPad,CuDef*%
%ADD43RoundRect,0.062500X0.062500X0.375000X-0.062500X0.375000X-0.062500X-0.375000X0.062500X-0.375000X0*%
%TD*%
%TA.AperFunction,HeatsinkPad*%
%ADD44R,5.600000X5.600000*%
%TD*%
%TA.AperFunction,SMDPad,CuDef*%
%ADD45RoundRect,0.155000X-0.155000X0.212500X-0.155000X-0.212500X0.155000X-0.212500X0.155000X0.212500X0*%
%TD*%
%TA.AperFunction,SMDPad,CuDef*%
%ADD46RoundRect,0.218750X0.256250X-0.218750X0.256250X0.218750X-0.256250X0.218750X-0.256250X-0.218750X0*%
%TD*%
%TA.AperFunction,SMDPad,CuDef*%
%ADD47RoundRect,0.249999X-1.425001X0.450001X-1.425001X-0.450001X1.425001X-0.450001X1.425001X0.450001X0*%
%TD*%
%TA.AperFunction,ComponentPad*%
%ADD48R,2.400000X2.400000*%
%TD*%
%TA.AperFunction,ComponentPad*%
%ADD49C,2.400000*%
%TD*%
%TA.AperFunction,SMDPad,CuDef*%
%ADD50RoundRect,0.250000X1.400000X1.000000X-1.400000X1.000000X-1.400000X-1.000000X1.400000X-1.000000X0*%
%TD*%
%TA.AperFunction,SMDPad,CuDef*%
%ADD51RoundRect,0.225000X0.250000X-0.225000X0.250000X0.225000X-0.250000X0.225000X-0.250000X-0.225000X0*%
%TD*%
%TA.AperFunction,SMDPad,CuDef*%
%ADD52RoundRect,0.155000X0.155000X-0.212500X0.155000X0.212500X-0.155000X0.212500X-0.155000X-0.212500X0*%
%TD*%
%TA.AperFunction,ComponentPad*%
%ADD53RoundRect,0.250000X-0.750000X-1.050000X0.750000X-1.050000X0.750000X1.050000X-0.750000X1.050000X0*%
%TD*%
%TA.AperFunction,ComponentPad*%
%ADD54O,2.000000X2.600000*%
%TD*%
%TA.AperFunction,SMDPad,CuDef*%
%ADD55RoundRect,0.075000X0.075000X-0.650000X0.075000X0.650000X-0.075000X0.650000X-0.075000X-0.650000X0*%
%TD*%
%TA.AperFunction,SMDPad,CuDef*%
%ADD56RoundRect,0.250000X0.312500X0.625000X-0.312500X0.625000X-0.312500X-0.625000X0.312500X-0.625000X0*%
%TD*%
%TA.AperFunction,SMDPad,CuDef*%
%ADD57RoundRect,0.250000X-1.200000X-2.450000X1.200000X-2.450000X1.200000X2.450000X-1.200000X2.450000X0*%
%TD*%
%TA.AperFunction,ViaPad*%
%ADD58C,0.600000*%
%TD*%
%TA.AperFunction,ViaPad*%
%ADD59C,0.900000*%
%TD*%
%TA.AperFunction,ViaPad*%
%ADD60C,0.450000*%
%TD*%
%TA.AperFunction,Conductor*%
%ADD61C,0.500000*%
%TD*%
%TA.AperFunction,Conductor*%
%ADD62C,1.000000*%
%TD*%
%TA.AperFunction,Conductor*%
%ADD63C,0.250000*%
%TD*%
%TA.AperFunction,Conductor*%
%ADD64C,0.300000*%
%TD*%
%TA.AperFunction,Conductor*%
%ADD65C,0.200000*%
%TD*%
G04 APERTURE END LIST*
D10*
%TO.P,R21,1*%
%TO.N,Net-(D5-K)*%
X27500000Y24500000D03*
%TO.P,R21,2*%
%TO.N,/LED*%
X27500000Y22850000D03*
%TD*%
D11*
%TO.P,R17,1*%
%TO.N,/SDA*%
X49500000Y28175000D03*
%TO.P,R17,2*%
%TO.N,3.3V*%
X51150000Y28175000D03*
%TD*%
D12*
%TO.P,C5,1*%
%TO.N,Net-(U1-COMP)*%
X7900000Y52522220D03*
%TO.P,C5,2*%
%TO.N,PGND*%
X9450000Y52522220D03*
%TD*%
D13*
%TO.P,C1,1*%
%TO.N,36V*%
X7550000Y68022220D03*
%TO.P,C1,2*%
%TO.N,PGND*%
X10500000Y68022220D03*
%TD*%
D14*
%TO.P,D3,1,K*%
%TO.N,Net-(D3-K)*%
X37575000Y31675000D03*
%TO.P,D3,2,A*%
%TO.N,3.3V*%
X36000000Y31675000D03*
%TD*%
D15*
%TO.P,TP3,1,1*%
%TO.N,/SDA*%
X50000000Y34000000D03*
%TD*%
D16*
%TO.P,J2,*%
%TO.N,*%
X78850000Y85772220D03*
X78850000Y72272220D03*
D17*
%TO.P,J2,1,Pin_1*%
%TO.N,PGND*%
X72850000Y82622220D03*
D18*
%TO.P,J2,2,Pin_2*%
%TO.N,36V*%
X72850000Y75422220D03*
%TD*%
D19*
%TO.P,U4,1,IN*%
%TO.N,12V*%
X43700000Y49872220D03*
%TO.P,U4,2,GND*%
%TO.N,GND*%
X46000000Y49872220D03*
%TO.P,U4,3,OUT*%
%TO.N,5V*%
X48300000Y49872220D03*
D20*
%TO.P,U4,4,GND*%
%TO.N,GND*%
X46000000Y56172220D03*
%TD*%
D21*
%TO.P,U1,1,BOOT*%
%TO.N,Net-(U1-BOOT)*%
X10270000Y60422220D03*
%TO.P,U1,2,VIN*%
%TO.N,36V*%
X9000000Y60422220D03*
%TO.P,U1,3,EN*%
%TO.N,unconnected-(U1-EN-Pad3)*%
X7730000Y60422220D03*
%TO.P,U1,4,RT/CLK*%
%TO.N,Net-(U1-RT{slash}CLK)*%
X6460000Y60422220D03*
%TO.P,U1,5,FB*%
%TO.N,FB*%
X6460000Y55022220D03*
%TO.P,U1,6,COMP*%
%TO.N,Net-(U1-COMP)*%
X7730000Y55022220D03*
%TO.P,U1,7,GND*%
%TO.N,PGND*%
X9000000Y55022220D03*
%TO.P,U1,8,SW*%
%TO.N,Net-(D1-K)*%
X10270000Y55022220D03*
D22*
%TO.P,U1,9,GNDPAD*%
%TO.N,PGND*%
X10165000Y58322220D03*
X8965000Y58322220D03*
X7665000Y58322220D03*
X6565000Y58322220D03*
D23*
X8365000Y57722220D03*
D24*
X8365000Y57722220D03*
D22*
X10165000Y57122220D03*
X8965000Y57122220D03*
X7665000Y57122220D03*
X6565000Y57122220D03*
%TD*%
D10*
%TO.P,R3,1*%
%TO.N,Net-(U1-RT{slash}CLK)*%
X4000000Y60347220D03*
%TO.P,R3,2*%
%TO.N,PGND*%
X4000000Y58697220D03*
%TD*%
D25*
%TO.P,R5,1*%
%TO.N,12V*%
X4000000Y51197220D03*
%TO.P,R5,2*%
%TO.N,FB*%
X4000000Y52847220D03*
%TD*%
D26*
%TO.P,U7,1,D*%
%TO.N,/CAN1_TX*%
X22975000Y11500000D03*
%TO.P,U7,2,GND*%
%TO.N,GND*%
X22975000Y12770000D03*
%TO.P,U7,3,VCC*%
%TO.N,3.3V*%
X22975000Y14040000D03*
%TO.P,U7,4,R*%
%TO.N,/CAN1_RX*%
X22975000Y15310000D03*
%TO.P,U7,5,Vref*%
%TO.N,unconnected-(U7-Vref-Pad5)*%
X18025000Y15310000D03*
%TO.P,U7,6,CANL*%
%TO.N,/CAN_LOW*%
X18025000Y14040000D03*
%TO.P,U7,7,CANH*%
%TO.N,/CAN_HIGH*%
X18025000Y12770000D03*
%TO.P,U7,8,Rs*%
%TO.N,Net-(U7-Rs)*%
X18025000Y11500000D03*
%TD*%
D27*
%TO.P,C35,1*%
%TO.N,3.3V*%
X21000000Y17500000D03*
%TO.P,C35,2*%
%TO.N,GND*%
X19450000Y17500000D03*
%TD*%
%TO.P,C30,1*%
%TO.N,A3.3V*%
X35550000Y25675000D03*
%TO.P,C30,2*%
%TO.N,GND*%
X34000000Y25675000D03*
%TD*%
%TO.P,C26,1*%
%TO.N,3.3V*%
X32050000Y16675000D03*
%TO.P,C26,2*%
%TO.N,GND*%
X30500000Y16675000D03*
%TD*%
D14*
%TO.P,D4,1,K*%
%TO.N,Net-(D4-K)*%
X57612500Y49500000D03*
%TO.P,D4,2,A*%
%TO.N,5V*%
X56037500Y49500000D03*
%TD*%
D28*
%TO.P,C22,1*%
%TO.N,/MOSFET_NTC*%
X53500000Y17275000D03*
%TO.P,C22,2*%
%TO.N,GND*%
X53500000Y15725000D03*
%TD*%
D29*
%TO.P,J9,1,Pin_1*%
%TO.N,12V*%
X77350000Y29122220D03*
D30*
%TO.P,J9,2,Pin_2*%
%TO.N,PGND*%
X77350000Y32622220D03*
%TD*%
D31*
%TO.P,R16,1*%
%TO.N,Net-(D3-K)*%
X37612500Y29675000D03*
%TO.P,R16,2*%
%TO.N,GND*%
X35962500Y29675000D03*
%TD*%
D27*
%TO.P,C28,1*%
%TO.N,A3.3V*%
X35590000Y27652780D03*
%TO.P,C28,2*%
%TO.N,GND*%
X34040000Y27652780D03*
%TD*%
D12*
%TO.P,C40,1*%
%TO.N,3.3V*%
X47725000Y44500000D03*
%TO.P,C40,2*%
%TO.N,GND*%
X49275000Y44500000D03*
%TD*%
%TO.P,C31,1*%
%TO.N,A3.3V*%
X37765000Y27652780D03*
%TO.P,C31,2*%
%TO.N,GND*%
X39315000Y27652780D03*
%TD*%
D25*
%TO.P,R10,1*%
%TO.N,3.3V*%
X51500000Y15675000D03*
%TO.P,R10,2*%
%TO.N,/MOSFET_NTC*%
X51500000Y17325000D03*
%TD*%
D27*
%TO.P,C29,1*%
%TO.N,3.3V*%
X31815000Y25652780D03*
%TO.P,C29,2*%
%TO.N,GND*%
X30265000Y25652780D03*
%TD*%
D29*
%TO.P,J4,1,Pin_1*%
%TO.N,5V*%
X77350000Y14122220D03*
D30*
%TO.P,J4,2,Pin_2*%
%TO.N,GND*%
X77350000Y17622220D03*
%TD*%
D32*
%TO.P,J8,1,Pin_1*%
%TO.N,GND*%
X68540000Y6000000D03*
D33*
%TO.P,J8,2,Pin_2*%
%TO.N,/UART2_RX*%
X66000000Y6000000D03*
%TO.P,J8,3,Pin_3*%
%TO.N,/UART2_TX*%
X63460000Y6000000D03*
%TO.P,J8,4,Pin_4*%
%TO.N,3.3V*%
X60920000Y6000000D03*
%TD*%
D34*
%TO.P,Y1,1,1*%
%TO.N,/OSC_OUT*%
X45500000Y19375000D03*
%TO.P,Y1,2,2*%
%TO.N,GND*%
X45500000Y17175000D03*
%TO.P,Y1,3,3*%
%TO.N,/OSC_IN*%
X47200000Y17175000D03*
%TO.P,Y1,4,4*%
%TO.N,GND*%
X47200000Y19375000D03*
%TD*%
D35*
%TO.P,C11,1*%
%TO.N,36V*%
X7625000Y71022220D03*
%TO.P,C11,2*%
%TO.N,PGND*%
X9525000Y71022220D03*
%TD*%
D29*
%TO.P,J3,1,Pin_1*%
%TO.N,12V*%
X77350000Y42122220D03*
D30*
%TO.P,J3,2,Pin_2*%
%TO.N,PGND*%
X77350000Y45622220D03*
%TD*%
D31*
%TO.P,R23,1*%
%TO.N,/Alert*%
X44500000Y30000000D03*
%TO.P,R23,2*%
%TO.N,3.3V*%
X42850000Y30000000D03*
%TD*%
D25*
%TO.P,R6,1*%
%TO.N,FB*%
X4500000Y54697220D03*
%TO.P,R6,2*%
%TO.N,PGND*%
X4500000Y56347220D03*
%TD*%
D28*
%TO.P,C27,1*%
%TO.N,3.3V*%
X41500000Y14950000D03*
%TO.P,C27,2*%
%TO.N,GND*%
X41500000Y13400000D03*
%TD*%
D35*
%TO.P,C16,1*%
%TO.N,12V*%
X38050000Y58522220D03*
%TO.P,C16,2*%
%TO.N,GND*%
X39950000Y58522220D03*
%TD*%
D36*
%TO.P,C7,1*%
%TO.N,12V*%
X32625000Y59522220D03*
%TO.P,C7,2*%
%TO.N,PGND*%
X30725000Y59522220D03*
%TD*%
D11*
%TO.P,R11,1*%
%TO.N,Net-(J5-Pin_2)*%
X34675000Y12675000D03*
%TO.P,R11,2*%
%TO.N,/BOOT0*%
X36325000Y12675000D03*
%TD*%
D27*
%TO.P,C34,1*%
%TO.N,GND*%
X51275000Y36975000D03*
%TO.P,C34,2*%
%TO.N,3.3V*%
X49725000Y36975000D03*
%TD*%
D37*
%TO.P,C20,1*%
%TO.N,5V*%
X51000000Y50500000D03*
%TO.P,C20,2*%
%TO.N,GND*%
X51000000Y52400000D03*
%TD*%
D38*
%TO.P,D2,1,K*%
%TO.N,Net-(D2-K)*%
X30000000Y64500000D03*
%TO.P,D2,2,A*%
%TO.N,12V*%
X31575000Y64500000D03*
%TD*%
D11*
%TO.P,R22,1*%
%TO.N,GND*%
X14000000Y11500000D03*
%TO.P,R22,2*%
%TO.N,Net-(U7-Rs)*%
X15650000Y11500000D03*
%TD*%
D39*
%TO.P,SW1,1,1*%
%TO.N,GND*%
X53500000Y25000000D03*
X60000000Y25000000D03*
%TO.P,SW1,2,2*%
%TO.N,/RESET*%
X53500000Y20500000D03*
X60000000Y20500000D03*
%TD*%
D40*
%TO.P,U6,1,GND*%
%TO.N,GND*%
X45450000Y42500000D03*
%TO.P,U6,2,VO*%
%TO.N,3.3V*%
X44500000Y40625000D03*
%TO.P,U6,3,VI*%
%TO.N,5V*%
X43550000Y42500000D03*
%TD*%
D16*
%TO.P,J1,*%
%TO.N,*%
X3000000Y74872220D03*
X3000000Y88372220D03*
D41*
%TO.P,J1,1,Pin_1*%
%TO.N,PGND*%
X9000000Y78022220D03*
D18*
%TO.P,J1,2,Pin_2*%
%TO.N,BAT*%
X9000000Y85222220D03*
%TD*%
D12*
%TO.P,C3,1*%
%TO.N,Net-(U1-BOOT)*%
X12450000Y61022220D03*
%TO.P,C3,2*%
%TO.N,Net-(D1-K)*%
X14000000Y61022220D03*
%TD*%
D31*
%TO.P,R18,1*%
%TO.N,/CAN_LOW*%
X21325000Y9000000D03*
%TO.P,R18,2*%
%TO.N,/CAN_HIGH*%
X19675000Y9000000D03*
%TD*%
D36*
%TO.P,C6,1*%
%TO.N,12V*%
X32675000Y62022220D03*
%TO.P,C6,2*%
%TO.N,PGND*%
X30775000Y62022220D03*
%TD*%
D10*
%TO.P,R7,1*%
%TO.N,36V*%
X64500000Y61325000D03*
%TO.P,R7,2*%
%TO.N,/VDC_ADC*%
X64500000Y59675000D03*
%TD*%
D36*
%TO.P,C37,1*%
%TO.N,5V*%
X44000000Y45000000D03*
%TO.P,C37,2*%
%TO.N,GND*%
X42100000Y45000000D03*
%TD*%
D42*
%TO.P,U5,1,VBAT*%
%TO.N,3.3V*%
X40727500Y17340280D03*
%TO.P,U5,2,PC13*%
%TO.N,unconnected-(U5-PC13-Pad2)*%
X40727500Y17840280D03*
%TO.P,U5,3,PC14*%
%TO.N,unconnected-(U5-PC14-Pad3)*%
X40727500Y18340280D03*
%TO.P,U5,4,PC15*%
%TO.N,unconnected-(U5-PC15-Pad4)*%
X40727500Y18840280D03*
%TO.P,U5,5,PF0*%
%TO.N,/OSC_IN*%
X40727500Y19340280D03*
%TO.P,U5,6,PF1*%
%TO.N,/OSC_OUT*%
X40727500Y19840280D03*
%TO.P,U5,7,PG10*%
%TO.N,/RESET*%
X40727500Y20340280D03*
%TO.P,U5,8,PA0*%
%TO.N,/MOSFET_NTC*%
X40727500Y20840280D03*
%TO.P,U5,9,PA1*%
%TO.N,/VDC_ADC*%
X40727500Y21340280D03*
%TO.P,U5,10,PA2*%
%TO.N,/UART2_TX*%
X40727500Y21840280D03*
%TO.P,U5,11,PA3*%
%TO.N,/UART2_RX*%
X40727500Y22340280D03*
%TO.P,U5,12,PA4*%
%TO.N,/Alert*%
X40727500Y22840280D03*
D43*
%TO.P,U5,13,PA5*%
%TO.N,unconnected-(U5-PA5-Pad13)*%
X40040000Y23527780D03*
%TO.P,U5,14,PA6*%
%TO.N,unconnected-(U5-PA6-Pad14)*%
X39540000Y23527780D03*
%TO.P,U5,15,PA7*%
%TO.N,unconnected-(U5-PA7-Pad15)*%
X39040000Y23527780D03*
%TO.P,U5,16,PC4*%
%TO.N,unconnected-(U5-PC4-Pad16)*%
X38540000Y23527780D03*
%TO.P,U5,17,PB0*%
%TO.N,unconnected-(U5-PB0-Pad17)*%
X38040000Y23527780D03*
%TO.P,U5,18,PB1*%
%TO.N,unconnected-(U5-PB1-Pad18)*%
X37540000Y23527780D03*
%TO.P,U5,19,PB2*%
%TO.N,unconnected-(U5-PB2-Pad19)*%
X37040000Y23527780D03*
%TO.P,U5,20,VREF+*%
%TO.N,A3.3V*%
X36540000Y23527780D03*
%TO.P,U5,21,VDDA*%
X36040000Y23527780D03*
%TO.P,U5,22,PB10*%
%TO.N,unconnected-(U5-PB10-Pad22)*%
X35540000Y23527780D03*
%TO.P,U5,23,VDD*%
%TO.N,3.3V*%
X35040000Y23527780D03*
%TO.P,U5,24,PB11*%
%TO.N,unconnected-(U5-PB11-Pad24)*%
X34540000Y23527780D03*
D42*
%TO.P,U5,25,PB12*%
%TO.N,/LED*%
X33852500Y22840280D03*
%TO.P,U5,26,PB13*%
%TO.N,unconnected-(U5-PB13-Pad26)*%
X33852500Y22340280D03*
%TO.P,U5,27,PB14*%
%TO.N,unconnected-(U5-PB14-Pad27)*%
X33852500Y21840280D03*
%TO.P,U5,28,PB15*%
%TO.N,unconnected-(U5-PB15-Pad28)*%
X33852500Y21340280D03*
%TO.P,U5,29,PC6*%
%TO.N,unconnected-(U5-PC6-Pad29)*%
X33852500Y20840280D03*
%TO.P,U5,30,PA8*%
%TO.N,unconnected-(U5-PA8-Pad30)*%
X33852500Y20340280D03*
%TO.P,U5,31,PA9*%
%TO.N,unconnected-(U5-PA9-Pad31)*%
X33852500Y19840280D03*
%TO.P,U5,32,PA10*%
%TO.N,unconnected-(U5-PA10-Pad32)*%
X33852500Y19340280D03*
%TO.P,U5,33,PA11*%
%TO.N,/CAN1_RX*%
X33852500Y18840280D03*
%TO.P,U5,34,PA12*%
%TO.N,/CAN1_TX*%
X33852500Y18340280D03*
%TO.P,U5,35,VDD*%
%TO.N,3.3V*%
X33852500Y17840280D03*
%TO.P,U5,36,PA13*%
%TO.N,/SWDIO*%
X33852500Y17340280D03*
D43*
%TO.P,U5,37,PA14*%
%TO.N,/SWCLK*%
X34540000Y16652780D03*
%TO.P,U5,38,PA15*%
%TO.N,/SCL*%
X35040000Y16652780D03*
%TO.P,U5,39,PC10*%
%TO.N,unconnected-(U5-PC10-Pad39)*%
X35540000Y16652780D03*
%TO.P,U5,40,PC11*%
%TO.N,unconnected-(U5-PC11-Pad40)*%
X36040000Y16652780D03*
%TO.P,U5,41,PB3*%
%TO.N,unconnected-(U5-PB3-Pad41)*%
X36540000Y16652780D03*
%TO.P,U5,42,PB4*%
%TO.N,unconnected-(U5-PB4-Pad42)*%
X37040000Y16652780D03*
%TO.P,U5,43,PB5*%
%TO.N,unconnected-(U5-PB5-Pad43)*%
X37540000Y16652780D03*
%TO.P,U5,44,PB6*%
%TO.N,unconnected-(U5-PB6-Pad44)*%
X38040000Y16652780D03*
%TO.P,U5,45,PB7*%
%TO.N,unconnected-(U5-PB7-Pad45)*%
X38540000Y16652780D03*
%TO.P,U5,46,PB8*%
%TO.N,/BOOT0*%
X39040000Y16652780D03*
%TO.P,U5,47,PB9*%
%TO.N,/SDA*%
X39540000Y16652780D03*
%TO.P,U5,48,VDD*%
%TO.N,3.3V*%
X40040000Y16652780D03*
D44*
%TO.P,U5,49,VSS*%
%TO.N,GND*%
X37290000Y20090280D03*
%TD*%
D38*
%TO.P,FB1,1*%
%TO.N,3.3V*%
X32212500Y30175000D03*
%TO.P,FB1,2*%
%TO.N,A3.3V*%
X33787500Y30175000D03*
%TD*%
D45*
%TO.P,C42,1*%
%TO.N,/OSC_IN*%
X43500000Y18067500D03*
%TO.P,C42,2*%
%TO.N,GND*%
X43500000Y16932500D03*
%TD*%
D15*
%TO.P,TP4,1,1*%
%TO.N,/SCL*%
X52500000Y34000000D03*
%TD*%
D35*
%TO.P,C17,1*%
%TO.N,12V*%
X38050000Y56022220D03*
%TO.P,C17,2*%
%TO.N,GND*%
X39950000Y56022220D03*
%TD*%
D13*
%TO.P,C2,1*%
%TO.N,36V*%
X7550000Y64522220D03*
%TO.P,C2,2*%
%TO.N,PGND*%
X10500000Y64522220D03*
%TD*%
D46*
%TO.P,D5,1,K*%
%TO.N,Net-(D5-K)*%
X27500000Y26887500D03*
%TO.P,D5,2,A*%
%TO.N,3.3V*%
X27500000Y28462500D03*
%TD*%
D47*
%TO.P,R12,1*%
%TO.N,BAT*%
X17000000Y85050000D03*
%TO.P,R12,2*%
%TO.N,36V*%
X17000000Y78950000D03*
%TD*%
D15*
%TO.P,TP1,1,1*%
%TO.N,/MOSFET_NTC*%
X58500000Y60000000D03*
%TD*%
D32*
%TO.P,J7,1,Pin_1*%
%TO.N,/SWCLK*%
X54500000Y6000000D03*
D33*
%TO.P,J7,2,Pin_2*%
%TO.N,/SWDIO*%
X51960000Y6000000D03*
%TO.P,J7,3,Pin_3*%
%TO.N,GND*%
X49420000Y6000000D03*
%TO.P,J7,4,Pin_4*%
%TO.N,3.3V*%
X46880000Y6000000D03*
%TD*%
D12*
%TO.P,C4,1*%
%TO.N,Net-(C4-Pad1)*%
X7950000Y50522220D03*
%TO.P,C4,2*%
%TO.N,PGND*%
X9500000Y50522220D03*
%TD*%
D31*
%TO.P,R20,1*%
%TO.N,Net-(D4-K)*%
X57650000Y51500000D03*
%TO.P,R20,2*%
%TO.N,GND*%
X56000000Y51500000D03*
%TD*%
D10*
%TO.P,R4,1*%
%TO.N,Net-(U1-COMP)*%
X6000000Y52347220D03*
%TO.P,R4,2*%
%TO.N,Net-(C4-Pad1)*%
X6000000Y50697220D03*
%TD*%
D48*
%TO.P,C9,1*%
%TO.N,36V*%
X31000000Y85500000D03*
D49*
%TO.P,C9,2*%
%TO.N,PGND*%
X31000000Y78000000D03*
%TD*%
D50*
%TO.P,D1,1,K*%
%TO.N,Net-(D1-K)*%
X14965000Y51422220D03*
%TO.P,D1,2,A*%
%TO.N,PGND*%
X14965000Y58222220D03*
%TD*%
D12*
%TO.P,C19,1*%
%TO.N,12V*%
X38275000Y60522220D03*
%TO.P,C19,2*%
%TO.N,GND*%
X39825000Y60522220D03*
%TD*%
D32*
%TO.P,J5,1,Pin_1*%
%TO.N,3.3V*%
X31000000Y13675000D03*
D33*
%TO.P,J5,2,Pin_2*%
%TO.N,Net-(J5-Pin_2)*%
X31000000Y11135000D03*
%TO.P,J5,3,Pin_3*%
%TO.N,GND*%
X31000000Y8595000D03*
%TD*%
D51*
%TO.P,C21,1*%
%TO.N,5V*%
X53500000Y50450000D03*
%TO.P,C21,2*%
%TO.N,GND*%
X53500000Y52000000D03*
%TD*%
D12*
%TO.P,C18,1*%
%TO.N,12V*%
X38275000Y62522220D03*
%TO.P,C18,2*%
%TO.N,GND*%
X39825000Y62522220D03*
%TD*%
D52*
%TO.P,C41,1*%
%TO.N,/OSC_OUT*%
X43500000Y19382500D03*
%TO.P,C41,2*%
%TO.N,GND*%
X43500000Y20517500D03*
%TD*%
D12*
%TO.P,C32,1*%
%TO.N,A3.3V*%
X37725000Y25675000D03*
%TO.P,C32,2*%
%TO.N,GND*%
X39275000Y25675000D03*
%TD*%
D53*
%TO.P,J10,1,Pin_1*%
%TO.N,/CAN_HIGH*%
X16850000Y6022220D03*
D54*
%TO.P,J10,2,Pin_2*%
%TO.N,GND*%
X20350000Y6022220D03*
%TO.P,J10,3,Pin_3*%
%TO.N,/CAN_LOW*%
X23850000Y6022220D03*
%TD*%
D27*
%TO.P,C8,1*%
%TO.N,/VDC_ADC*%
X44275000Y26500000D03*
%TO.P,C8,2*%
%TO.N,GND*%
X42725000Y26500000D03*
%TD*%
D11*
%TO.P,R24,1*%
%TO.N,/SCL*%
X49500000Y30175000D03*
%TO.P,R24,2*%
%TO.N,3.3V*%
X51150000Y30175000D03*
%TD*%
D55*
%TO.P,U2,1,A1*%
%TO.N,GND*%
X46000000Y32475000D03*
%TO.P,U2,2,A0*%
X46500000Y32475000D03*
%TO.P,U2,3,~{Alert}*%
%TO.N,/Alert*%
X47000000Y32475000D03*
%TO.P,U2,4,SDA*%
%TO.N,/SDA*%
X47500000Y32475000D03*
%TO.P,U2,5,SCL*%
%TO.N,/SCL*%
X48000000Y32475000D03*
%TO.P,U2,6,VS*%
%TO.N,3.3V*%
X48000000Y36875000D03*
%TO.P,U2,7,GND*%
%TO.N,GND*%
X47500000Y36875000D03*
%TO.P,U2,8,Vbus*%
%TO.N,BAT*%
X47000000Y36875000D03*
%TO.P,U2,9,Vin-*%
%TO.N,36V*%
X46500000Y36875000D03*
%TO.P,U2,10,Vin+*%
%TO.N,BAT*%
X46000000Y36875000D03*
%TD*%
D15*
%TO.P,TP2,1,1*%
%TO.N,Net-(D5-K)*%
X26500000Y32175000D03*
%TD*%
D56*
%TO.P,R9,1*%
%TO.N,GND*%
X36827500Y66722220D03*
%TO.P,R9,2*%
%TO.N,PGND*%
X33902500Y66722220D03*
%TD*%
D27*
%TO.P,C25,1*%
%TO.N,3.3V*%
X31815000Y27652780D03*
%TO.P,C25,2*%
%TO.N,GND*%
X30265000Y27652780D03*
%TD*%
D25*
%TO.P,R8,1*%
%TO.N,/VDC_ADC*%
X66500000Y59675000D03*
%TO.P,R8,2*%
%TO.N,GND*%
X66500000Y61325000D03*
%TD*%
D35*
%TO.P,C38,1*%
%TO.N,3.3V*%
X47725000Y42500000D03*
%TO.P,C38,2*%
%TO.N,GND*%
X49625000Y42500000D03*
%TD*%
D57*
%TO.P,L1,1,1*%
%TO.N,Net-(D1-K)*%
X21515000Y49322220D03*
%TO.P,L1,2,2*%
%TO.N,12V*%
X31415000Y49322220D03*
%TD*%
D12*
%TO.P,C33,1*%
%TO.N,/RESET*%
X49450000Y23500000D03*
%TO.P,C33,2*%
%TO.N,GND*%
X51000000Y23500000D03*
%TD*%
D27*
%TO.P,C10,1*%
%TO.N,12V*%
X32500000Y57522220D03*
%TO.P,C10,2*%
%TO.N,PGND*%
X30950000Y57522220D03*
%TD*%
D11*
%TO.P,R15,1*%
%TO.N,Net-(D2-K)*%
X30000000Y66500000D03*
%TO.P,R15,2*%
%TO.N,PGND*%
X31650000Y66500000D03*
%TD*%
D25*
%TO.P,TH1,1*%
%TO.N,/MOSFET_NTC*%
X61000000Y59675000D03*
%TO.P,TH1,2*%
%TO.N,GND*%
X61000000Y61325000D03*
%TD*%
D27*
%TO.P,C39,1*%
%TO.N,5V*%
X44000000Y47000000D03*
%TO.P,C39,2*%
%TO.N,GND*%
X42450000Y47000000D03*
%TD*%
D16*
%TO.P,J6,*%
%TO.N,*%
X78850000Y67272220D03*
X78850000Y53772220D03*
D17*
%TO.P,J6,1,Pin_1*%
%TO.N,PGND*%
X72850000Y64122220D03*
D18*
%TO.P,J6,2,Pin_2*%
%TO.N,36V*%
X72850000Y56922220D03*
%TD*%
D58*
%TO.N,*%
X48000000Y21000000D03*
X45500000Y15500000D03*
X48500000Y18500000D03*
X47500000Y15500000D03*
X46500000Y15500000D03*
X48500000Y16500000D03*
X48500000Y15500000D03*
X48500000Y17500000D03*
X48500000Y19500000D03*
X48500000Y20500000D03*
D59*
%TO.N,PGND*%
X33500000Y68500000D03*
X11962220Y68022220D03*
X11500000Y71000000D03*
X31500000Y68000000D03*
X3000000Y57000000D03*
X12000000Y64500000D03*
X29000000Y62000000D03*
X29000000Y57500000D03*
X31000000Y71500000D03*
X28701992Y59201992D03*
D58*
%TO.N,36V*%
X40840000Y81660000D03*
X63700000Y71500000D03*
X43380000Y74040000D03*
X51000000Y71500000D03*
X61160000Y94360000D03*
X66240000Y81660000D03*
X48460000Y84200000D03*
X63700000Y79120000D03*
X63700000Y94360000D03*
X68780000Y79120000D03*
X68780000Y86740000D03*
X43380000Y81660000D03*
X63700000Y89280000D03*
X63700000Y74040000D03*
X58620000Y84200000D03*
X66240000Y66420000D03*
X48460000Y89280000D03*
X48460000Y86740000D03*
X56080000Y76580000D03*
X66240000Y84200000D03*
X51000000Y86740000D03*
X53540000Y84200000D03*
D60*
X46849997Y38500000D03*
D58*
X71320000Y94360000D03*
X63700000Y91820000D03*
X56080000Y74040000D03*
X63700000Y91820000D03*
X45920000Y94360000D03*
X53540000Y86740000D03*
X61160000Y74040000D03*
X58620000Y74040000D03*
X45920000Y89280000D03*
X58620000Y81660000D03*
X38300000Y91820000D03*
X61160000Y89280000D03*
X48460000Y91820000D03*
X66240000Y91820000D03*
X66240000Y74040000D03*
X51000000Y91820000D03*
X48460000Y79120000D03*
X68780000Y91820000D03*
X63700000Y86740000D03*
X63700000Y81660000D03*
X58620000Y94360000D03*
X61160000Y68960000D03*
X58620000Y79120000D03*
X63700000Y89280000D03*
X68780000Y84200000D03*
X51000000Y84200000D03*
X51000000Y89280000D03*
X56080000Y89280000D03*
X61160000Y79120000D03*
X71320000Y89280000D03*
X58620000Y91820000D03*
X63700000Y86740000D03*
X53540000Y76580000D03*
X61160000Y86740000D03*
X53540000Y71500000D03*
X63700000Y84200000D03*
X53540000Y91820000D03*
X43380000Y84200000D03*
X53540000Y89280000D03*
X45920000Y74040000D03*
X43380000Y94360000D03*
X61160000Y66420000D03*
X63700000Y76580000D03*
X58620000Y86740000D03*
X35760000Y94360000D03*
D60*
X63000000Y60500000D03*
D58*
X63700000Y68960000D03*
X58620000Y66420000D03*
X45920000Y79120000D03*
X58620000Y89280000D03*
X56080000Y91820000D03*
X56080000Y84200000D03*
X45920000Y86740000D03*
X68780000Y81660000D03*
X61160000Y71500000D03*
X56080000Y94360000D03*
X68780000Y76580000D03*
X45920000Y81660000D03*
X61160000Y91820000D03*
X63700000Y66420000D03*
X48460000Y81660000D03*
X63700000Y71500000D03*
X43380000Y79120000D03*
X40840000Y94360000D03*
X40840000Y89280000D03*
X40840000Y91820000D03*
X63700000Y68960000D03*
X68780000Y74040000D03*
X48460000Y76580000D03*
X51000000Y81660000D03*
X66240000Y79120000D03*
X63700000Y84200000D03*
X61160000Y76580000D03*
X56080000Y86740000D03*
X48460000Y74040000D03*
X40840000Y74040000D03*
X66240000Y89280000D03*
X56080000Y68960000D03*
X38300000Y94360000D03*
X61160000Y84200000D03*
X61160000Y81660000D03*
X66240000Y71500000D03*
X71320000Y91820000D03*
X66240000Y86740000D03*
X45920000Y71500000D03*
X53540000Y81660000D03*
X65500000Y68000000D03*
X35760000Y91820000D03*
X56080000Y81660000D03*
X43380000Y76580000D03*
X63700000Y81660000D03*
X63700000Y76580000D03*
X68780000Y71500000D03*
X68780000Y94360000D03*
X43380000Y91820000D03*
X58620000Y68960000D03*
X56080000Y79120000D03*
X58620000Y76580000D03*
X63700000Y79120000D03*
X48460000Y94360000D03*
X43380000Y86740000D03*
X51000000Y94360000D03*
X63700000Y74040000D03*
X48460000Y71500000D03*
X40840000Y76580000D03*
X51000000Y79120000D03*
X45920000Y91820000D03*
X40840000Y79120000D03*
X40840000Y71500000D03*
X43380000Y89280000D03*
X63700000Y94360000D03*
X40840000Y84200000D03*
X45920000Y84200000D03*
X43380000Y71500000D03*
X68780000Y89280000D03*
X66240000Y94360000D03*
X51000000Y74040000D03*
X53540000Y74040000D03*
X66240000Y76580000D03*
X51000000Y76580000D03*
X53540000Y94360000D03*
X56080000Y71500000D03*
X45920000Y76580000D03*
X40840000Y86740000D03*
X53540000Y79120000D03*
X58620000Y71500000D03*
D60*
%TO.N,Net-(D1-K)*%
X11500000Y55000000D03*
X16000000Y61000000D03*
D58*
%TO.N,12V*%
X36500000Y54000000D03*
X34000000Y61340000D03*
X36500000Y56500000D03*
D59*
X31500000Y44500000D03*
D58*
X36500000Y59000000D03*
X34000000Y54000000D03*
X34000000Y63500000D03*
X36308058Y51808058D03*
X36500000Y61340000D03*
D59*
X4000000Y48500000D03*
D58*
X34000000Y56500000D03*
X35760000Y48640000D03*
X33808058Y51808058D03*
X36500000Y63500000D03*
X34000000Y59000000D03*
D59*
X41500000Y49000000D03*
D58*
%TO.N,GND*%
X12900000Y28320000D03*
X15440000Y41020000D03*
D60*
X53500000Y14500000D03*
D58*
X10360000Y13080000D03*
X7820000Y23240000D03*
X10360000Y15620000D03*
X12900000Y15620000D03*
X20520000Y25780000D03*
X15440000Y33400000D03*
X2740000Y38480000D03*
X15440000Y23240000D03*
D59*
X40000000Y13500000D03*
D60*
X41000000Y44000000D03*
D58*
X7820000Y41020000D03*
X10360000Y33400000D03*
X2740000Y13080000D03*
X7820000Y13080000D03*
X17980000Y30860000D03*
X23060000Y30860000D03*
X20520000Y30860000D03*
X15440000Y35940000D03*
X12900000Y23240000D03*
D60*
X47500000Y38500000D03*
D58*
X23060000Y20700000D03*
X20520000Y20700000D03*
X17980000Y28320000D03*
X2740000Y35940000D03*
X20520000Y33400000D03*
D59*
X53500000Y53500000D03*
D58*
X23060000Y25780000D03*
X2740000Y41020000D03*
D59*
X51500000Y42500000D03*
D58*
X23060000Y23240000D03*
X5280000Y25780000D03*
D59*
X50500000Y44500000D03*
D58*
X12900000Y30860000D03*
X5280000Y23240000D03*
X15440000Y38480000D03*
X40347220Y27652780D03*
X7820000Y28320000D03*
X2740000Y20700000D03*
X40500000Y25675000D03*
D60*
X44500000Y32500000D03*
D58*
X20520000Y38480000D03*
X41500000Y26500000D03*
X2740000Y33400000D03*
X20520000Y28320000D03*
D60*
X51408975Y35591025D03*
D58*
X33000000Y29000000D03*
D59*
X37500000Y20000000D03*
D58*
X17980000Y25780000D03*
X35000000Y30500000D03*
X2740000Y25780000D03*
X5280000Y35940000D03*
D59*
X41500000Y58500000D03*
D58*
X5280000Y15620000D03*
X12900000Y25780000D03*
D59*
X46000000Y48000000D03*
D58*
X20520000Y41020000D03*
X10360000Y23240000D03*
D59*
X38500000Y66722220D03*
D58*
X12900000Y41020000D03*
X5280000Y28320000D03*
X23060000Y33400000D03*
D59*
X46000000Y58000000D03*
D58*
X15440000Y28320000D03*
D59*
X24951992Y12548008D03*
D58*
X17980000Y41020000D03*
X23060000Y35940000D03*
X12900000Y13080000D03*
X7820000Y38480000D03*
X10360000Y35940000D03*
X23060000Y41020000D03*
X10360000Y41020000D03*
X5280000Y18160000D03*
X2740000Y30860000D03*
X2740000Y18160000D03*
X17980000Y35940000D03*
D59*
X51000000Y53500000D03*
D58*
X7820000Y35940000D03*
D60*
X51000000Y24500000D03*
D58*
X23060000Y38480000D03*
D59*
X18000000Y17500000D03*
D58*
X12900000Y20700000D03*
X5280000Y20700000D03*
D59*
X41500000Y56000000D03*
D58*
X2740000Y28320000D03*
D60*
X28500000Y14000000D03*
D58*
X5280000Y13080000D03*
X15440000Y25780000D03*
X17980000Y33400000D03*
X5280000Y30860000D03*
X5280000Y41020000D03*
X7820000Y15620000D03*
X7820000Y33400000D03*
X17980000Y20700000D03*
X46975000Y41000000D03*
X5280000Y33400000D03*
X10360000Y18160000D03*
X2740000Y23240000D03*
X12900000Y35940000D03*
D59*
X41500000Y62500000D03*
D58*
X12900000Y33400000D03*
X23060000Y28320000D03*
X10360000Y20700000D03*
X2740000Y15620000D03*
X10360000Y30860000D03*
D59*
X56000000Y53000000D03*
D58*
X47200000Y20800000D03*
X30000000Y29000000D03*
X20520000Y23240000D03*
D59*
X61000000Y63000000D03*
D58*
X15440000Y20700000D03*
X12900000Y38480000D03*
X20520000Y35940000D03*
X7820000Y25780000D03*
X15440000Y30860000D03*
X10360000Y28320000D03*
X7820000Y18160000D03*
X10360000Y25780000D03*
D60*
X43500000Y14500000D03*
D58*
X45602846Y20897154D03*
X12900000Y18160000D03*
X10360000Y38480000D03*
X17980000Y38480000D03*
X7820000Y20700000D03*
D59*
X14000000Y10000000D03*
X66000000Y62500000D03*
D58*
X7820000Y30860000D03*
X5280000Y38480000D03*
X17980000Y23240000D03*
D59*
X41500000Y60500000D03*
D60*
%TO.N,/MOSFET_NTC*%
X61000000Y43000000D03*
X57500000Y39000000D03*
X43195875Y21977431D03*
%TO.N,3.3V*%
X28500000Y13000000D03*
X41500000Y30500000D03*
D59*
X51500000Y31500000D03*
D60*
X51500000Y14500000D03*
D59*
X32212500Y32712500D03*
D60*
X50000000Y35500000D03*
X27500000Y30000000D03*
D59*
X25000000Y14000000D03*
D60*
X43000000Y13500000D03*
%TO.N,/RESET*%
X42481507Y20390280D03*
X46417131Y23467131D03*
%TO.N,BAT*%
X44500000Y39000000D03*
X13500000Y81500000D03*
%TO.N,/SWCLK*%
X34713911Y15063908D03*
%TO.N,/SWDIO*%
X34000000Y15000000D03*
%TO.N,/UART2_TX*%
X44149191Y24507459D03*
%TO.N,/UART2_RX*%
X42942494Y24057506D03*
%TO.N,/SCL*%
X48050000Y30500000D03*
X35587500Y15087500D03*
D58*
%TO.N,/Alert*%
X41713911Y24213911D03*
D60*
X46211089Y27963911D03*
%TO.N,/SDA*%
X49500000Y27050000D03*
X40087500Y15500000D03*
X47500000Y29675000D03*
D58*
%TO.N,/VDC_ADC*%
X45500000Y28904232D03*
D60*
X43057813Y22617187D03*
D58*
X45052326Y25251002D03*
D60*
X64500000Y58000000D03*
%TD*%
D61*
%TO.N,PGND*%
X4500000Y56347220D02*
X4500000Y58197220D01*
X9000000Y52972220D02*
X9450000Y52522220D01*
X30775000Y62022220D02*
X29022220Y62022220D01*
X12000000Y64500000D02*
X11024440Y64500000D01*
X3652780Y56347220D02*
X3000000Y57000000D01*
X4000000Y58697220D02*
X7390000Y58697220D01*
X4500000Y58197220D02*
X4000000Y58697220D01*
X4500000Y56347220D02*
X3652780Y56347220D01*
X9450000Y52522220D02*
X9450000Y50572220D01*
X11024440Y64500000D02*
X11002220Y64522220D01*
X29022220Y57522220D02*
X29000000Y57500000D01*
X7390000Y58697220D02*
X8365000Y57722220D01*
X14965000Y58222220D02*
X8865000Y58222220D01*
X33902500Y68097500D02*
X33500000Y68500000D01*
X31000000Y78000000D02*
X31000000Y71500000D01*
X10500000Y64522220D02*
X10500000Y68022220D01*
X30775000Y62022220D02*
X30775000Y57697220D01*
X30725000Y59522220D02*
X29022220Y59522220D01*
X9000000Y55022220D02*
X9000000Y52972220D01*
X31650000Y66500000D02*
X33680280Y66500000D01*
X33902500Y66722220D02*
X33902500Y68097500D01*
X9525000Y71022220D02*
X11477780Y71022220D01*
X11962220Y68022220D02*
X10500000Y68022220D01*
X9450000Y50572220D02*
X9500000Y50522220D01*
X30775000Y57697220D02*
X30950000Y57522220D01*
X8865000Y58222220D02*
X8365000Y57722220D01*
X30950000Y57522220D02*
X29022220Y57522220D01*
X9000000Y57087220D02*
X8365000Y57722220D01*
X33680280Y66500000D02*
X33902500Y66722220D01*
X29022220Y62022220D02*
X29000000Y62000000D01*
X31650000Y66500000D02*
X31650000Y67850000D01*
X29022220Y59522220D02*
X28701992Y59201992D01*
X11477780Y71022220D02*
X11500000Y71000000D01*
X11002220Y64522220D02*
X10500000Y64522220D01*
X31650000Y67850000D02*
X31500000Y68000000D01*
X9000000Y55022220D02*
X9000000Y57087220D01*
D62*
%TO.N,36V*%
X7625000Y71022220D02*
X7625000Y71625000D01*
X15500000Y73000000D02*
X17000000Y74500000D01*
D63*
X46500000Y36875000D02*
X46500000Y38150003D01*
X63500000Y61500000D02*
X64325000Y61500000D01*
D62*
X9000000Y73000000D02*
X15500000Y73000000D01*
D63*
X46500000Y38150003D02*
X46849997Y38500000D01*
D61*
X9000000Y63072220D02*
X7550000Y64522220D01*
D63*
X64325000Y61500000D02*
X64500000Y61325000D01*
D61*
X9000000Y60422220D02*
X9000000Y63072220D01*
D62*
X7625000Y71625000D02*
X9000000Y73000000D01*
D63*
X63000000Y61000000D02*
X63500000Y61500000D01*
D62*
X17000000Y74500000D02*
X17000000Y78950000D01*
D61*
X9050000Y60472220D02*
X9000000Y60422220D01*
D63*
X63000000Y60500000D02*
X63000000Y61000000D01*
%TO.N,Net-(D1-K)*%
X10292220Y55000000D02*
X10270000Y55022220D01*
X14000000Y61022220D02*
X15977780Y61022220D01*
D61*
X21515000Y49322220D02*
X19415000Y51422220D01*
D63*
X15977780Y61022220D02*
X16000000Y61000000D01*
D61*
X19415000Y51422220D02*
X14965000Y51422220D01*
X14965000Y51422220D02*
X12577780Y51422220D01*
X12577780Y51422220D02*
X10270000Y53730000D01*
X10270000Y53730000D02*
X10270000Y55022220D01*
D63*
X11500000Y55000000D02*
X10292220Y55000000D01*
%TO.N,Net-(U1-BOOT)*%
X10270000Y60422220D02*
X11850000Y60422220D01*
X11850000Y60422220D02*
X12450000Y61022220D01*
%TO.N,Net-(C4-Pad1)*%
X7775000Y50697220D02*
X7950000Y50522220D01*
X6000000Y50697220D02*
X7775000Y50697220D01*
D64*
%TO.N,Net-(U1-COMP)*%
X7725000Y52347220D02*
X7900000Y52522220D01*
X7900000Y54852220D02*
X7730000Y55022220D01*
X6000000Y52347220D02*
X7725000Y52347220D01*
X7900000Y52522220D02*
X7900000Y54852220D01*
D61*
%TO.N,12V*%
X38275000Y62522220D02*
X38275000Y56247220D01*
X38275000Y56247220D02*
X38050000Y56022220D01*
X31500000Y49237220D02*
X31415000Y49322220D01*
X32500000Y63575000D02*
X31575000Y64500000D01*
D62*
X42372220Y49872220D02*
X41500000Y49000000D01*
D61*
X31500000Y44500000D02*
X31500000Y49237220D01*
D62*
X43700000Y49872220D02*
X42372220Y49872220D01*
D61*
X32500000Y57522220D02*
X32500000Y63575000D01*
X4000000Y48500000D02*
X4000000Y51197220D01*
D64*
%TO.N,GND*%
X30265000Y28735000D02*
X30000000Y29000000D01*
X39315000Y25715000D02*
X39275000Y25675000D01*
D63*
X47500000Y36875000D02*
X47500000Y38500000D01*
D64*
X51275000Y35725000D02*
X51408975Y35591025D01*
D63*
X45827780Y56172220D02*
X45500000Y56500000D01*
X66500000Y62000000D02*
X66000000Y62500000D01*
X61000000Y61325000D02*
X61000000Y63000000D01*
X51000000Y52400000D02*
X51000000Y53500000D01*
D64*
X44775000Y17175000D02*
X43500000Y15900000D01*
X29000000Y14000000D02*
X28500000Y14000000D01*
X44525000Y32475000D02*
X44500000Y32500000D01*
D63*
X45450000Y42500000D02*
X45475000Y42500000D01*
D64*
X46000000Y32475000D02*
X44525000Y32475000D01*
X19450000Y17500000D02*
X18000000Y17500000D01*
X34040000Y27652780D02*
X34040000Y27960000D01*
D61*
X39950000Y56022220D02*
X39950000Y62397220D01*
D63*
X42450000Y45350000D02*
X42100000Y45000000D01*
X53500000Y52000000D02*
X53500000Y53500000D01*
D64*
X47200000Y20800000D02*
X47200000Y19375000D01*
X35825000Y29675000D02*
X35000000Y30500000D01*
D63*
X46000000Y56172220D02*
X46000000Y58000000D01*
X38500000Y66722220D02*
X36827500Y66722220D01*
D64*
X35962500Y29675000D02*
X37158720Y28478780D01*
X30265000Y27652780D02*
X30265000Y28735000D01*
X40500000Y25675000D02*
X39275000Y25675000D01*
D61*
X46000000Y49872220D02*
X46000000Y48000000D01*
X41477780Y60522220D02*
X41500000Y60500000D01*
D63*
X45447154Y20897154D02*
X45602846Y20897154D01*
X42450000Y47000000D02*
X42450000Y45350000D01*
D64*
X24951992Y12548008D02*
X24730000Y12770000D01*
X43500000Y15900000D02*
X43500000Y14500000D01*
X30500000Y15500000D02*
X29000000Y14000000D01*
X37158720Y28478780D02*
X38489000Y28478780D01*
D61*
X39825000Y62522220D02*
X41477780Y62522220D01*
D63*
X66500000Y61325000D02*
X66500000Y62000000D01*
D64*
X53500000Y15725000D02*
X53500000Y14500000D01*
X34040000Y27960000D02*
X33000000Y29000000D01*
X24730000Y12770000D02*
X22975000Y12770000D01*
D63*
X56000000Y51500000D02*
X56000000Y53000000D01*
D64*
X51000000Y23500000D02*
X51000000Y24500000D01*
D63*
X45475000Y42500000D02*
X46975000Y41000000D01*
D64*
X30500000Y16675000D02*
X30500000Y15500000D01*
X51275000Y36975000D02*
X51275000Y35725000D01*
X35962500Y29675000D02*
X35825000Y29675000D01*
D61*
X41477780Y62522220D02*
X41500000Y62500000D01*
D64*
X42725000Y26500000D02*
X41500000Y26500000D01*
D63*
X45275000Y20725000D02*
X45447154Y20897154D01*
D64*
X46500000Y32475000D02*
X46000000Y32475000D01*
D61*
X39950000Y56022220D02*
X41477780Y56022220D01*
D63*
X43500000Y20725000D02*
X45275000Y20725000D01*
D64*
X34040000Y25715000D02*
X34000000Y25675000D01*
D61*
X39825000Y60522220D02*
X41477780Y60522220D01*
X41477780Y56022220D02*
X41500000Y56000000D01*
D64*
X39315000Y27652780D02*
X39315000Y25715000D01*
D63*
X42100000Y45000000D02*
X42000000Y45000000D01*
D64*
X41500000Y13400000D02*
X40100000Y13400000D01*
X45500000Y17175000D02*
X44775000Y17175000D01*
X39315000Y27652780D02*
X40347220Y27652780D01*
X30265000Y27652780D02*
X30265000Y25652780D01*
D61*
X49625000Y42500000D02*
X51500000Y42500000D01*
D64*
X14000000Y11500000D02*
X14000000Y10000000D01*
D63*
X46000000Y56172220D02*
X45827780Y56172220D01*
D64*
X34040000Y27652780D02*
X34040000Y25715000D01*
D61*
X41477780Y58522220D02*
X41500000Y58500000D01*
D64*
X40100000Y13400000D02*
X40000000Y13500000D01*
D61*
X39950000Y62397220D02*
X39825000Y62522220D01*
D64*
X38489000Y28478780D02*
X39315000Y27652780D01*
D61*
X39950000Y58522220D02*
X41477780Y58522220D01*
D63*
X42000000Y45000000D02*
X41000000Y44000000D01*
D61*
X49275000Y44500000D02*
X50500000Y44500000D01*
%TO.N,5V*%
X48300000Y49872220D02*
X50000000Y49872220D01*
X77350000Y14122220D02*
X58500000Y32972220D01*
X48300000Y49872220D02*
X48300000Y47237500D01*
X48300000Y47237500D02*
X47031250Y45968750D01*
X55087500Y50450000D02*
X56037500Y49500000D01*
X44000000Y42937500D02*
X43987500Y42937500D01*
X53450000Y50500000D02*
X53500000Y50450000D01*
X50000000Y49872220D02*
X50372220Y49872220D01*
X47031250Y45968750D02*
X45781250Y44718750D01*
X50372220Y49872220D02*
X51000000Y50500000D01*
X58500000Y41372220D02*
X50000000Y49872220D01*
X47031250Y45968750D02*
X46031250Y45968750D01*
X45781250Y44718750D02*
X44000000Y42937500D01*
X43987500Y42937500D02*
X43550000Y42500000D01*
X51000000Y50500000D02*
X53450000Y50500000D01*
X46031250Y45968750D02*
X45000000Y47000000D01*
X53500000Y50450000D02*
X55087500Y50450000D01*
X45500000Y45000000D02*
X44000000Y45000000D01*
X45000000Y47000000D02*
X44000000Y47000000D01*
X58500000Y32972220D02*
X58500000Y41372220D01*
X45781250Y44718750D02*
X45500000Y45000000D01*
D63*
%TO.N,/MOSFET_NTC*%
X48000000Y26500000D02*
X43477431Y21977431D01*
X48522569Y21977431D02*
X43195875Y21977431D01*
X43477431Y21977431D02*
X43195875Y21977431D01*
X57500000Y39000000D02*
X54500000Y36000000D01*
X54500000Y36000000D02*
X54500000Y29500000D01*
X51500000Y26500000D02*
X48000000Y26500000D01*
X51500000Y19000000D02*
X48522569Y21977431D01*
X51550000Y17275000D02*
X51500000Y17325000D01*
X61000000Y43000000D02*
X61000000Y59675000D01*
X41918716Y20840280D02*
X43126718Y22048282D01*
X54500000Y29500000D02*
X51500000Y26500000D01*
X58825000Y59675000D02*
X58500000Y60000000D01*
X40727500Y20840280D02*
X41918716Y20840280D01*
X53500000Y17275000D02*
X51550000Y17275000D01*
X61000000Y59675000D02*
X58825000Y59675000D01*
X51500000Y17325000D02*
X51500000Y19000000D01*
D61*
%TO.N,3.3V*%
X47725000Y44500000D02*
X47725000Y42500000D01*
D64*
X35040000Y23527780D02*
X35040000Y24051790D01*
D61*
X32212500Y32175000D02*
X32212500Y32000000D01*
X48000000Y39500000D02*
X45625000Y39500000D01*
X48000000Y39500000D02*
X47725000Y39775000D01*
X47725000Y39775000D02*
X47725000Y42500000D01*
D64*
X51500000Y15675000D02*
X51500000Y14500000D01*
D65*
X41500000Y16567780D02*
X40727500Y17340280D01*
D64*
X22000001Y14040000D02*
X22975000Y14040000D01*
D65*
X41500000Y14950000D02*
X41500000Y16567780D01*
D61*
X48201000Y36975000D02*
X48101000Y36875000D01*
X45625000Y39500000D02*
X44500000Y40625000D01*
X32212500Y32175000D02*
X32712500Y31675000D01*
D63*
X40040000Y16652780D02*
X41500000Y15192780D01*
X33852500Y17840280D02*
X33215280Y17840280D01*
X32050000Y16675000D02*
X33215280Y17840280D01*
X30325000Y13000000D02*
X28500000Y13000000D01*
D64*
X42850000Y30000000D02*
X42000000Y30000000D01*
D61*
X32712500Y31675000D02*
X36000000Y31675000D01*
D63*
X32050000Y16050000D02*
X31000000Y15000000D01*
D61*
X51150000Y30175000D02*
X51150000Y28175000D01*
D63*
X32050000Y16675000D02*
X32050000Y16050000D01*
D61*
X31815000Y27652780D02*
X31815000Y29777500D01*
D64*
X35040000Y24051790D02*
X34439010Y24652780D01*
X33040000Y24652780D02*
X32040000Y25652780D01*
D61*
X49725000Y37775000D02*
X49725000Y36975000D01*
D63*
X31000000Y13675000D02*
X30325000Y13000000D01*
D61*
X32212500Y32712500D02*
X32212500Y32000000D01*
X32212500Y32000000D02*
X32212500Y31175000D01*
X32212500Y31175000D02*
X32212500Y30175000D01*
X49725000Y35775000D02*
X50000000Y35500000D01*
X51150000Y31150000D02*
X51500000Y31500000D01*
D64*
X42000000Y30000000D02*
X41500000Y30500000D01*
D61*
X49725000Y36975000D02*
X49725000Y35775000D01*
D63*
X27500000Y28462500D02*
X27500000Y30000000D01*
D64*
X24960000Y14040000D02*
X25000000Y14000000D01*
X22975000Y14040000D02*
X24960000Y14040000D01*
D61*
X31815000Y29777500D02*
X32212500Y30175000D01*
X31815000Y27652780D02*
X31815000Y25652780D01*
X48000000Y39500000D02*
X49725000Y37775000D01*
D64*
X21000000Y15040001D02*
X22000001Y14040000D01*
D61*
X32212500Y31175000D02*
X32712500Y31675000D01*
X48101000Y36975000D02*
X49725000Y36975000D01*
D63*
X41500000Y15192780D02*
X41500000Y14950000D01*
D61*
X51150000Y30175000D02*
X51150000Y31150000D01*
X49725000Y36975000D02*
X48201000Y36975000D01*
D64*
X21000000Y17500000D02*
X21000000Y15040001D01*
D65*
X41550000Y14950000D02*
X43000000Y13500000D01*
D63*
X31000000Y15000000D02*
X31000000Y13675000D01*
D64*
X34439010Y24652780D02*
X33040000Y24652780D01*
D65*
X41500000Y14950000D02*
X41550000Y14950000D01*
D61*
%TO.N,A3.3V*%
X33787500Y29455280D02*
X35590000Y27652780D01*
X35590000Y25715000D02*
X35550000Y25675000D01*
X37725000Y25675000D02*
X37725000Y27612780D01*
D63*
X36540000Y23527780D02*
X36540000Y24490000D01*
D61*
X33787500Y30175000D02*
X33787500Y29455280D01*
D63*
X36040000Y25185000D02*
X35550000Y25675000D01*
D61*
X37725000Y27612780D02*
X37765000Y27652780D01*
D63*
X36040000Y23527780D02*
X36040000Y25185000D01*
X36040000Y23527780D02*
X36540000Y23527780D01*
D61*
X35590000Y27652780D02*
X35590000Y25715000D01*
D63*
X36540000Y24490000D02*
X37725000Y25675000D01*
%TO.N,/RESET*%
X42477967Y20340280D02*
X40727500Y20340280D01*
X52450000Y20500000D02*
X49450000Y23500000D01*
X42481507Y20343820D02*
X42477967Y20340280D01*
X42481507Y20390280D02*
X42481507Y20343820D01*
X53500000Y20500000D02*
X52450000Y20500000D01*
X53500000Y20500000D02*
X60000000Y20500000D01*
X46417131Y23467131D02*
X46450000Y23500000D01*
X46450000Y23500000D02*
X49450000Y23500000D01*
%TO.N,/OSC_OUT*%
X45500000Y19375000D02*
X45700000Y19175000D01*
X43500000Y19382500D02*
X45492500Y19382500D01*
X45550000Y19175000D02*
X45650000Y19275000D01*
X40825500Y19840280D02*
X41822530Y19840280D01*
X45492500Y19382500D02*
X45500000Y19375000D01*
X42280310Y19382500D02*
X43500000Y19382500D01*
X41822530Y19840280D02*
X42280310Y19382500D01*
%TO.N,/OSC_IN*%
X43500000Y18067500D02*
X43633500Y18201000D01*
X42932500Y18067500D02*
X43500000Y18067500D01*
X46274000Y18201000D02*
X47200000Y17275000D01*
X47350000Y17175000D02*
X47350000Y17075000D01*
X47200000Y17275000D02*
X47200000Y17175000D01*
X40727500Y19340280D02*
X41659720Y19340280D01*
X43633500Y18201000D02*
X46274000Y18201000D01*
X41659720Y19340280D02*
X42932500Y18067500D01*
D64*
%TO.N,Net-(D2-K)*%
X30000000Y66500000D02*
X30000000Y64500000D01*
%TO.N,Net-(D3-K)*%
X37575000Y29712500D02*
X37612500Y29675000D01*
X37575000Y31675000D02*
X37575000Y29712500D01*
%TO.N,Net-(D4-K)*%
X57650000Y51500000D02*
X57650000Y49537500D01*
X57650000Y49537500D02*
X57612500Y49500000D01*
D63*
%TO.N,Net-(D5-K)*%
X27500000Y24500000D02*
X27500000Y26887500D01*
X26500000Y32175000D02*
X26500000Y27887500D01*
X26500000Y27887500D02*
X27500000Y26887500D01*
%TO.N,BAT*%
X47000000Y36875000D02*
X47000000Y36080822D01*
X44500000Y38375000D02*
X44500000Y39000000D01*
X46000000Y36875000D02*
X44500000Y38375000D01*
D62*
X16827780Y85222220D02*
X17000000Y85050000D01*
D63*
X46743178Y35824000D02*
X46256822Y35824000D01*
X46000000Y36080822D02*
X46000000Y36875000D01*
X47000000Y36080822D02*
X46743178Y35824000D01*
X13500000Y81550000D02*
X17000000Y85050000D01*
X46256822Y35824000D02*
X46000000Y36080822D01*
X13500000Y81500000D02*
X13500000Y81550000D01*
D64*
%TO.N,Net-(J5-Pin_2)*%
X32540000Y12675000D02*
X34675000Y12675000D01*
X31000000Y11135000D02*
X32540000Y12675000D01*
D63*
%TO.N,/SWCLK*%
X34540000Y15237819D02*
X34713911Y15063908D01*
X34540000Y16652780D02*
X34540000Y15237819D01*
%TO.N,/SWDIO*%
X33852500Y15147500D02*
X34000000Y15000000D01*
X33852500Y17340280D02*
X33852500Y15147500D01*
%TO.N,/UART2_TX*%
X44049191Y24507459D02*
X44149191Y24507459D01*
X44149191Y24507459D02*
X44149191Y24486384D01*
X41503087Y21840280D02*
X40727500Y21840280D01*
X44049191Y24386385D02*
X44049191Y24507459D01*
X44149191Y24486384D02*
X41503087Y21840280D01*
%TO.N,/UART2_RX*%
X42942494Y24057506D02*
X42942494Y23942494D01*
X42942494Y23942494D02*
X41340280Y22340280D01*
X41340280Y22340280D02*
X40727500Y22340280D01*
%TO.N,/CAN_HIGH*%
X16850000Y6022220D02*
X16850000Y6175000D01*
X19675000Y9000000D02*
X19675000Y12094999D01*
X18999999Y12770000D02*
X18025000Y12770000D01*
X16850000Y6175000D02*
X19675000Y9000000D01*
X19675000Y12094999D02*
X18999999Y12770000D01*
%TO.N,/CAN_LOW*%
X21325000Y9000000D02*
X21325000Y11714999D01*
X18999999Y14040000D02*
X18025000Y14040000D01*
X23850000Y6022220D02*
X21325000Y8547220D01*
X21325000Y8547220D02*
X21325000Y9000000D01*
X21325000Y11714999D02*
X18999999Y14040000D01*
D64*
%TO.N,Net-(U1-RT{slash}CLK)*%
X6385000Y60347220D02*
X6460000Y60422220D01*
X4000000Y60347220D02*
X6385000Y60347220D01*
%TO.N,FB*%
X4500000Y54697220D02*
X4500000Y53347220D01*
X4500000Y53347220D02*
X4000000Y52847220D01*
X6135000Y54697220D02*
X6460000Y55022220D01*
X4500000Y54697220D02*
X6135000Y54697220D01*
D63*
%TO.N,/BOOT0*%
X38000000Y12675000D02*
X36325000Y12675000D01*
X39040000Y13715000D02*
X38000000Y12675000D01*
X39040000Y16652780D02*
X39040000Y13715000D01*
%TO.N,/SCL*%
X48050000Y30500000D02*
X48375000Y30175000D01*
X50975000Y32475000D02*
X48000000Y32475000D01*
X48050000Y30500000D02*
X48050000Y32425000D01*
X35587500Y15087500D02*
X35040000Y15635000D01*
X52500000Y34000000D02*
X50975000Y32475000D01*
X48050000Y32425000D02*
X48000000Y32475000D01*
X48375000Y30175000D02*
X49500000Y30175000D01*
X35040000Y15635000D02*
X35040000Y16652780D01*
%TO.N,/LED*%
X33852500Y22840280D02*
X27659720Y22840280D01*
X27659720Y22840280D02*
X27500000Y23000000D01*
%TO.N,Net-(U7-Rs)*%
X15650000Y11500000D02*
X18025000Y11500000D01*
%TO.N,/Alert*%
X41500000Y24000000D02*
X40727500Y23227500D01*
X45289530Y30000000D02*
X46211089Y29078441D01*
X46949000Y28701822D02*
X46211089Y27963911D01*
X41713911Y24213911D02*
X41500000Y24000000D01*
X47000000Y32475000D02*
X46976000Y32451000D01*
X46976000Y32451000D02*
X46976000Y31656822D01*
X40727500Y23227500D02*
X40727500Y22840280D01*
X46976000Y31656822D02*
X46949000Y31629822D01*
X46211089Y29078441D02*
X46211089Y27963911D01*
X46949000Y31629822D02*
X46949000Y28701822D01*
X44500000Y30000000D02*
X45289530Y30000000D01*
%TO.N,/SDA*%
X49500000Y28175000D02*
X49000000Y28175000D01*
X47500000Y29675000D02*
X47500000Y32475000D01*
X47500000Y33269178D02*
X47500000Y32475000D01*
X49000000Y28175000D02*
X47500000Y29675000D01*
X39540000Y16652780D02*
X39540000Y16047500D01*
X39540000Y16047500D02*
X40087500Y15500000D01*
X49500000Y27050000D02*
X49500000Y28175000D01*
X50000000Y34000000D02*
X48230822Y34000000D01*
X48230822Y34000000D02*
X47500000Y33269178D01*
%TO.N,/CAN1_RX*%
X26505280Y18840280D02*
X33852500Y18840280D01*
X22975000Y15310000D02*
X26505280Y18840280D01*
%TO.N,/CAN1_TX*%
X30000000Y18000000D02*
X31500000Y18000000D01*
X31500000Y18000000D02*
X31840280Y18340280D01*
X29000000Y17000000D02*
X30000000Y18000000D01*
X25000000Y11500000D02*
X29000000Y15500000D01*
X31840280Y18340280D02*
X33852500Y18340280D01*
X22975000Y11500000D02*
X25000000Y11500000D01*
X29000000Y15500000D02*
X29000000Y17000000D01*
%TO.N,/VDC_ADC*%
X40727500Y21340280D02*
X41780906Y21340280D01*
X64500000Y59675000D02*
X64500000Y58000000D01*
X44275000Y26050002D02*
X44275000Y26500000D01*
X45500000Y28904232D02*
X45404232Y28904232D01*
X45404232Y28904232D02*
X44275000Y27775000D01*
X44912501Y25390827D02*
X45052326Y25251002D01*
X44912501Y25412501D02*
X44912501Y25390827D01*
X44275000Y27775000D02*
X44275000Y26500000D01*
X41780906Y21340280D02*
X43057813Y22617187D01*
X64500000Y59675000D02*
X66500000Y59675000D01*
X44912501Y25412501D02*
X44275000Y26050002D01*
X45000000Y25325002D02*
X44912501Y25412501D01*
%TD*%
%TA.AperFunction,Conductor*%
%TO.N,36V*%
G36*
X6568039Y71502535D02*
G01*
X6613794Y71449731D01*
X6625000Y71398220D01*
X6625000Y71272220D01*
X7501000Y71272220D01*
X7568039Y71252535D01*
X7613794Y71199731D01*
X7625000Y71148220D01*
X7625000Y71022220D01*
X7751000Y71022220D01*
X7818039Y71002535D01*
X7863794Y70949731D01*
X7875000Y70898220D01*
X7875000Y69791220D01*
X7855315Y69724181D01*
X7834078Y69705780D01*
X7836319Y69703539D01*
X7800000Y69667220D01*
X7800000Y64646220D01*
X7780315Y64579181D01*
X7727511Y64533426D01*
X7676000Y64522220D01*
X7550000Y64522220D01*
X7550000Y64396220D01*
X7530315Y64329181D01*
X7477511Y64283426D01*
X7426000Y64272220D01*
X6475001Y64272220D01*
X6475001Y63372234D01*
X6485494Y63269523D01*
X6540641Y63103101D01*
X6540643Y63103096D01*
X6632684Y62953875D01*
X6756654Y62829905D01*
X6883348Y62751759D01*
X6930072Y62699811D01*
X6941295Y62630848D01*
X6913451Y62566766D01*
X6855382Y62527910D01*
X6818251Y62522220D01*
X2051362Y62522220D01*
X1984323Y62541905D01*
X1963681Y62558539D01*
X1036819Y63485401D01*
X1003334Y63546724D01*
X1000500Y63573082D01*
X1000500Y65672207D01*
X6475000Y65672207D01*
X6475000Y64772220D01*
X7300000Y64772220D01*
X7300000Y67772220D01*
X6475001Y67772220D01*
X6475001Y66872234D01*
X6485494Y66769523D01*
X6540641Y66603101D01*
X6540643Y66603096D01*
X6632684Y66453875D01*
X6726658Y66359901D01*
X6760143Y66298578D01*
X6755159Y66228886D01*
X6726658Y66184539D01*
X6632684Y66090566D01*
X6540643Y65941345D01*
X6540641Y65941340D01*
X6485494Y65774918D01*
X6485493Y65774911D01*
X6475000Y65672207D01*
X1000500Y65672207D01*
X1000500Y69172207D01*
X6475000Y69172207D01*
X6475000Y68272220D01*
X7300000Y68272220D01*
X7300000Y69878220D01*
X7319685Y69945259D01*
X7340921Y69963661D01*
X7338681Y69965901D01*
X7375000Y70002220D01*
X7375000Y70772220D01*
X6625001Y70772220D01*
X6625001Y70497234D01*
X6635494Y70394523D01*
X6690641Y70228101D01*
X6690643Y70228096D01*
X6782684Y70078875D01*
X6887207Y69974352D01*
X6920692Y69913029D01*
X6915708Y69843337D01*
X6873836Y69787404D01*
X6864623Y69781133D01*
X6756659Y69714540D01*
X6756655Y69714537D01*
X6632684Y69590566D01*
X6540643Y69441345D01*
X6540641Y69441340D01*
X6485494Y69274918D01*
X6485493Y69274911D01*
X6475000Y69172207D01*
X1000500Y69172207D01*
X1000500Y70471358D01*
X1020185Y70538397D01*
X1036819Y70559039D01*
X1963681Y71485901D01*
X2025004Y71519386D01*
X2051362Y71522220D01*
X6501000Y71522220D01*
X6568039Y71502535D01*
G37*
%TD.AperFunction*%
%TD*%
%TA.AperFunction,Conductor*%
%TO.N,Net-(D1-K)*%
G36*
X10463039Y55002535D02*
G01*
X10508794Y54949731D01*
X10520000Y54898220D01*
X10520000Y53747220D01*
X10617828Y53747220D01*
X10617844Y53747221D01*
X10677372Y53753622D01*
X10677379Y53753624D01*
X10812086Y53803866D01*
X10812093Y53803870D01*
X10927186Y53890029D01*
X11012433Y54003904D01*
X11068367Y54045775D01*
X11138058Y54050759D01*
X11175495Y54035923D01*
X11884620Y53610448D01*
X12895225Y53004085D01*
X12942584Y52952714D01*
X12954651Y52883894D01*
X12936967Y52832659D01*
X12880643Y52741345D01*
X12880641Y52741340D01*
X12825494Y52574918D01*
X12825493Y52574911D01*
X12815000Y52472207D01*
X12815000Y51672220D01*
X17114999Y51672220D01*
X17114999Y52098220D01*
X17134684Y52165259D01*
X17187488Y52211014D01*
X17238999Y52222220D01*
X18349733Y52222220D01*
X18379807Y52218518D01*
X19471076Y51945701D01*
X19531340Y51910344D01*
X19562922Y51848020D01*
X19564521Y51825356D01*
X19565000Y51825356D01*
X19565000Y49572220D01*
X21391000Y49572220D01*
X21458039Y49552535D01*
X21503794Y49499731D01*
X21515000Y49448220D01*
X21515000Y49196220D01*
X21495315Y49129181D01*
X21442511Y49083426D01*
X21391000Y49072220D01*
X19565000Y49072220D01*
X19565000Y47695489D01*
X19545315Y47628450D01*
X19492511Y47582695D01*
X19423353Y47572751D01*
X19359797Y47601776D01*
X19359345Y47602169D01*
X18047879Y48749701D01*
X16923764Y49733301D01*
X16886276Y49792259D01*
X16886614Y49862128D01*
X16917741Y49914301D01*
X16957315Y49953876D01*
X17049356Y50103096D01*
X17049358Y50103101D01*
X17104505Y50269523D01*
X17104506Y50269530D01*
X17114999Y50372234D01*
X17115000Y50372247D01*
X17115000Y51172220D01*
X12815001Y51172220D01*
X12815001Y50372236D01*
X12816372Y50358823D01*
X12803603Y50290130D01*
X12755723Y50239245D01*
X12693014Y50222220D01*
X11441636Y50222220D01*
X11374597Y50241905D01*
X11330727Y50290766D01*
X10878091Y51196038D01*
X10865000Y51251492D01*
X10865000Y53222220D01*
X10864999Y53222221D01*
X10088545Y53610448D01*
X10037387Y53658035D01*
X10020000Y53721357D01*
X10020000Y54898220D01*
X10039685Y54965259D01*
X10092489Y55011014D01*
X10144000Y55022220D01*
X10396000Y55022220D01*
X10463039Y55002535D01*
G37*
%TD.AperFunction*%
%TD*%
%TA.AperFunction,Conductor*%
%TO.N,36V*%
G36*
X30005039Y89480315D02*
G01*
X30037200Y89450400D01*
X31475200Y87533067D01*
X31482976Y87512276D01*
X31494977Y87493602D01*
X31498109Y87471813D01*
X31499676Y87467625D01*
X31500000Y87458667D01*
X31500000Y87324000D01*
X31480315Y87256961D01*
X31427511Y87211206D01*
X31376000Y87200000D01*
X31250000Y87200000D01*
X31250000Y86048483D01*
X31231591Y86059111D01*
X31078991Y86100000D01*
X30921009Y86100000D01*
X30768409Y86059111D01*
X30750000Y86048483D01*
X30750000Y87200000D01*
X29752155Y87200000D01*
X29692627Y87193599D01*
X29692620Y87193597D01*
X29557913Y87143355D01*
X29557906Y87143351D01*
X29442812Y87057191D01*
X29442809Y87057188D01*
X29356649Y86942094D01*
X29356645Y86942087D01*
X29306403Y86807380D01*
X29306401Y86807373D01*
X29300000Y86747845D01*
X29300000Y85750000D01*
X30451518Y85750000D01*
X30440889Y85731591D01*
X30400000Y85578991D01*
X30400000Y85421009D01*
X30440889Y85268409D01*
X30451518Y85250000D01*
X29300000Y85250000D01*
X29300000Y84252156D01*
X29306401Y84192628D01*
X29306403Y84192621D01*
X29356645Y84057914D01*
X29356649Y84057907D01*
X29442809Y83942813D01*
X29442812Y83942810D01*
X29557906Y83856650D01*
X29557913Y83856646D01*
X29692620Y83806404D01*
X29692627Y83806402D01*
X29752155Y83800001D01*
X29752172Y83800000D01*
X30750000Y83800000D01*
X30750000Y84951518D01*
X30768409Y84940889D01*
X30921009Y84900000D01*
X31078991Y84900000D01*
X31231591Y84940889D01*
X31250000Y84951518D01*
X31250000Y83800000D01*
X31376000Y83800000D01*
X31443039Y83780315D01*
X31488794Y83727511D01*
X31500000Y83676000D01*
X31500000Y79480785D01*
X31480315Y79413746D01*
X31427511Y79367991D01*
X31358353Y79358047D01*
X31337685Y79362853D01*
X31327952Y79366015D01*
X31219086Y79383258D01*
X31110222Y79400500D01*
X30889778Y79400500D01*
X30817201Y79389005D01*
X30672047Y79366015D01*
X30462396Y79297897D01*
X30462393Y79297896D01*
X30265974Y79197813D01*
X30087641Y79068248D01*
X30087636Y79068244D01*
X29931756Y78912364D01*
X29931752Y78912359D01*
X29802187Y78734026D01*
X29702104Y78537607D01*
X29702103Y78537604D01*
X29633985Y78327953D01*
X29599500Y78110222D01*
X29599500Y77889779D01*
X29633985Y77672048D01*
X29702103Y77462397D01*
X29702104Y77462394D01*
X29802187Y77265975D01*
X29931752Y77087642D01*
X29931756Y77087637D01*
X30087636Y76931757D01*
X30087641Y76931753D01*
X30243192Y76818740D01*
X30265978Y76802185D01*
X30462394Y76702105D01*
X30463802Y76701648D01*
X30464269Y76701329D01*
X30466894Y76700241D01*
X30466665Y76699691D01*
X30521481Y76662220D01*
X30548690Y76597866D01*
X30549500Y76583712D01*
X30549500Y73624000D01*
X30529815Y73556961D01*
X30477011Y73511206D01*
X30425500Y73500000D01*
X17070207Y73500000D01*
X17003168Y73519685D01*
X16963878Y73560203D01*
X15517671Y75970549D01*
X15500000Y76034346D01*
X15500000Y77626001D01*
X15519685Y77693040D01*
X15572489Y77738795D01*
X15624000Y77750001D01*
X16749999Y77750001D01*
X17250000Y77750001D01*
X18474972Y77750001D01*
X18474986Y77750002D01*
X18577696Y77760495D01*
X18577698Y77760495D01*
X18744119Y77815641D01*
X18744130Y77815646D01*
X18893340Y77907681D01*
X18893344Y77907684D01*
X19017316Y78031656D01*
X19017319Y78031660D01*
X19109354Y78180870D01*
X19109359Y78180881D01*
X19164505Y78347303D01*
X19174999Y78450014D01*
X19175000Y78450027D01*
X19175000Y78700000D01*
X17250000Y78700000D01*
X17250000Y77750001D01*
X16749999Y77750001D01*
X16750000Y77750002D01*
X16750000Y78826000D01*
X16769685Y78893039D01*
X16822489Y78938794D01*
X16874000Y78950000D01*
X17000000Y78950000D01*
X17000000Y79076000D01*
X17019685Y79143039D01*
X17072489Y79188794D01*
X17124000Y79200000D01*
X19174999Y79200000D01*
X19174999Y79449972D01*
X19174998Y79449987D01*
X19164505Y79552697D01*
X19164505Y79552699D01*
X19109359Y79719120D01*
X19109354Y79719131D01*
X19017319Y79868341D01*
X19017316Y79868345D01*
X18893344Y79992317D01*
X18893340Y79992320D01*
X18744130Y80084355D01*
X18744119Y80084360D01*
X18577694Y80139507D01*
X18575396Y80139999D01*
X18574115Y80140693D01*
X18571269Y80141636D01*
X18571437Y80142144D01*
X18513963Y80173283D01*
X18480278Y80234496D01*
X18485034Y80304204D01*
X18495022Y80325038D01*
X19500000Y82000000D01*
X19500000Y87948638D01*
X19519685Y88015677D01*
X19536319Y88036319D01*
X20963681Y89463681D01*
X21025004Y89497166D01*
X21051362Y89500000D01*
X29938000Y89500000D01*
X30005039Y89480315D01*
G37*
%TD.AperFunction*%
%TD*%
%TA.AperFunction,Conductor*%
%TO.N,BAT*%
G36*
X17015677Y87980315D02*
G01*
X17036319Y87963681D01*
X18463681Y86536319D01*
X18478384Y86509392D01*
X18494977Y86483573D01*
X18495868Y86477373D01*
X18497166Y86474996D01*
X18500000Y86448638D01*
X18500000Y86374000D01*
X18480315Y86306961D01*
X18427511Y86261206D01*
X18376000Y86250000D01*
X17250000Y86250000D01*
X17250000Y83850001D01*
X17834971Y83850001D01*
X17902010Y83830316D01*
X17947765Y83777512D01*
X17957709Y83708354D01*
X17938145Y83657218D01*
X17536811Y83055217D01*
X17483246Y83010356D01*
X17433637Y83000000D01*
X10657677Y83000000D01*
X10590638Y83019685D01*
X10544883Y83072489D01*
X10534939Y83141647D01*
X10563964Y83205203D01*
X10580364Y83220947D01*
X10617836Y83250831D01*
X9761717Y84106950D01*
X9879466Y84192498D01*
X10029722Y84342754D01*
X10115271Y84460503D01*
X10971389Y83604384D01*
X11082958Y83744285D01*
X11235337Y83986796D01*
X11359603Y84244837D01*
X11454196Y84515166D01*
X11454200Y84515178D01*
X11462151Y84550014D01*
X14825001Y84550014D01*
X14835494Y84447304D01*
X14835494Y84447302D01*
X14890640Y84280881D01*
X14890645Y84280870D01*
X14982680Y84131660D01*
X14982683Y84131656D01*
X15106655Y84007684D01*
X15106659Y84007681D01*
X15255869Y83915646D01*
X15255880Y83915641D01*
X15422302Y83860495D01*
X15525020Y83850001D01*
X16749999Y83850001D01*
X16750000Y83850002D01*
X16750000Y84800000D01*
X14825001Y84800000D01*
X14825001Y84550014D01*
X11462151Y84550014D01*
X11517931Y84794403D01*
X11517934Y84794420D01*
X11525914Y84865245D01*
X11525914Y84865246D01*
X11549999Y85079011D01*
X11550000Y85079013D01*
X11550000Y85365428D01*
X11549999Y85365432D01*
X11530415Y85539253D01*
X11529205Y85549987D01*
X14825000Y85549987D01*
X14825000Y85300000D01*
X16750000Y85300000D01*
X16750000Y86250000D01*
X15525028Y86250000D01*
X15525012Y86249999D01*
X15422303Y86239506D01*
X15422301Y86239506D01*
X15255880Y86184360D01*
X15255869Y86184355D01*
X15106659Y86092320D01*
X15106655Y86092317D01*
X14982683Y85968345D01*
X14982680Y85968341D01*
X14890645Y85819131D01*
X14890640Y85819120D01*
X14835494Y85652698D01*
X14825000Y85549987D01*
X11529205Y85549987D01*
X11517933Y85650022D01*
X11517931Y85650038D01*
X11454200Y85929263D01*
X11454196Y85929275D01*
X11359603Y86199604D01*
X11235337Y86457645D01*
X11082957Y86700156D01*
X10971390Y86840058D01*
X10115270Y85983939D01*
X10029722Y86101686D01*
X9879466Y86251942D01*
X9761716Y86337493D01*
X10617836Y87193612D01*
X10477935Y87305178D01*
X10235424Y87457558D01*
X9977386Y87581823D01*
X9840843Y87629602D01*
X9784068Y87670324D01*
X9758321Y87735277D01*
X9771778Y87803838D01*
X9804333Y87843467D01*
X9966035Y87972828D01*
X10030681Y87999336D01*
X10043497Y88000000D01*
X16948638Y88000000D01*
X17015677Y87980315D01*
G37*
%TD.AperFunction*%
%TD*%
%TA.AperFunction,Conductor*%
%TO.N,12V*%
G36*
X36525706Y64980315D02*
G01*
X36533062Y64975204D01*
X38106774Y63794920D01*
X38206107Y63720420D01*
X38247928Y63664449D01*
X38252849Y63594753D01*
X38219309Y63533460D01*
X38157956Y63500030D01*
X38131708Y63497220D01*
X38001693Y63497220D01*
X38001676Y63497219D01*
X37902392Y63487076D01*
X37741518Y63433768D01*
X37741507Y63433763D01*
X37597271Y63344796D01*
X37597267Y63344793D01*
X37477427Y63224953D01*
X37477424Y63224949D01*
X37388457Y63080713D01*
X37388452Y63080702D01*
X37335144Y62919827D01*
X37325000Y62820543D01*
X37325000Y62772220D01*
X38151000Y62772220D01*
X38218039Y62752535D01*
X38263794Y62699731D01*
X38275000Y62648220D01*
X38275000Y62522220D01*
X38401000Y62522220D01*
X38468039Y62502535D01*
X38500000Y62465651D01*
X38500000Y59469576D01*
X38452511Y59428426D01*
X38401000Y59417220D01*
X38300000Y59417220D01*
X38300000Y54797221D01*
X38349972Y54797221D01*
X38349984Y54797222D01*
X38363397Y54798592D01*
X38432090Y54785823D01*
X38482975Y54737943D01*
X38500000Y54675234D01*
X38500000Y47037544D01*
X38480315Y46970505D01*
X38479174Y46968761D01*
X37536811Y45555217D01*
X37483246Y45510356D01*
X37433637Y45500000D01*
X31066363Y45500000D01*
X30999324Y45519685D01*
X30963189Y45555217D01*
X30713708Y45929438D01*
X30692900Y45996137D01*
X30711455Y46063498D01*
X30763482Y46110134D01*
X30816882Y46122221D01*
X31165000Y46122221D01*
X31665000Y46122221D01*
X32664972Y46122221D01*
X32664986Y46122222D01*
X32767697Y46132715D01*
X32934119Y46187862D01*
X32934124Y46187864D01*
X33083345Y46279905D01*
X33207315Y46403875D01*
X33299356Y46553096D01*
X33299358Y46553101D01*
X33354505Y46719523D01*
X33354506Y46719530D01*
X33364999Y46822234D01*
X33365000Y46822247D01*
X33365000Y49072220D01*
X31665000Y49072220D01*
X31665000Y46122221D01*
X31165000Y46122221D01*
X31165000Y49572220D01*
X31665000Y49572220D01*
X33364999Y49572220D01*
X33364999Y51822192D01*
X33364998Y51822207D01*
X33354505Y51924918D01*
X33299358Y52091340D01*
X33299356Y52091345D01*
X33207315Y52240566D01*
X33083345Y52364536D01*
X32934124Y52456577D01*
X32934119Y52456579D01*
X32767697Y52511726D01*
X32767690Y52511727D01*
X32664986Y52522220D01*
X31665000Y52522220D01*
X31665000Y49572220D01*
X31165000Y49572220D01*
X31165000Y52522220D01*
X30821581Y52522220D01*
X30754542Y52541905D01*
X30708787Y52594709D01*
X30698843Y52663867D01*
X30727868Y52727423D01*
X30733886Y52733887D01*
X32000000Y54000000D01*
X32000000Y55497234D01*
X37050001Y55497234D01*
X37060494Y55394523D01*
X37115641Y55228101D01*
X37115643Y55228096D01*
X37207684Y55078875D01*
X37331654Y54954905D01*
X37480875Y54862864D01*
X37480880Y54862862D01*
X37647302Y54807715D01*
X37647309Y54807714D01*
X37750019Y54797221D01*
X37799999Y54797222D01*
X37800000Y54797222D01*
X37800000Y55772220D01*
X37050001Y55772220D01*
X37050001Y55497234D01*
X32000000Y55497234D01*
X32000000Y56433066D01*
X32019685Y56500105D01*
X32072489Y56545860D01*
X32080664Y56547207D01*
X37050000Y56547207D01*
X37050000Y56272220D01*
X37800000Y56272220D01*
X37800000Y58272220D01*
X37050001Y58272220D01*
X37050001Y57997234D01*
X37060494Y57894523D01*
X37115641Y57728101D01*
X37115643Y57728096D01*
X37207684Y57578875D01*
X37331655Y57454904D01*
X37331659Y57454901D01*
X37456726Y57377758D01*
X37503451Y57325810D01*
X37514672Y57256848D01*
X37486829Y57192766D01*
X37456726Y57166682D01*
X37331659Y57089540D01*
X37331655Y57089537D01*
X37207684Y56965566D01*
X37115643Y56816345D01*
X37115641Y56816340D01*
X37060494Y56649918D01*
X37060493Y56649911D01*
X37050000Y56547207D01*
X32080664Y56547207D01*
X32136604Y56556424D01*
X32226685Y56547221D01*
X32750000Y56547221D01*
X32773308Y56547221D01*
X32773322Y56547222D01*
X32872607Y56557365D01*
X33033481Y56610673D01*
X33033492Y56610678D01*
X33106799Y56655894D01*
X33177728Y56699645D01*
X33177732Y56699648D01*
X33297572Y56819488D01*
X33297575Y56819492D01*
X33386542Y56963728D01*
X33386547Y56963739D01*
X33439855Y57124614D01*
X33449999Y57223898D01*
X33450000Y57223911D01*
X33450000Y57272220D01*
X32750000Y57272220D01*
X32750000Y56547221D01*
X32226685Y56547221D01*
X32250000Y56547222D01*
X32250000Y58147223D01*
X32750000Y58147223D01*
X32750000Y57772220D01*
X33449999Y57772220D01*
X33449999Y57820528D01*
X33449998Y57820543D01*
X33439855Y57919828D01*
X33386547Y58080702D01*
X33386542Y58080713D01*
X33297575Y58224949D01*
X33297572Y58224953D01*
X33283700Y58238825D01*
X33250215Y58300148D01*
X33255199Y58369840D01*
X33297071Y58425773D01*
X33306285Y58432045D01*
X33343343Y58454903D01*
X33467315Y58578875D01*
X33559356Y58728096D01*
X33559358Y58728101D01*
X33614505Y58894523D01*
X33614506Y58894530D01*
X33624999Y58997234D01*
X33625000Y58997247D01*
X33625000Y59047207D01*
X37050000Y59047207D01*
X37050000Y58772220D01*
X37800000Y58772220D01*
X37800000Y59753220D01*
X37819685Y59820259D01*
X37872489Y59866014D01*
X37924000Y59877220D01*
X38025000Y59877220D01*
X38025000Y60272220D01*
X37325001Y60272220D01*
X37325001Y60223898D01*
X37335144Y60124613D01*
X37388452Y59963739D01*
X37388454Y59963734D01*
X37474901Y59823583D01*
X37493341Y59756191D01*
X37472419Y59689527D01*
X37434460Y59652948D01*
X37331656Y59589538D01*
X37207684Y59465566D01*
X37115643Y59316345D01*
X37115641Y59316340D01*
X37060494Y59149918D01*
X37060493Y59149911D01*
X37050000Y59047207D01*
X33625000Y59047207D01*
X33625000Y59272220D01*
X32875000Y59272220D01*
X32875000Y58291220D01*
X32871667Y58279870D01*
X32872825Y58268095D01*
X32862003Y58246959D01*
X32855315Y58224181D01*
X32846375Y58216435D01*
X32840983Y58205903D01*
X32813302Y58184008D01*
X32750000Y58147223D01*
X32250000Y58147223D01*
X32250000Y58503220D01*
X32269685Y58570259D01*
X32322489Y58616014D01*
X32374000Y58627220D01*
X32375000Y58627220D01*
X32375000Y60667220D01*
X32875000Y60667220D01*
X32875000Y59772220D01*
X33624999Y59772220D01*
X33624999Y60047192D01*
X33624998Y60047207D01*
X33614505Y60149918D01*
X33559358Y60316340D01*
X33559356Y60316345D01*
X33467315Y60465566D01*
X33343345Y60589536D01*
X33243273Y60651261D01*
X33241681Y60653031D01*
X33239411Y60653743D01*
X33218432Y60678880D01*
X33196549Y60703209D01*
X33196166Y60705557D01*
X33194641Y60707385D01*
X33190583Y60739868D01*
X33185326Y60772172D01*
X33186274Y60774356D01*
X33185980Y60776716D01*
X33200125Y60806232D01*
X33206343Y60820543D01*
X37325000Y60820543D01*
X37325000Y60772220D01*
X38025000Y60772220D01*
X38025000Y62272220D01*
X37325001Y62272220D01*
X37325001Y62223898D01*
X37335144Y62124613D01*
X37388452Y61963739D01*
X37388457Y61963728D01*
X37477424Y61819492D01*
X37477427Y61819488D01*
X37597267Y61699648D01*
X37597271Y61699645D01*
X37713816Y61627758D01*
X37760541Y61575810D01*
X37771762Y61506847D01*
X37743919Y61442765D01*
X37713816Y61416682D01*
X37597271Y61344796D01*
X37597267Y61344793D01*
X37477427Y61224953D01*
X37477424Y61224949D01*
X37388457Y61080713D01*
X37388452Y61080702D01*
X37335144Y60919827D01*
X37325000Y60820543D01*
X33206343Y60820543D01*
X33213170Y60836254D01*
X33215466Y60838245D01*
X33216176Y60839724D01*
X33243273Y60862339D01*
X33351722Y60929231D01*
X33393345Y60954905D01*
X33517315Y61078875D01*
X33609356Y61228096D01*
X33609358Y61228101D01*
X33664505Y61394523D01*
X33664506Y61394530D01*
X33674999Y61497234D01*
X33675000Y61497247D01*
X33675000Y61772220D01*
X32925000Y61772220D01*
X32925000Y60768582D01*
X32905315Y60701543D01*
X32888681Y60680901D01*
X32875000Y60667220D01*
X32375000Y60667220D01*
X32375000Y60775858D01*
X32394685Y60842897D01*
X32411319Y60863539D01*
X32425000Y60877220D01*
X32425000Y62272220D01*
X32925000Y62272220D01*
X33674999Y62272220D01*
X33674999Y62547192D01*
X33674998Y62547207D01*
X33664505Y62649918D01*
X33609358Y62816340D01*
X33609356Y62816345D01*
X33517315Y62965566D01*
X33393345Y63089536D01*
X33244124Y63181577D01*
X33244119Y63181579D01*
X33077697Y63236726D01*
X33077690Y63236727D01*
X32974986Y63247220D01*
X32925000Y63247220D01*
X32925000Y62272220D01*
X32425000Y62272220D01*
X32425000Y63247220D01*
X32424999Y63247221D01*
X32375029Y63247220D01*
X32375011Y63247219D01*
X32272302Y63236726D01*
X32105880Y63181579D01*
X32105875Y63181577D01*
X31956654Y63089536D01*
X31832682Y62965564D01*
X31801230Y62914572D01*
X31749281Y62867848D01*
X31680319Y62856627D01*
X31616237Y62884471D01*
X31608011Y62891989D01*
X31183531Y63316469D01*
X31150046Y63377792D01*
X31155030Y63447484D01*
X31196902Y63503417D01*
X31262366Y63527834D01*
X31283817Y63527508D01*
X31308358Y63525001D01*
X31825000Y63525001D01*
X31841636Y63525001D01*
X31841652Y63525002D01*
X31940083Y63535057D01*
X32099572Y63587907D01*
X32099577Y63587909D01*
X32242580Y63676115D01*
X32361385Y63794920D01*
X32449591Y63937923D01*
X32449593Y63937928D01*
X32502442Y64097417D01*
X32512499Y64195850D01*
X32512500Y64195863D01*
X32512500Y64250000D01*
X31825000Y64250000D01*
X31825000Y63525001D01*
X31308358Y63525001D01*
X31325000Y63525002D01*
X31325000Y64376000D01*
X31344685Y64443039D01*
X31397489Y64488794D01*
X31449000Y64500000D01*
X31575000Y64500000D01*
X31575000Y64626000D01*
X31594685Y64693039D01*
X31647489Y64738794D01*
X31699000Y64750000D01*
X32512499Y64750000D01*
X32512499Y64804136D01*
X32512498Y64804153D01*
X32506446Y64863399D01*
X32519216Y64932091D01*
X32567097Y64982976D01*
X32629804Y65000000D01*
X36458667Y65000000D01*
X36525706Y64980315D01*
G37*
%TD.AperFunction*%
%TD*%
M02*
