%TF.GenerationSoftware,KiCad,Pcbnew,9.0.0*%
%TF.CreationDate,2026-04-30T19:49:20+09:00*%
%TF.ProjectId,BAT_ECU_PCB_V1,4241545f-4543-4555-9f50-43425f56312e,rev?*%
%TF.SameCoordinates,PX487ab00PY80befc0*%
%TF.FileFunction,Copper,L3,Inr*%
%TF.FilePolarity,Positive*%
%FSLAX46Y46*%
G04 Gerber Fmt 4.6, Leading zero omitted, Abs format (unit mm)*
G04 Created by KiCad (PCBNEW 9.0.0) date 2026-04-30 19:49:20*
%MOMM*%
%LPD*%
G01*
G04 APERTURE LIST*
G04 Aperture macros list*
%AMRoundRect*
0 Rectangle with rounded corners*
0 $1 Rounding radius*
0 $2 $3 $4 $5 $6 $7 $8 $9 X,Y pos of 4 corners*
0 Add a 4 corners polygon primitive as box body*
4,1,4,$2,$3,$4,$5,$6,$7,$8,$9,$2,$3,0*
0 Add four circle primitives for the rounded corners*
1,1,$1+$1,$2,$3*
1,1,$1+$1,$4,$5*
1,1,$1+$1,$6,$7*
1,1,$1+$1,$8,$9*
0 Add four rect primitives between the rounded corners*
20,1,$1+$1,$2,$3,$4,$5,0*
20,1,$1+$1,$4,$5,$6,$7,0*
20,1,$1+$1,$6,$7,$8,$9,0*
20,1,$1+$1,$8,$9,$2,$3,0*%
G04 Aperture macros list end*
%TA.AperFunction,ComponentPad*%
%ADD10R,2.000000X0.900000*%
%TD*%
%TA.AperFunction,ComponentPad*%
%ADD11RoundRect,1.025000X-1.025000X1.025000X-1.025000X-1.025000X1.025000X-1.025000X1.025000X1.025000X0*%
%TD*%
%TA.AperFunction,ComponentPad*%
%ADD12C,4.100000*%
%TD*%
%TA.AperFunction,ComponentPad*%
%ADD13C,0.600000*%
%TD*%
%TA.AperFunction,ComponentPad*%
%ADD14RoundRect,0.250000X1.050000X-0.750000X1.050000X0.750000X-1.050000X0.750000X-1.050000X-0.750000X0*%
%TD*%
%TA.AperFunction,ComponentPad*%
%ADD15O,2.600000X2.000000*%
%TD*%
%TA.AperFunction,ComponentPad*%
%ADD16R,1.700000X1.700000*%
%TD*%
%TA.AperFunction,ComponentPad*%
%ADD17O,1.700000X1.700000*%
%TD*%
%TA.AperFunction,ComponentPad*%
%ADD18C,2.000000*%
%TD*%
%TA.AperFunction,ComponentPad*%
%ADD19RoundRect,1.025000X1.025000X-1.025000X1.025000X1.025000X-1.025000X1.025000X-1.025000X-1.025000X0*%
%TD*%
%TA.AperFunction,ComponentPad*%
%ADD20R,2.400000X2.400000*%
%TD*%
%TA.AperFunction,ComponentPad*%
%ADD21C,2.400000*%
%TD*%
%TA.AperFunction,ComponentPad*%
%ADD22RoundRect,0.250000X-0.750000X-1.050000X0.750000X-1.050000X0.750000X1.050000X-0.750000X1.050000X0*%
%TD*%
%TA.AperFunction,ComponentPad*%
%ADD23O,2.000000X2.600000*%
%TD*%
%TA.AperFunction,ViaPad*%
%ADD24C,0.600000*%
%TD*%
%TA.AperFunction,ViaPad*%
%ADD25C,0.900000*%
%TD*%
%TA.AperFunction,ViaPad*%
%ADD26C,0.450000*%
%TD*%
%TA.AperFunction,Conductor*%
%ADD27C,0.500000*%
%TD*%
%TA.AperFunction,Conductor*%
%ADD28C,0.250000*%
%TD*%
G04 APERTURE END LIST*
D10*
%TO.N,*%
%TO.C,J2*%
X78850000Y85772220D03*
X78850000Y72272220D03*
D11*
%TO.N,PGND*%
X72850000Y82622220D03*
D12*
%TO.N,36V*%
X72850000Y75422220D03*
%TD*%
D13*
%TO.N,PGND*%
%TO.C,U1*%
X10165000Y58322220D03*
X8965000Y58322220D03*
X7665000Y58322220D03*
X6565000Y58322220D03*
X10165000Y57122220D03*
X8965000Y57122220D03*
X7665000Y57122220D03*
X6565000Y57122220D03*
%TD*%
D14*
%TO.N,12V*%
%TO.C,J9*%
X77350000Y29122220D03*
D15*
%TO.N,PGND*%
X77350000Y32622220D03*
%TD*%
D14*
%TO.N,5V*%
%TO.C,J4*%
X77350000Y14122220D03*
D15*
%TO.N,GND*%
X77350000Y17622220D03*
%TD*%
D16*
%TO.N,GND*%
%TO.C,J8*%
X68540000Y6000000D03*
D17*
%TO.N,/UART2_RX*%
X66000000Y6000000D03*
%TO.N,/UART2_TX*%
X63460000Y6000000D03*
%TO.N,3.3V*%
X60920000Y6000000D03*
%TD*%
D14*
%TO.N,12V*%
%TO.C,J3*%
X77350000Y42122220D03*
D15*
%TO.N,PGND*%
X77350000Y45622220D03*
%TD*%
D18*
%TO.N,GND*%
%TO.C,SW1*%
X53500000Y25000000D03*
X60000000Y25000000D03*
%TO.N,/RESET*%
X53500000Y20500000D03*
X60000000Y20500000D03*
%TD*%
D10*
%TO.N,*%
%TO.C,J1*%
X3000000Y74872220D03*
X3000000Y88372220D03*
D19*
%TO.N,PGND*%
X9000000Y78022220D03*
D12*
%TO.N,BAT*%
X9000000Y85222220D03*
%TD*%
D16*
%TO.N,/SWCLK*%
%TO.C,J7*%
X54500000Y6000000D03*
D17*
%TO.N,/SWDIO*%
X51960000Y6000000D03*
%TO.N,GND*%
X49420000Y6000000D03*
%TO.N,3.3V*%
X46880000Y6000000D03*
%TD*%
D20*
%TO.N,36V*%
%TO.C,C9*%
X31000000Y85500000D03*
D21*
%TO.N,PGND*%
X31000000Y78000000D03*
%TD*%
D16*
%TO.N,3.3V*%
%TO.C,J5*%
X31000000Y13675000D03*
D17*
%TO.N,Net-(J5-Pin_2)*%
X31000000Y11135000D03*
%TO.N,GND*%
X31000000Y8595000D03*
%TD*%
D22*
%TO.N,/CAN_HIGH*%
%TO.C,J10*%
X16850000Y6022220D03*
D23*
%TO.N,GND*%
X20350000Y6022220D03*
%TO.N,/CAN_LOW*%
X23850000Y6022220D03*
%TD*%
D10*
%TO.N,*%
%TO.C,J6*%
X78850000Y67272220D03*
X78850000Y53772220D03*
D11*
%TO.N,PGND*%
X72850000Y64122220D03*
D12*
%TO.N,36V*%
X72850000Y56922220D03*
%TD*%
D24*
%TO.N,*%
X48000000Y21000000D03*
X45500000Y15500000D03*
X48500000Y18500000D03*
X47500000Y15500000D03*
X46500000Y15500000D03*
X48500000Y16500000D03*
X48500000Y15500000D03*
X48500000Y17500000D03*
X48500000Y19500000D03*
X48500000Y20500000D03*
D25*
%TO.N,PGND*%
X33500000Y68500000D03*
X11962220Y68022220D03*
X11500000Y71000000D03*
X31500000Y68000000D03*
X3000000Y57000000D03*
X12000000Y64500000D03*
X29000000Y62000000D03*
X29000000Y57500000D03*
X31000000Y71500000D03*
X28701992Y59201992D03*
D24*
%TO.N,36V*%
X40840000Y81660000D03*
X63700000Y71500000D03*
X43380000Y74040000D03*
X51000000Y71500000D03*
X61160000Y94360000D03*
X66240000Y81660000D03*
X48460000Y84200000D03*
X63700000Y79120000D03*
X63700000Y94360000D03*
X68780000Y79120000D03*
X68780000Y86740000D03*
X43380000Y81660000D03*
X63700000Y89280000D03*
X63700000Y74040000D03*
X58620000Y84200000D03*
X66240000Y66420000D03*
X48460000Y89280000D03*
X48460000Y86740000D03*
X56080000Y76580000D03*
X66240000Y84200000D03*
X51000000Y86740000D03*
X53540000Y84200000D03*
D26*
X46849997Y38500000D03*
D24*
X71320000Y94360000D03*
X63700000Y91820000D03*
X56080000Y74040000D03*
X63700000Y91820000D03*
X45920000Y94360000D03*
X53540000Y86740000D03*
X61160000Y74040000D03*
X58620000Y74040000D03*
X45920000Y89280000D03*
X58620000Y81660000D03*
X38300000Y91820000D03*
X61160000Y89280000D03*
X48460000Y91820000D03*
X66240000Y91820000D03*
X66240000Y74040000D03*
X51000000Y91820000D03*
X48460000Y79120000D03*
X68780000Y91820000D03*
X63700000Y86740000D03*
X63700000Y81660000D03*
X58620000Y94360000D03*
X61160000Y68960000D03*
X58620000Y79120000D03*
X63700000Y89280000D03*
X68780000Y84200000D03*
X51000000Y84200000D03*
X51000000Y89280000D03*
X56080000Y89280000D03*
X61160000Y79120000D03*
X71320000Y89280000D03*
X58620000Y91820000D03*
X63700000Y86740000D03*
X53540000Y76580000D03*
X61160000Y86740000D03*
X53540000Y71500000D03*
X63700000Y84200000D03*
X53540000Y91820000D03*
X43380000Y84200000D03*
X53540000Y89280000D03*
X45920000Y74040000D03*
X43380000Y94360000D03*
X61160000Y66420000D03*
X63700000Y76580000D03*
X58620000Y86740000D03*
X35760000Y94360000D03*
D26*
X63000000Y60500000D03*
D24*
X63700000Y68960000D03*
X58620000Y66420000D03*
X45920000Y79120000D03*
X58620000Y89280000D03*
X56080000Y91820000D03*
X56080000Y84200000D03*
X45920000Y86740000D03*
X68780000Y81660000D03*
X61160000Y71500000D03*
X56080000Y94360000D03*
X68780000Y76580000D03*
X45920000Y81660000D03*
X61160000Y91820000D03*
X63700000Y66420000D03*
X48460000Y81660000D03*
X63700000Y71500000D03*
X43380000Y79120000D03*
X40840000Y94360000D03*
X40840000Y89280000D03*
X40840000Y91820000D03*
X63700000Y68960000D03*
X68780000Y74040000D03*
X48460000Y76580000D03*
X51000000Y81660000D03*
X66240000Y79120000D03*
X63700000Y84200000D03*
X61160000Y76580000D03*
X56080000Y86740000D03*
X48460000Y74040000D03*
X40840000Y74040000D03*
X66240000Y89280000D03*
X56080000Y68960000D03*
X38300000Y94360000D03*
X61160000Y84200000D03*
X61160000Y81660000D03*
X66240000Y71500000D03*
X71320000Y91820000D03*
X66240000Y86740000D03*
X45920000Y71500000D03*
X53540000Y81660000D03*
X65500000Y68000000D03*
X35760000Y91820000D03*
X56080000Y81660000D03*
X43380000Y76580000D03*
X63700000Y81660000D03*
X63700000Y76580000D03*
X68780000Y71500000D03*
X68780000Y94360000D03*
X43380000Y91820000D03*
X58620000Y68960000D03*
X56080000Y79120000D03*
X58620000Y76580000D03*
X63700000Y79120000D03*
X48460000Y94360000D03*
X43380000Y86740000D03*
X51000000Y94360000D03*
X63700000Y74040000D03*
X48460000Y71500000D03*
X40840000Y76580000D03*
X51000000Y79120000D03*
X45920000Y91820000D03*
X40840000Y79120000D03*
X40840000Y71500000D03*
X43380000Y89280000D03*
X63700000Y94360000D03*
X40840000Y84200000D03*
X45920000Y84200000D03*
X43380000Y71500000D03*
X68780000Y89280000D03*
X66240000Y94360000D03*
X51000000Y74040000D03*
X53540000Y74040000D03*
X66240000Y76580000D03*
X51000000Y76580000D03*
X53540000Y94360000D03*
X56080000Y71500000D03*
X45920000Y76580000D03*
X40840000Y86740000D03*
X53540000Y79120000D03*
X58620000Y71500000D03*
D26*
%TO.N,Net-(D1-K)*%
X11500000Y55000000D03*
X16000000Y61000000D03*
D24*
%TO.N,12V*%
X36500000Y54000000D03*
X34000000Y61340000D03*
X36500000Y56500000D03*
D25*
X31500000Y44500000D03*
D24*
X36500000Y59000000D03*
X34000000Y54000000D03*
X34000000Y63500000D03*
X36308058Y51808058D03*
X36500000Y61340000D03*
D25*
X4000000Y48500000D03*
D24*
X34000000Y56500000D03*
X35760000Y48640000D03*
X33808058Y51808058D03*
X36500000Y63500000D03*
X34000000Y59000000D03*
D25*
X41500000Y49000000D03*
D24*
%TO.N,GND*%
X12900000Y28320000D03*
X15440000Y41020000D03*
D26*
X53500000Y14500000D03*
D24*
X10360000Y13080000D03*
X7820000Y23240000D03*
X10360000Y15620000D03*
X12900000Y15620000D03*
X20520000Y25780000D03*
X15440000Y33400000D03*
X2740000Y38480000D03*
X15440000Y23240000D03*
D25*
X40000000Y13500000D03*
D26*
X41000000Y44000000D03*
D24*
X7820000Y41020000D03*
X10360000Y33400000D03*
X2740000Y13080000D03*
X7820000Y13080000D03*
X17980000Y30860000D03*
X23060000Y30860000D03*
X20520000Y30860000D03*
X15440000Y35940000D03*
X12900000Y23240000D03*
D26*
X47500000Y38500000D03*
D24*
X23060000Y20700000D03*
X20520000Y20700000D03*
X17980000Y28320000D03*
X2740000Y35940000D03*
X20520000Y33400000D03*
D25*
X53500000Y53500000D03*
D24*
X23060000Y25780000D03*
X2740000Y41020000D03*
D25*
X51500000Y42500000D03*
D24*
X23060000Y23240000D03*
X5280000Y25780000D03*
D25*
X50500000Y44500000D03*
D24*
X12900000Y30860000D03*
X5280000Y23240000D03*
X15440000Y38480000D03*
X40347220Y27652780D03*
X7820000Y28320000D03*
X2740000Y20700000D03*
X40500000Y25675000D03*
D26*
X44500000Y32500000D03*
D24*
X20520000Y38480000D03*
X41500000Y26500000D03*
X2740000Y33400000D03*
X20520000Y28320000D03*
D26*
X51408975Y35591025D03*
D24*
X33000000Y29000000D03*
D25*
X37500000Y20000000D03*
D24*
X17980000Y25780000D03*
X35000000Y30500000D03*
X2740000Y25780000D03*
X5280000Y35940000D03*
D25*
X41500000Y58500000D03*
D24*
X5280000Y15620000D03*
X12900000Y25780000D03*
D25*
X46000000Y48000000D03*
D24*
X20520000Y41020000D03*
X10360000Y23240000D03*
D25*
X38500000Y66722220D03*
D24*
X12900000Y41020000D03*
X5280000Y28320000D03*
X23060000Y33400000D03*
D25*
X46000000Y58000000D03*
D24*
X15440000Y28320000D03*
D25*
X24951992Y12548008D03*
D24*
X17980000Y41020000D03*
X23060000Y35940000D03*
X12900000Y13080000D03*
X7820000Y38480000D03*
X10360000Y35940000D03*
X23060000Y41020000D03*
X10360000Y41020000D03*
X5280000Y18160000D03*
X2740000Y30860000D03*
X2740000Y18160000D03*
X17980000Y35940000D03*
D25*
X51000000Y53500000D03*
D24*
X7820000Y35940000D03*
D26*
X51000000Y24500000D03*
D24*
X23060000Y38480000D03*
D25*
X18000000Y17500000D03*
D24*
X12900000Y20700000D03*
X5280000Y20700000D03*
D25*
X41500000Y56000000D03*
D24*
X2740000Y28320000D03*
D26*
X28500000Y14000000D03*
D24*
X5280000Y13080000D03*
X15440000Y25780000D03*
X17980000Y33400000D03*
X5280000Y30860000D03*
X5280000Y41020000D03*
X7820000Y15620000D03*
X7820000Y33400000D03*
X17980000Y20700000D03*
X46975000Y41000000D03*
X5280000Y33400000D03*
X10360000Y18160000D03*
X2740000Y23240000D03*
X12900000Y35940000D03*
D25*
X41500000Y62500000D03*
D24*
X12900000Y33400000D03*
X23060000Y28320000D03*
X10360000Y20700000D03*
X2740000Y15620000D03*
X10360000Y30860000D03*
D25*
X56000000Y53000000D03*
D24*
X47200000Y20800000D03*
X30000000Y29000000D03*
X20520000Y23240000D03*
D25*
X61000000Y63000000D03*
D24*
X15440000Y20700000D03*
X12900000Y38480000D03*
X20520000Y35940000D03*
X7820000Y25780000D03*
X15440000Y30860000D03*
X10360000Y28320000D03*
X7820000Y18160000D03*
X10360000Y25780000D03*
D26*
X43500000Y14500000D03*
D24*
X45602846Y20897154D03*
X12900000Y18160000D03*
X10360000Y38480000D03*
X17980000Y38480000D03*
X7820000Y20700000D03*
D25*
X14000000Y10000000D03*
X66000000Y62500000D03*
D24*
X7820000Y30860000D03*
X5280000Y38480000D03*
X17980000Y23240000D03*
D25*
X41500000Y60500000D03*
D26*
%TO.N,/MOSFET_NTC*%
X61000000Y43000000D03*
X57500000Y39000000D03*
X43195875Y21977431D03*
%TO.N,3.3V*%
X28500000Y13000000D03*
X41500000Y30500000D03*
D25*
X51500000Y31500000D03*
D26*
X51500000Y14500000D03*
D25*
X32212500Y32712500D03*
D26*
X50000000Y35500000D03*
X27500000Y30000000D03*
D25*
X25000000Y14000000D03*
D26*
X43000000Y13500000D03*
%TO.N,/RESET*%
X42481507Y20390280D03*
X46417131Y23467131D03*
%TO.N,BAT*%
X44500000Y39000000D03*
X13500000Y81500000D03*
%TO.N,/SWCLK*%
X34713911Y15063908D03*
%TO.N,/SWDIO*%
X34000000Y15000000D03*
%TO.N,/UART2_TX*%
X44149191Y24507459D03*
%TO.N,/UART2_RX*%
X42942494Y24057506D03*
%TO.N,/SCL*%
X48050000Y30500000D03*
X35587500Y15087500D03*
D24*
%TO.N,/Alert*%
X41713911Y24213911D03*
D26*
X46211089Y27963911D03*
%TO.N,/SDA*%
X49500000Y27050000D03*
X40087500Y15500000D03*
X47500000Y29675000D03*
D24*
%TO.N,/VDC_ADC*%
X45500000Y28904232D03*
D26*
X43057813Y22617187D03*
D24*
X45052326Y25251002D03*
D26*
X64500000Y58000000D03*
%TD*%
D27*
%TO.N,12V*%
X8500000Y44000000D02*
X4000000Y48500000D01*
X31500000Y44500000D02*
X31000000Y44000000D01*
X31000000Y44000000D02*
X8500000Y44000000D01*
D28*
%TO.N,/UART2_TX*%
X63460000Y7202081D02*
X46154622Y24507459D01*
X63460000Y6000000D02*
X63460000Y7202081D01*
X46154622Y24507459D02*
X44149191Y24507459D01*
%TO.N,/UART2_RX*%
X43598191Y24713203D02*
X43598191Y24735691D01*
X43920959Y25058459D02*
X43943447Y25058459D01*
X44170866Y25285878D02*
X44181644Y25285878D01*
X44181644Y25285878D02*
X44771768Y25876002D01*
X46123998Y25876002D02*
X66000000Y6000000D01*
X43943447Y25058459D02*
X44170866Y25285878D01*
X43598191Y24735691D02*
X43920959Y25058459D01*
X44771768Y25876002D02*
X46123998Y25876002D01*
X42942494Y24057506D02*
X43598191Y24713203D01*
%TD*%
%TA.AperFunction,Conductor*%
%TO.N,12V*%
G36*
X69522052Y49980315D02*
G01*
X69542884Y49963491D01*
X75141399Y44340483D01*
X75835492Y43643354D01*
X75868843Y43581958D01*
X75863707Y43512277D01*
X75835302Y43468183D01*
X75707682Y43340563D01*
X75615643Y43191345D01*
X75615641Y43191340D01*
X75560494Y43024918D01*
X75560493Y43024911D01*
X75550000Y42922207D01*
X75550000Y42372220D01*
X76587639Y42372220D01*
X76580743Y42355571D01*
X76550000Y42201013D01*
X76550000Y42043427D01*
X76580743Y41888869D01*
X76587639Y41872220D01*
X75550001Y41872220D01*
X75550001Y41322234D01*
X75560494Y41219523D01*
X75615641Y41053101D01*
X75615643Y41053096D01*
X75707684Y40903875D01*
X75831654Y40779905D01*
X75980875Y40687864D01*
X75980880Y40687862D01*
X76147302Y40632715D01*
X76147309Y40632714D01*
X76250019Y40622221D01*
X77226000Y40622221D01*
X77293039Y40602537D01*
X77338794Y40549733D01*
X77350000Y40498221D01*
X77350000Y33946720D01*
X77330315Y33879681D01*
X77277511Y33833926D01*
X77226000Y33822720D01*
X76955514Y33822720D01*
X76768881Y33793161D01*
X76589163Y33734766D01*
X76420800Y33648980D01*
X76333579Y33585610D01*
X76267927Y33537910D01*
X76267925Y33537908D01*
X76267924Y33537908D01*
X76134312Y33404296D01*
X76134312Y33404295D01*
X76134310Y33404293D01*
X76104309Y33363000D01*
X76023240Y33251420D01*
X75937454Y33083057D01*
X75879059Y32903339D01*
X75849500Y32716707D01*
X75849500Y32527734D01*
X75879059Y32341102D01*
X75937454Y32161384D01*
X76016996Y32005276D01*
X76023240Y31993021D01*
X76134310Y31840147D01*
X76267927Y31706530D01*
X76420801Y31595460D01*
X76482410Y31564069D01*
X76589163Y31509675D01*
X76589165Y31509675D01*
X76589168Y31509673D01*
X76685497Y31478374D01*
X76768881Y31451280D01*
X76955514Y31421720D01*
X77226000Y31421720D01*
X77293039Y31402035D01*
X77338794Y31349231D01*
X77350000Y31297720D01*
X77350000Y30746220D01*
X77330315Y30679181D01*
X77277511Y30633426D01*
X77226000Y30622220D01*
X76250028Y30622220D01*
X76250012Y30622219D01*
X76147302Y30611726D01*
X75980880Y30556579D01*
X75980875Y30556577D01*
X75831654Y30464536D01*
X75707684Y30340566D01*
X75615643Y30191345D01*
X75615641Y30191340D01*
X75560494Y30024918D01*
X75560493Y30024911D01*
X75550000Y29922207D01*
X75550000Y29372220D01*
X76587639Y29372220D01*
X76580743Y29355571D01*
X76550000Y29201013D01*
X76550000Y29043427D01*
X76580743Y28888869D01*
X76587639Y28872220D01*
X75550001Y28872220D01*
X75550001Y28322234D01*
X75560494Y28219523D01*
X75615641Y28053101D01*
X75615643Y28053096D01*
X75707684Y27903875D01*
X75831654Y27779905D01*
X75980875Y27687864D01*
X75980880Y27687862D01*
X76147302Y27632715D01*
X76147309Y27632714D01*
X76250019Y27622221D01*
X76512712Y27622221D01*
X76579751Y27602537D01*
X76625506Y27549733D01*
X76635450Y27480574D01*
X76626528Y27449009D01*
X76032337Y26074788D01*
X75987663Y26021066D01*
X75921037Y26000026D01*
X75918521Y26000000D01*
X72062000Y26000000D01*
X71994961Y26019685D01*
X71962800Y26049600D01*
X69024800Y29966934D01*
X69000324Y30032376D01*
X69000000Y30041334D01*
X69000000Y38500001D01*
X66335705Y40498221D01*
X65000000Y41500000D01*
X64999999Y41500000D01*
X47042758Y41500000D01*
X47040892Y41500500D01*
X46909108Y41500500D01*
X46907242Y41500000D01*
X33051362Y41500000D01*
X32984323Y41519685D01*
X32963681Y41536319D01*
X32064071Y42435929D01*
X50849499Y42435929D01*
X50874497Y42310262D01*
X50874499Y42310256D01*
X50923533Y42191876D01*
X50923538Y42191867D01*
X50994723Y42085332D01*
X50994726Y42085328D01*
X51085327Y41994727D01*
X51085331Y41994724D01*
X51191866Y41923539D01*
X51191872Y41923536D01*
X51191873Y41923535D01*
X51310256Y41874499D01*
X51310260Y41874499D01*
X51310261Y41874498D01*
X51435928Y41849500D01*
X51435931Y41849500D01*
X51564071Y41849500D01*
X51648615Y41866318D01*
X51689744Y41874499D01*
X51808127Y41923535D01*
X51914669Y41994724D01*
X52005276Y42085331D01*
X52076465Y42191873D01*
X52125501Y42310256D01*
X52150500Y42435931D01*
X52150500Y42564069D01*
X52150500Y42564072D01*
X52125502Y42689739D01*
X52125501Y42689740D01*
X52125501Y42689744D01*
X52076465Y42808127D01*
X52076464Y42808128D01*
X52076461Y42808134D01*
X52005276Y42914669D01*
X52005273Y42914673D01*
X51914672Y43005274D01*
X51914668Y43005277D01*
X51838729Y43056018D01*
X60574500Y43056018D01*
X60574500Y42943982D01*
X60603497Y42835763D01*
X60659515Y42738737D01*
X60738737Y42659515D01*
X60835763Y42603497D01*
X60943982Y42574500D01*
X60943984Y42574500D01*
X61056016Y42574500D01*
X61056018Y42574500D01*
X61164237Y42603497D01*
X61261263Y42659515D01*
X61340485Y42738737D01*
X61396503Y42835763D01*
X61425500Y42943982D01*
X61425500Y43056018D01*
X61396503Y43164237D01*
X61340485Y43261263D01*
X61261263Y43340485D01*
X61164237Y43396503D01*
X61056018Y43425500D01*
X60943982Y43425500D01*
X60835763Y43396503D01*
X60835760Y43396502D01*
X60738740Y43340487D01*
X60738734Y43340483D01*
X60659517Y43261266D01*
X60659513Y43261260D01*
X60603498Y43164240D01*
X60603497Y43164237D01*
X60574500Y43056018D01*
X51838729Y43056018D01*
X51808133Y43076462D01*
X51808124Y43076467D01*
X51689744Y43125501D01*
X51689738Y43125503D01*
X51564071Y43150500D01*
X51564069Y43150500D01*
X51435931Y43150500D01*
X51435929Y43150500D01*
X51310261Y43125503D01*
X51310255Y43125501D01*
X51191875Y43076467D01*
X51191866Y43076462D01*
X51085331Y43005277D01*
X51085327Y43005274D01*
X50994726Y42914673D01*
X50994723Y42914669D01*
X50923538Y42808134D01*
X50923533Y42808125D01*
X50874499Y42689745D01*
X50874497Y42689739D01*
X50849500Y42564072D01*
X50849500Y42564069D01*
X50849500Y42435931D01*
X50849500Y42435929D01*
X50849499Y42435929D01*
X32064071Y42435929D01*
X31036319Y43463681D01*
X31002834Y43525004D01*
X31000000Y43551362D01*
X31000000Y44056018D01*
X40574500Y44056018D01*
X40574500Y43943982D01*
X40603497Y43835763D01*
X40659515Y43738737D01*
X40738737Y43659515D01*
X40835763Y43603497D01*
X40943982Y43574500D01*
X40943984Y43574500D01*
X41056016Y43574500D01*
X41056018Y43574500D01*
X41164237Y43603497D01*
X41261263Y43659515D01*
X41340485Y43738737D01*
X41396503Y43835763D01*
X41425500Y43943982D01*
X41425500Y44056018D01*
X41396503Y44164237D01*
X41340485Y44261263D01*
X41261263Y44340485D01*
X41164237Y44396503D01*
X41056018Y44425500D01*
X40943982Y44425500D01*
X40835763Y44396503D01*
X40835760Y44396502D01*
X40738740Y44340487D01*
X40738734Y44340483D01*
X40659517Y44261266D01*
X40659513Y44261260D01*
X40603498Y44164240D01*
X40603497Y44164237D01*
X40574500Y44056018D01*
X31000000Y44056018D01*
X31000000Y44435929D01*
X49849499Y44435929D01*
X49874497Y44310262D01*
X49874499Y44310256D01*
X49923533Y44191876D01*
X49923538Y44191867D01*
X49994723Y44085332D01*
X49994726Y44085328D01*
X50085327Y43994727D01*
X50085331Y43994724D01*
X50191866Y43923539D01*
X50191872Y43923536D01*
X50191873Y43923535D01*
X50310256Y43874499D01*
X50310260Y43874499D01*
X50310261Y43874498D01*
X50435928Y43849500D01*
X50435931Y43849500D01*
X50564071Y43849500D01*
X50648615Y43866318D01*
X50689744Y43874499D01*
X50808127Y43923535D01*
X50914669Y43994724D01*
X51005276Y44085331D01*
X51076465Y44191873D01*
X51125501Y44310256D01*
X51142657Y44396503D01*
X51150500Y44435929D01*
X51150500Y44564072D01*
X51125502Y44689739D01*
X51125501Y44689740D01*
X51125501Y44689744D01*
X51076465Y44808127D01*
X51076464Y44808128D01*
X51076461Y44808134D01*
X51005276Y44914669D01*
X51005273Y44914673D01*
X50914672Y45005274D01*
X50914668Y45005277D01*
X50808133Y45076462D01*
X50808124Y45076467D01*
X50689744Y45125501D01*
X50689738Y45125503D01*
X50564071Y45150500D01*
X50564069Y45150500D01*
X50435931Y45150500D01*
X50435929Y45150500D01*
X50310261Y45125503D01*
X50310255Y45125501D01*
X50191875Y45076467D01*
X50191866Y45076462D01*
X50085331Y45005277D01*
X50085327Y45005274D01*
X49994726Y44914673D01*
X49994723Y44914669D01*
X49923538Y44808134D01*
X49923533Y44808125D01*
X49874499Y44689745D01*
X49874497Y44689739D01*
X49849500Y44564072D01*
X49849500Y44564069D01*
X49849500Y44435931D01*
X49849500Y44435929D01*
X49849499Y44435929D01*
X31000000Y44435929D01*
X31000000Y47935929D01*
X45349499Y47935929D01*
X45374497Y47810262D01*
X45374499Y47810256D01*
X45423533Y47691876D01*
X45423538Y47691867D01*
X45494723Y47585332D01*
X45494726Y47585328D01*
X45585327Y47494727D01*
X45585331Y47494724D01*
X45691866Y47423539D01*
X45691872Y47423536D01*
X45691873Y47423535D01*
X45810256Y47374499D01*
X45810260Y47374499D01*
X45810261Y47374498D01*
X45935928Y47349500D01*
X45935931Y47349500D01*
X46064071Y47349500D01*
X46148615Y47366318D01*
X46189744Y47374499D01*
X46308127Y47423535D01*
X46414669Y47494724D01*
X46505276Y47585331D01*
X46576465Y47691873D01*
X46625501Y47810256D01*
X46650500Y47935931D01*
X46650500Y48064069D01*
X46650500Y48064072D01*
X46625502Y48189739D01*
X46625501Y48189740D01*
X46625501Y48189744D01*
X46576465Y48308127D01*
X46576464Y48308128D01*
X46576461Y48308134D01*
X46505276Y48414669D01*
X46505273Y48414673D01*
X46414672Y48505274D01*
X46414668Y48505277D01*
X46308133Y48576462D01*
X46308124Y48576467D01*
X46189744Y48625501D01*
X46189738Y48625503D01*
X46064071Y48650500D01*
X46064069Y48650500D01*
X45935931Y48650500D01*
X45935929Y48650500D01*
X45810261Y48625503D01*
X45810255Y48625501D01*
X45691875Y48576467D01*
X45691866Y48576462D01*
X45585331Y48505277D01*
X45585327Y48505274D01*
X45494726Y48414673D01*
X45494723Y48414669D01*
X45423538Y48308134D01*
X45423533Y48308125D01*
X45374499Y48189745D01*
X45374497Y48189739D01*
X45349500Y48064072D01*
X45349500Y48064069D01*
X45349500Y47935931D01*
X45349500Y47935929D01*
X45349499Y47935929D01*
X31000000Y47935929D01*
X31000000Y49876000D01*
X31019685Y49943039D01*
X31072489Y49988794D01*
X31124000Y50000000D01*
X69455013Y50000000D01*
X69522052Y49980315D01*
G37*
%TD.AperFunction*%
%TD*%
%TA.AperFunction,Conductor*%
%TO.N,36V*%
G36*
X72015677Y95980315D02*
G01*
X72036319Y95963681D01*
X75963681Y92036319D01*
X75997166Y91974996D01*
X76000000Y91948638D01*
X76000000Y56063813D01*
X75980315Y55996774D01*
X75948073Y55962910D01*
X75209083Y55435061D01*
X75143090Y55412113D01*
X75075166Y55428487D01*
X75026877Y55478984D01*
X75013555Y55547572D01*
X75032017Y55601937D01*
X75085336Y55686794D01*
X75209603Y55944837D01*
X75304196Y56215166D01*
X75304200Y56215178D01*
X75367931Y56494403D01*
X75367933Y56494419D01*
X75399999Y56779011D01*
X75400000Y56779013D01*
X75400000Y57065428D01*
X75399999Y57065430D01*
X75367933Y57350022D01*
X75367931Y57350038D01*
X75304200Y57629263D01*
X75304196Y57629275D01*
X75209603Y57899604D01*
X75085337Y58157645D01*
X74932957Y58400156D01*
X74821390Y58540058D01*
X73965270Y57683938D01*
X73879722Y57801686D01*
X73729466Y57951942D01*
X73611716Y58037492D01*
X74467836Y58893612D01*
X74327935Y59005178D01*
X74085424Y59157558D01*
X73827383Y59281824D01*
X73557054Y59376417D01*
X73557042Y59376421D01*
X73277817Y59440152D01*
X73277801Y59440154D01*
X72993209Y59472220D01*
X72706790Y59472220D01*
X72422198Y59440154D01*
X72422182Y59440152D01*
X72142957Y59376421D01*
X72142945Y59376417D01*
X71872616Y59281824D01*
X71614575Y59157558D01*
X71372070Y59005182D01*
X71232163Y58893611D01*
X72088282Y58037492D01*
X71970534Y57951942D01*
X71820278Y57801686D01*
X71734728Y57683938D01*
X70878609Y58540057D01*
X70767038Y58400150D01*
X70614662Y58157645D01*
X70490396Y57899604D01*
X70395803Y57629275D01*
X70395799Y57629263D01*
X70332068Y57350038D01*
X70332066Y57350022D01*
X70300000Y57065430D01*
X70300000Y56779011D01*
X70332066Y56494419D01*
X70332068Y56494403D01*
X70395799Y56215178D01*
X70395803Y56215166D01*
X70490396Y55944837D01*
X70614662Y55686796D01*
X70767042Y55444285D01*
X70878608Y55304384D01*
X71734728Y56160504D01*
X71820278Y56042754D01*
X71970534Y55892498D01*
X72088282Y55806950D01*
X71232162Y54950830D01*
X71372064Y54839263D01*
X71614575Y54686883D01*
X71872616Y54562617D01*
X72142945Y54468024D01*
X72142957Y54468020D01*
X72422182Y54404289D01*
X72422198Y54404287D01*
X72706790Y54372221D01*
X72706792Y54372220D01*
X72993208Y54372220D01*
X72993209Y54372221D01*
X73277801Y54404287D01*
X73277813Y54404289D01*
X73392458Y54430455D01*
X73462197Y54426182D01*
X73518555Y54384883D01*
X73543638Y54319671D01*
X73529484Y54251250D01*
X73492125Y54208661D01*
X72532336Y53523097D01*
X72466342Y53500149D01*
X72460262Y53500000D01*
X61058078Y53500000D01*
X60991039Y53519685D01*
X60962819Y53544617D01*
X60262597Y54384883D01*
X59496347Y55304384D01*
X58092066Y56989521D01*
X57580418Y57603498D01*
X57203318Y58056018D01*
X64074500Y58056018D01*
X64074500Y57943982D01*
X64103497Y57835763D01*
X64159515Y57738737D01*
X64238737Y57659515D01*
X64335763Y57603497D01*
X64443982Y57574500D01*
X64443984Y57574500D01*
X64556016Y57574500D01*
X64556018Y57574500D01*
X64664237Y57603497D01*
X64761263Y57659515D01*
X64840485Y57738737D01*
X64896503Y57835763D01*
X64925500Y57943982D01*
X64925500Y58056018D01*
X64896503Y58164237D01*
X64840485Y58261263D01*
X64761263Y58340485D01*
X64664237Y58396503D01*
X64556018Y58425500D01*
X64443982Y58425500D01*
X64335763Y58396503D01*
X64335760Y58396502D01*
X64238740Y58340487D01*
X64238734Y58340483D01*
X64159517Y58261266D01*
X64159513Y58261260D01*
X64103498Y58164240D01*
X64103497Y58164237D01*
X64074500Y58056018D01*
X57203318Y58056018D01*
X56102986Y59376417D01*
X56028741Y59465511D01*
X56000945Y59529614D01*
X56000000Y59544894D01*
X56000000Y62935929D01*
X60349499Y62935929D01*
X60374497Y62810262D01*
X60374499Y62810256D01*
X60423533Y62691876D01*
X60423538Y62691867D01*
X60494723Y62585332D01*
X60494726Y62585328D01*
X60585327Y62494727D01*
X60585331Y62494724D01*
X60691866Y62423539D01*
X60691872Y62423536D01*
X60691873Y62423535D01*
X60810256Y62374499D01*
X60810260Y62374499D01*
X60810261Y62374498D01*
X60935928Y62349500D01*
X60935931Y62349500D01*
X61064071Y62349500D01*
X61148615Y62366318D01*
X61189744Y62374499D01*
X61308127Y62423535D01*
X61326676Y62435929D01*
X65349499Y62435929D01*
X65374497Y62310262D01*
X65374499Y62310256D01*
X65423533Y62191876D01*
X65423538Y62191867D01*
X65494723Y62085332D01*
X65494726Y62085328D01*
X65585327Y61994727D01*
X65585331Y61994724D01*
X65691866Y61923539D01*
X65691872Y61923536D01*
X65691873Y61923535D01*
X65810256Y61874499D01*
X65810260Y61874499D01*
X65810261Y61874498D01*
X65935928Y61849500D01*
X65935931Y61849500D01*
X66064071Y61849500D01*
X66175783Y61871722D01*
X66189744Y61874499D01*
X66308127Y61923535D01*
X66414669Y61994724D01*
X66505276Y62085331D01*
X66576465Y62191873D01*
X66625501Y62310256D01*
X66648034Y62423534D01*
X66650500Y62435929D01*
X66650500Y62564072D01*
X66625502Y62689739D01*
X66625501Y62689740D01*
X66625501Y62689744D01*
X66576465Y62808127D01*
X66576464Y62808128D01*
X66576461Y62808134D01*
X66505276Y62914669D01*
X66505273Y62914673D01*
X66414672Y63005274D01*
X66414668Y63005277D01*
X66308133Y63076462D01*
X66308124Y63076467D01*
X66189744Y63125501D01*
X66189738Y63125503D01*
X66064071Y63150500D01*
X66064069Y63150500D01*
X65935931Y63150500D01*
X65935929Y63150500D01*
X65810261Y63125503D01*
X65810255Y63125501D01*
X65691875Y63076467D01*
X65691866Y63076462D01*
X65585331Y63005277D01*
X65585327Y63005274D01*
X65494726Y62914673D01*
X65494723Y62914669D01*
X65423538Y62808134D01*
X65423533Y62808125D01*
X65374499Y62689745D01*
X65374497Y62689739D01*
X65349500Y62564072D01*
X65349500Y62564069D01*
X65349500Y62435931D01*
X65349500Y62435929D01*
X65349499Y62435929D01*
X61326676Y62435929D01*
X61414669Y62494724D01*
X61505276Y62585331D01*
X61521393Y62609452D01*
X61541172Y62639052D01*
X61541173Y62639054D01*
X61576458Y62691862D01*
X61576461Y62691867D01*
X61576465Y62691873D01*
X61625501Y62810256D01*
X61646271Y62914669D01*
X61650500Y62935929D01*
X61650500Y63064072D01*
X61625502Y63189739D01*
X61625501Y63189740D01*
X61625501Y63189744D01*
X61576465Y63308127D01*
X61576464Y63308128D01*
X61576461Y63308134D01*
X61505276Y63414669D01*
X61505273Y63414673D01*
X61414672Y63505274D01*
X61414668Y63505277D01*
X61308133Y63576462D01*
X61308124Y63576467D01*
X61189744Y63625501D01*
X61189738Y63625503D01*
X61064071Y63650500D01*
X61064069Y63650500D01*
X60935931Y63650500D01*
X60935929Y63650500D01*
X60810261Y63625503D01*
X60810255Y63625501D01*
X60691875Y63576467D01*
X60691866Y63576462D01*
X60585331Y63505277D01*
X60585327Y63505274D01*
X60494726Y63414673D01*
X60494723Y63414669D01*
X60423538Y63308134D01*
X60423533Y63308125D01*
X60374499Y63189745D01*
X60374497Y63189739D01*
X60349500Y63064072D01*
X60349500Y63064069D01*
X60349500Y62935931D01*
X60349500Y62935929D01*
X60349499Y62935929D01*
X56000000Y62935929D01*
X56000000Y65210159D01*
X70599500Y65210159D01*
X70599500Y63034296D01*
X70599501Y63034281D01*
X70609696Y62904736D01*
X70663596Y62690825D01*
X70754826Y62489977D01*
X70880449Y62308652D01*
X71036431Y62152670D01*
X71217756Y62027047D01*
X71217757Y62027047D01*
X71217761Y62027044D01*
X71351875Y61966127D01*
X71418604Y61935817D01*
X71418605Y61935817D01*
X71418607Y61935816D01*
X71632515Y61881916D01*
X71762067Y61871720D01*
X73937932Y61871721D01*
X74067485Y61881916D01*
X74281393Y61935816D01*
X74482239Y62027044D01*
X74663567Y62152669D01*
X74819551Y62308653D01*
X74945176Y62489981D01*
X75036404Y62690827D01*
X75090304Y62904735D01*
X75100500Y63034287D01*
X75100499Y65210152D01*
X75090304Y65339705D01*
X75036404Y65553613D01*
X74945176Y65754459D01*
X74819551Y65935787D01*
X74819550Y65935789D01*
X74663568Y66091771D01*
X74482243Y66217394D01*
X74281395Y66308624D01*
X74138787Y66344558D01*
X74067485Y66362524D01*
X73937933Y66372720D01*
X73937931Y66372720D01*
X71762075Y66372720D01*
X71762060Y66372719D01*
X71632515Y66362524D01*
X71418604Y66308624D01*
X71217756Y66217394D01*
X71036431Y66091771D01*
X70880449Y65935789D01*
X70754826Y65754464D01*
X70663596Y65553616D01*
X70609696Y65339705D01*
X70599500Y65210159D01*
X56000000Y65210159D01*
X56000000Y66500000D01*
X53500000Y69500000D01*
X35041333Y69500000D01*
X34974294Y69519685D01*
X34966933Y69524800D01*
X31049600Y72462800D01*
X31007779Y72518771D01*
X31000000Y72562000D01*
X31000000Y75565430D01*
X70300000Y75565430D01*
X70300000Y75279011D01*
X70332066Y74994419D01*
X70332068Y74994403D01*
X70395799Y74715178D01*
X70395803Y74715166D01*
X70490396Y74444837D01*
X70614662Y74186796D01*
X70767042Y73944285D01*
X70878608Y73804384D01*
X71734728Y74660504D01*
X71820278Y74542754D01*
X71970534Y74392498D01*
X72088282Y74306950D01*
X71232162Y73450830D01*
X71372064Y73339263D01*
X71614575Y73186883D01*
X71872616Y73062617D01*
X72142945Y72968024D01*
X72142957Y72968020D01*
X72422182Y72904289D01*
X72422198Y72904287D01*
X72706790Y72872221D01*
X72706792Y72872220D01*
X72993208Y72872220D01*
X72993209Y72872221D01*
X73277801Y72904287D01*
X73277817Y72904289D01*
X73557042Y72968020D01*
X73557054Y72968024D01*
X73827383Y73062617D01*
X74085424Y73186883D01*
X74327935Y73339262D01*
X74467836Y73450831D01*
X73611717Y74306949D01*
X73729466Y74392498D01*
X73879722Y74542754D01*
X73965271Y74660503D01*
X74821389Y73804384D01*
X74932958Y73944285D01*
X75085337Y74186796D01*
X75209603Y74444837D01*
X75304196Y74715166D01*
X75304200Y74715178D01*
X75367931Y74994403D01*
X75367933Y74994419D01*
X75399999Y75279011D01*
X75400000Y75279013D01*
X75400000Y75565428D01*
X75399999Y75565430D01*
X75367933Y75850022D01*
X75367931Y75850038D01*
X75304200Y76129263D01*
X75304196Y76129275D01*
X75209603Y76399604D01*
X75085337Y76657645D01*
X74932957Y76900156D01*
X74821390Y77040058D01*
X73965270Y76183939D01*
X73879722Y76301686D01*
X73729466Y76451942D01*
X73611716Y76537492D01*
X74467836Y77393612D01*
X74327935Y77505178D01*
X74085424Y77657558D01*
X73827383Y77781824D01*
X73557054Y77876417D01*
X73557042Y77876421D01*
X73277817Y77940152D01*
X73277801Y77940154D01*
X72993209Y77972220D01*
X72706790Y77972220D01*
X72422198Y77940154D01*
X72422182Y77940152D01*
X72142957Y77876421D01*
X72142945Y77876417D01*
X71872616Y77781824D01*
X71614575Y77657558D01*
X71372070Y77505182D01*
X71232163Y77393611D01*
X72088282Y76537492D01*
X71970534Y76451942D01*
X71820278Y76301686D01*
X71734728Y76183938D01*
X70878609Y77040057D01*
X70767038Y76900150D01*
X70614662Y76657645D01*
X70490396Y76399604D01*
X70395803Y76129275D01*
X70395799Y76129263D01*
X70332068Y75850038D01*
X70332066Y75850022D01*
X70300000Y75565430D01*
X31000000Y75565430D01*
X31000000Y76476202D01*
X31019685Y76543241D01*
X31072489Y76588996D01*
X31105596Y76597560D01*
X31105410Y76598738D01*
X31110221Y76599500D01*
X31110222Y76599500D01*
X31327951Y76633985D01*
X31537606Y76702105D01*
X31734022Y76802185D01*
X31912365Y76931758D01*
X32068242Y77087635D01*
X32197815Y77265978D01*
X32297895Y77462394D01*
X32366015Y77672049D01*
X32400500Y77889778D01*
X32400500Y78110222D01*
X32366015Y78327951D01*
X32297895Y78537606D01*
X32297895Y78537607D01*
X32263237Y78605625D01*
X32197815Y78734022D01*
X32181260Y78756808D01*
X32068247Y78912359D01*
X32068243Y78912364D01*
X31912363Y79068244D01*
X31912358Y79068248D01*
X31734025Y79197813D01*
X31734024Y79197814D01*
X31734022Y79197815D01*
X31671096Y79229878D01*
X31537606Y79297896D01*
X31537603Y79297897D01*
X31327952Y79366015D01*
X31213078Y79384210D01*
X31110222Y79400500D01*
X31110221Y79400500D01*
X31105410Y79401262D01*
X31105750Y79403415D01*
X31048933Y79425103D01*
X31007490Y79481355D01*
X31000000Y79523799D01*
X31000000Y83670000D01*
X31000000Y83710159D01*
X70599500Y83710159D01*
X70599500Y81534296D01*
X70599501Y81534281D01*
X70609696Y81404736D01*
X70663596Y81190825D01*
X70754826Y80989977D01*
X70880449Y80808652D01*
X71036431Y80652670D01*
X71217756Y80527047D01*
X71217757Y80527047D01*
X71217761Y80527044D01*
X71351875Y80466127D01*
X71418604Y80435817D01*
X71418605Y80435817D01*
X71418607Y80435816D01*
X71632515Y80381916D01*
X71762067Y80371720D01*
X73937932Y80371721D01*
X74067485Y80381916D01*
X74281393Y80435816D01*
X74482239Y80527044D01*
X74663567Y80652669D01*
X74819551Y80808653D01*
X74945176Y80989981D01*
X75036404Y81190827D01*
X75090304Y81404735D01*
X75100500Y81534287D01*
X75100499Y83710152D01*
X75090304Y83839705D01*
X75036404Y84053613D01*
X75034450Y84057914D01*
X74973264Y84192621D01*
X74945176Y84254459D01*
X74819551Y84435787D01*
X74819550Y84435789D01*
X74663568Y84591771D01*
X74482243Y84717394D01*
X74281395Y84808624D01*
X74138787Y84844558D01*
X74067485Y84862524D01*
X73937933Y84872720D01*
X73937931Y84872720D01*
X71762075Y84872720D01*
X71762060Y84872719D01*
X71632515Y84862524D01*
X71418604Y84808624D01*
X71217756Y84717394D01*
X71036431Y84591771D01*
X70880449Y84435789D01*
X70754826Y84254464D01*
X70663596Y84053616D01*
X70609696Y83839705D01*
X70599500Y83710159D01*
X31000000Y83710159D01*
X31000000Y84900000D01*
X31078991Y84900000D01*
X31231591Y84940889D01*
X31250000Y84951518D01*
X31250000Y83800000D01*
X32247828Y83800000D01*
X32247844Y83800001D01*
X32307372Y83806402D01*
X32307379Y83806404D01*
X32367348Y83828770D01*
X32442086Y83856646D01*
X32442093Y83856650D01*
X32557187Y83942810D01*
X32557190Y83942813D01*
X32643350Y84057907D01*
X32643354Y84057914D01*
X32693596Y84192621D01*
X32693598Y84192628D01*
X32699999Y84252156D01*
X32700000Y84252173D01*
X32700000Y85250000D01*
X31548482Y85250000D01*
X31559111Y85268409D01*
X31600000Y85421009D01*
X31600000Y85578991D01*
X31559111Y85731591D01*
X31548482Y85750000D01*
X32700000Y85750000D01*
X32700000Y86747828D01*
X32699999Y86747845D01*
X32693598Y86807373D01*
X32693596Y86807380D01*
X32643354Y86942087D01*
X32643350Y86942094D01*
X32557190Y87057188D01*
X32557187Y87057191D01*
X32442093Y87143351D01*
X32442086Y87143355D01*
X32307379Y87193597D01*
X32307372Y87193599D01*
X32247844Y87200000D01*
X31250000Y87200000D01*
X31250000Y86048483D01*
X31231591Y86059111D01*
X31078991Y86100000D01*
X31000000Y86100000D01*
X31000000Y93441922D01*
X31019685Y93508961D01*
X31044617Y93537181D01*
X33965511Y95971259D01*
X34029614Y95999055D01*
X34044894Y96000000D01*
X71948638Y96000000D01*
X72015677Y95980315D01*
G37*
%TD.AperFunction*%
%TD*%
%TA.AperFunction,Conductor*%
%TO.N,3.3V*%
G36*
X2188376Y38480315D02*
G01*
X2234131Y38427511D01*
X2241112Y38408093D01*
X2273608Y38286813D01*
X2301363Y38238741D01*
X2339500Y38172686D01*
X2432686Y38079500D01*
X2546814Y38013608D01*
X2674108Y37979500D01*
X2674110Y37979500D01*
X2805890Y37979500D01*
X2805892Y37979500D01*
X2933186Y38013608D01*
X3047314Y38079500D01*
X3140500Y38172686D01*
X3206392Y38286814D01*
X3238888Y38408094D01*
X3275253Y38467754D01*
X3338100Y38498283D01*
X3358663Y38500000D01*
X4661337Y38500000D01*
X4728376Y38480315D01*
X4774131Y38427511D01*
X4781112Y38408093D01*
X4813608Y38286813D01*
X4841363Y38238741D01*
X4879500Y38172686D01*
X4972686Y38079500D01*
X5086814Y38013608D01*
X5214108Y37979500D01*
X5214110Y37979500D01*
X5345890Y37979500D01*
X5345892Y37979500D01*
X5473186Y38013608D01*
X5587314Y38079500D01*
X5680500Y38172686D01*
X5746392Y38286814D01*
X5778888Y38408094D01*
X5815253Y38467754D01*
X5878100Y38498283D01*
X5898663Y38500000D01*
X7201337Y38500000D01*
X7268376Y38480315D01*
X7314131Y38427511D01*
X7321112Y38408093D01*
X7353608Y38286813D01*
X7381363Y38238741D01*
X7419500Y38172686D01*
X7512686Y38079500D01*
X7626814Y38013608D01*
X7754108Y37979500D01*
X7754110Y37979500D01*
X7885890Y37979500D01*
X7885892Y37979500D01*
X8013186Y38013608D01*
X8127314Y38079500D01*
X8220500Y38172686D01*
X8286392Y38286814D01*
X8318888Y38408094D01*
X8355253Y38467754D01*
X8418100Y38498283D01*
X8438663Y38500000D01*
X9741337Y38500000D01*
X9808376Y38480315D01*
X9854131Y38427511D01*
X9861112Y38408093D01*
X9893608Y38286813D01*
X9921363Y38238741D01*
X9959500Y38172686D01*
X10052686Y38079500D01*
X10166814Y38013608D01*
X10294108Y37979500D01*
X10294110Y37979500D01*
X10425890Y37979500D01*
X10425892Y37979500D01*
X10553186Y38013608D01*
X10667314Y38079500D01*
X10760500Y38172686D01*
X10826392Y38286814D01*
X10858888Y38408094D01*
X10895253Y38467754D01*
X10958100Y38498283D01*
X10978663Y38500000D01*
X12281337Y38500000D01*
X12348376Y38480315D01*
X12394131Y38427511D01*
X12401112Y38408093D01*
X12433608Y38286813D01*
X12461363Y38238741D01*
X12499500Y38172686D01*
X12592686Y38079500D01*
X12706814Y38013608D01*
X12834108Y37979500D01*
X12834110Y37979500D01*
X12965890Y37979500D01*
X12965892Y37979500D01*
X13093186Y38013608D01*
X13207314Y38079500D01*
X13300500Y38172686D01*
X13366392Y38286814D01*
X13398888Y38408094D01*
X13435253Y38467754D01*
X13498100Y38498283D01*
X13518663Y38500000D01*
X14821337Y38500000D01*
X14888376Y38480315D01*
X14934131Y38427511D01*
X14941112Y38408093D01*
X14973608Y38286813D01*
X15001363Y38238741D01*
X15039500Y38172686D01*
X15132686Y38079500D01*
X15246814Y38013608D01*
X15374108Y37979500D01*
X15374110Y37979500D01*
X15505890Y37979500D01*
X15505892Y37979500D01*
X15633186Y38013608D01*
X15747314Y38079500D01*
X15840500Y38172686D01*
X15906392Y38286814D01*
X15938888Y38408094D01*
X15975253Y38467754D01*
X16038100Y38498283D01*
X16058663Y38500000D01*
X17361337Y38500000D01*
X17428376Y38480315D01*
X17474131Y38427511D01*
X17481112Y38408093D01*
X17513608Y38286813D01*
X17541363Y38238741D01*
X17579500Y38172686D01*
X17672686Y38079500D01*
X17786814Y38013608D01*
X17914108Y37979500D01*
X17914110Y37979500D01*
X18045890Y37979500D01*
X18045892Y37979500D01*
X18173186Y38013608D01*
X18287314Y38079500D01*
X18380500Y38172686D01*
X18446392Y38286814D01*
X18478888Y38408094D01*
X18515253Y38467754D01*
X18578100Y38498283D01*
X18598663Y38500000D01*
X19901337Y38500000D01*
X19968376Y38480315D01*
X20014131Y38427511D01*
X20021112Y38408093D01*
X20053608Y38286813D01*
X20081363Y38238741D01*
X20119500Y38172686D01*
X20212686Y38079500D01*
X20326814Y38013608D01*
X20454108Y37979500D01*
X20454110Y37979500D01*
X20585890Y37979500D01*
X20585892Y37979500D01*
X20713186Y38013608D01*
X20827314Y38079500D01*
X20920500Y38172686D01*
X20986392Y38286814D01*
X21018888Y38408094D01*
X21055253Y38467754D01*
X21118100Y38498283D01*
X21138663Y38500000D01*
X22441337Y38500000D01*
X22508376Y38480315D01*
X22554131Y38427511D01*
X22561112Y38408093D01*
X22593608Y38286813D01*
X22621363Y38238741D01*
X22659500Y38172686D01*
X22752686Y38079500D01*
X22866814Y38013608D01*
X22994108Y37979500D01*
X22994110Y37979500D01*
X23125890Y37979500D01*
X23125892Y37979500D01*
X23253186Y38013608D01*
X23367314Y38079500D01*
X23460500Y38172686D01*
X23526392Y38286814D01*
X23558888Y38408094D01*
X23595253Y38467754D01*
X23658100Y38498283D01*
X23678663Y38500000D01*
X46314339Y38500000D01*
X46381378Y38480315D01*
X46427133Y38427511D01*
X46434111Y38408100D01*
X46453494Y38335763D01*
X46509512Y38238737D01*
X46588734Y38159515D01*
X46685760Y38103497D01*
X46793979Y38074500D01*
X46793981Y38074500D01*
X46906013Y38074500D01*
X46906015Y38074500D01*
X47014234Y38103497D01*
X47111260Y38159515D01*
X47111261Y38159517D01*
X47112998Y38160519D01*
X47180898Y38176992D01*
X47236998Y38160519D01*
X47238737Y38159515D01*
X47335763Y38103497D01*
X47443982Y38074500D01*
X47443984Y38074500D01*
X47556016Y38074500D01*
X47556018Y38074500D01*
X47664237Y38103497D01*
X47761263Y38159515D01*
X47840485Y38238737D01*
X47896503Y38335763D01*
X47915884Y38408095D01*
X47952248Y38467754D01*
X48015094Y38498283D01*
X48035658Y38500000D01*
X66877621Y38500000D01*
X66944660Y38480315D01*
X66990415Y38427511D01*
X67001610Y38377631D01*
X67096483Y31167317D01*
X67486558Y1521535D01*
X67491469Y1148351D01*
X67472668Y1081059D01*
X67420471Y1034613D01*
X67367480Y1022720D01*
X3503751Y1022720D01*
X3496264Y1022946D01*
X3206206Y1040492D01*
X3191341Y1042297D01*
X2909207Y1094000D01*
X2894668Y1097584D01*
X2620826Y1182917D01*
X2606837Y1188222D01*
X2345256Y1305951D01*
X2332020Y1312898D01*
X2086544Y1461294D01*
X2074223Y1469798D01*
X1848438Y1646690D01*
X1837229Y1656620D01*
X1634408Y1859443D01*
X1624479Y1870651D01*
X1447585Y2096441D01*
X1439079Y2108765D01*
X1290698Y2354221D01*
X1283739Y2367479D01*
X1166020Y2629043D01*
X1160710Y2643044D01*
X1075377Y2916892D01*
X1071794Y2931431D01*
X1057767Y3007974D01*
X1020093Y3213561D01*
X1018289Y3228422D01*
X1010920Y3350255D01*
X1000726Y3518813D01*
X1000500Y3526299D01*
X1000501Y3588109D01*
X1000500Y3588113D01*
X1000500Y5143509D01*
X3149500Y5143509D01*
X3149500Y4900932D01*
X3181161Y4660435D01*
X3243947Y4426116D01*
X3336773Y4202015D01*
X3336776Y4202008D01*
X3458064Y3991931D01*
X3458066Y3991928D01*
X3458067Y3991927D01*
X3605733Y3799484D01*
X3605739Y3799477D01*
X3777256Y3627960D01*
X3777262Y3627955D01*
X3969711Y3480284D01*
X4179788Y3358996D01*
X4403900Y3266166D01*
X4638211Y3203382D01*
X4818586Y3179636D01*
X4878711Y3171720D01*
X4878712Y3171720D01*
X5121289Y3171720D01*
X5169388Y3178053D01*
X5361789Y3203382D01*
X5596100Y3266166D01*
X5820212Y3358996D01*
X6030289Y3480284D01*
X6222738Y3627955D01*
X6394265Y3799482D01*
X6541936Y3991931D01*
X6663224Y4202008D01*
X6756054Y4426120D01*
X6818838Y4660431D01*
X6850500Y4900932D01*
X6850500Y5143508D01*
X6818838Y5384009D01*
X6756054Y5618320D01*
X6663224Y5842432D01*
X6541936Y6052509D01*
X6394265Y6244958D01*
X6394260Y6244964D01*
X6222743Y6416481D01*
X6222736Y6416487D01*
X6030293Y6564153D01*
X6030292Y6564154D01*
X6030289Y6564156D01*
X5820212Y6685444D01*
X5820205Y6685447D01*
X5596104Y6778273D01*
X5361785Y6841059D01*
X5121289Y6872720D01*
X5121288Y6872720D01*
X4878712Y6872720D01*
X4878711Y6872720D01*
X4638214Y6841059D01*
X4403895Y6778273D01*
X4179794Y6685447D01*
X4179785Y6685443D01*
X3969706Y6564153D01*
X3777263Y6416487D01*
X3777256Y6416481D01*
X3605739Y6244964D01*
X3605733Y6244957D01*
X3458067Y6052514D01*
X3336777Y5842435D01*
X3336773Y5842426D01*
X3243947Y5618325D01*
X3181161Y5384006D01*
X3149500Y5143509D01*
X1000500Y5143509D01*
X1000500Y7126490D01*
X15649500Y7126490D01*
X15649500Y4917951D01*
X15652353Y4887521D01*
X15652353Y4887519D01*
X15697206Y4759340D01*
X15697207Y4759338D01*
X15777850Y4650070D01*
X15887118Y4569427D01*
X15929845Y4554476D01*
X16015299Y4524574D01*
X16045730Y4521720D01*
X16045734Y4521720D01*
X17654270Y4521720D01*
X17684699Y4524574D01*
X17684701Y4524574D01*
X17748790Y4547001D01*
X17812882Y4569427D01*
X17922150Y4650070D01*
X18002793Y4759338D01*
X18025219Y4823430D01*
X18047646Y4887519D01*
X18047646Y4887521D01*
X18050500Y4917951D01*
X18050500Y6416707D01*
X19149500Y6416707D01*
X19149500Y5627734D01*
X19179059Y5441102D01*
X19237454Y5261384D01*
X19304270Y5130252D01*
X19323240Y5093021D01*
X19434310Y4940147D01*
X19567927Y4806530D01*
X19720801Y4695460D01*
X19765333Y4672770D01*
X19889163Y4609675D01*
X19889165Y4609675D01*
X19889168Y4609673D01*
X19985497Y4578374D01*
X20068881Y4551280D01*
X20255514Y4521720D01*
X20255519Y4521720D01*
X20444486Y4521720D01*
X20631118Y4551280D01*
X20686971Y4569428D01*
X20810832Y4609673D01*
X20979199Y4695460D01*
X21132073Y4806530D01*
X21265690Y4940147D01*
X21376760Y5093021D01*
X21462547Y5261388D01*
X21520940Y5441102D01*
X21527383Y5481783D01*
X21550500Y5627734D01*
X21550500Y6416707D01*
X22649500Y6416707D01*
X22649500Y5627734D01*
X22679059Y5441102D01*
X22737454Y5261384D01*
X22804270Y5130252D01*
X22823240Y5093021D01*
X22934310Y4940147D01*
X23067927Y4806530D01*
X23220801Y4695460D01*
X23265333Y4672770D01*
X23389163Y4609675D01*
X23389165Y4609675D01*
X23389168Y4609673D01*
X23485497Y4578374D01*
X23568881Y4551280D01*
X23755514Y4521720D01*
X23755519Y4521720D01*
X23944486Y4521720D01*
X24131118Y4551280D01*
X24186971Y4569428D01*
X24310832Y4609673D01*
X24479199Y4695460D01*
X24632073Y4806530D01*
X24765690Y4940147D01*
X24876760Y5093021D01*
X24962547Y5261388D01*
X25020940Y5441102D01*
X25027383Y5481783D01*
X25050500Y5627734D01*
X25050500Y6250000D01*
X45552769Y6250000D01*
X46446988Y6250000D01*
X46414075Y6192993D01*
X46380000Y6065826D01*
X46380000Y5934174D01*
X46414075Y5807007D01*
X46446988Y5750000D01*
X45552769Y5750000D01*
X45563242Y5683874D01*
X45563242Y5683871D01*
X45628904Y5481783D01*
X45725379Y5292443D01*
X45850272Y5120541D01*
X45850276Y5120536D01*
X46000535Y4970277D01*
X46000540Y4970273D01*
X46172442Y4845380D01*
X46361782Y4748905D01*
X46563871Y4683243D01*
X46630000Y4672769D01*
X46630000Y5566988D01*
X46687007Y5534075D01*
X46814174Y5500000D01*
X46945826Y5500000D01*
X47072993Y5534075D01*
X47130000Y5566988D01*
X47130000Y4672770D01*
X47196126Y4683243D01*
X47196129Y4683243D01*
X47398217Y4748905D01*
X47587557Y4845380D01*
X47759459Y4970273D01*
X47759464Y4970277D01*
X47909723Y5120536D01*
X47909727Y5120541D01*
X48034620Y5292443D01*
X48131095Y5481783D01*
X48188343Y5657974D01*
X48227780Y5715649D01*
X48292139Y5742848D01*
X48360985Y5730934D01*
X48412461Y5683690D01*
X48420833Y5667113D01*
X48441042Y5618325D01*
X48489058Y5502404D01*
X48604024Y5330343D01*
X48750342Y5184025D01*
X48750345Y5184023D01*
X48922402Y5069059D01*
X49113580Y4989870D01*
X49258052Y4961133D01*
X49316530Y4949501D01*
X49316534Y4949500D01*
X49316535Y4949500D01*
X49523466Y4949500D01*
X49523467Y4949501D01*
X49726420Y4989870D01*
X49917598Y5069059D01*
X50089655Y5184023D01*
X50235977Y5330345D01*
X50350941Y5502402D01*
X50430130Y5693580D01*
X50470500Y5896535D01*
X50470500Y6103465D01*
X50470499Y6103470D01*
X50909500Y6103470D01*
X50909500Y5896531D01*
X50949868Y5693588D01*
X50949870Y5693580D01*
X51029058Y5502404D01*
X51144024Y5330343D01*
X51290342Y5184025D01*
X51290345Y5184023D01*
X51462402Y5069059D01*
X51653580Y4989870D01*
X51798052Y4961133D01*
X51856530Y4949501D01*
X51856534Y4949500D01*
X51856535Y4949500D01*
X52063466Y4949500D01*
X52063467Y4949501D01*
X52266420Y4989870D01*
X52457598Y5069059D01*
X52629655Y5184023D01*
X52775977Y5330345D01*
X52890941Y5502402D01*
X52970130Y5693580D01*
X53010500Y5896535D01*
X53010500Y6103465D01*
X52970130Y6306420D01*
X52890941Y6497598D01*
X52775977Y6669655D01*
X52775975Y6669658D01*
X52629657Y6815976D01*
X52549173Y6869753D01*
X53449500Y6869753D01*
X53449500Y5130248D01*
X53461131Y5071771D01*
X53461132Y5071770D01*
X53505447Y5005448D01*
X53571769Y4961133D01*
X53571770Y4961132D01*
X53630247Y4949501D01*
X53630250Y4949500D01*
X53630252Y4949500D01*
X55369750Y4949500D01*
X55369751Y4949501D01*
X55384568Y4952448D01*
X55428229Y4961132D01*
X55428229Y4961133D01*
X55428231Y4961133D01*
X55494552Y5005448D01*
X55538867Y5071769D01*
X55538867Y5071771D01*
X55538868Y5071771D01*
X55550499Y5130248D01*
X55550500Y5130250D01*
X55550500Y6869751D01*
X55550499Y6869753D01*
X55538868Y6928230D01*
X55538867Y6928231D01*
X55494552Y6994553D01*
X55428230Y7038868D01*
X55428229Y7038869D01*
X55369752Y7050500D01*
X55369748Y7050500D01*
X53630252Y7050500D01*
X53630247Y7050500D01*
X53571770Y7038869D01*
X53571769Y7038868D01*
X53505447Y6994553D01*
X53461132Y6928231D01*
X53461131Y6928230D01*
X53449500Y6869753D01*
X52549173Y6869753D01*
X52461655Y6928230D01*
X52457598Y6930941D01*
X52457593Y6930943D01*
X52266420Y7010130D01*
X52266412Y7010132D01*
X52063469Y7050500D01*
X52063465Y7050500D01*
X51856535Y7050500D01*
X51856530Y7050500D01*
X51653587Y7010132D01*
X51653579Y7010130D01*
X51462403Y6930942D01*
X51290342Y6815976D01*
X51144024Y6669658D01*
X51029058Y6497597D01*
X50949870Y6306421D01*
X50949868Y6306413D01*
X50909500Y6103470D01*
X50470499Y6103470D01*
X50430130Y6306420D01*
X50350941Y6497598D01*
X50235977Y6669655D01*
X50235975Y6669658D01*
X50089657Y6815976D01*
X49921655Y6928230D01*
X49917598Y6930941D01*
X49917593Y6930943D01*
X49726420Y7010130D01*
X49726412Y7010132D01*
X49523469Y7050500D01*
X49523465Y7050500D01*
X49316535Y7050500D01*
X49316530Y7050500D01*
X49113587Y7010132D01*
X49113579Y7010130D01*
X48922403Y6930942D01*
X48750342Y6815976D01*
X48604024Y6669658D01*
X48489057Y6497597D01*
X48420835Y6332892D01*
X48376994Y6278489D01*
X48310700Y6256424D01*
X48243000Y6273703D01*
X48195390Y6324841D01*
X48188343Y6342027D01*
X48131095Y6518218D01*
X48034620Y6707558D01*
X47909727Y6879460D01*
X47909723Y6879465D01*
X47759464Y7029724D01*
X47759459Y7029728D01*
X47587557Y7154621D01*
X47398215Y7251097D01*
X47196124Y7316759D01*
X47130000Y7327232D01*
X47130000Y6433012D01*
X47072993Y6465925D01*
X46945826Y6500000D01*
X46814174Y6500000D01*
X46687007Y6465925D01*
X46630000Y6433012D01*
X46630000Y7327232D01*
X46629999Y7327232D01*
X46563875Y7316759D01*
X46361784Y7251097D01*
X46172442Y7154621D01*
X46000540Y7029728D01*
X46000535Y7029724D01*
X45850276Y6879465D01*
X45850272Y6879460D01*
X45725379Y6707558D01*
X45628904Y6518218D01*
X45563242Y6316130D01*
X45563242Y6316127D01*
X45552769Y6250000D01*
X25050500Y6250000D01*
X25050500Y6416707D01*
X25020940Y6603339D01*
X24987077Y6707558D01*
X24962547Y6783052D01*
X24962545Y6783055D01*
X24962545Y6783057D01*
X24888575Y6928230D01*
X24876760Y6951419D01*
X24765690Y7104293D01*
X24632073Y7237910D01*
X24479199Y7348980D01*
X24310836Y7434766D01*
X24131118Y7493161D01*
X23944486Y7522720D01*
X23944481Y7522720D01*
X23755519Y7522720D01*
X23755514Y7522720D01*
X23568881Y7493161D01*
X23389163Y7434766D01*
X23220800Y7348980D01*
X23133579Y7285610D01*
X23067927Y7237910D01*
X23067925Y7237908D01*
X23067924Y7237908D01*
X22934312Y7104296D01*
X22934312Y7104295D01*
X22934310Y7104293D01*
X22895227Y7050500D01*
X22823240Y6951420D01*
X22737454Y6783057D01*
X22679059Y6603339D01*
X22649500Y6416707D01*
X21550500Y6416707D01*
X21520940Y6603339D01*
X21487077Y6707558D01*
X21462547Y6783052D01*
X21462545Y6783055D01*
X21462545Y6783057D01*
X21388575Y6928230D01*
X21376760Y6951419D01*
X21265690Y7104293D01*
X21132073Y7237910D01*
X20979199Y7348980D01*
X20810836Y7434766D01*
X20631118Y7493161D01*
X20444486Y7522720D01*
X20444481Y7522720D01*
X20255519Y7522720D01*
X20255514Y7522720D01*
X20068881Y7493161D01*
X19889163Y7434766D01*
X19720800Y7348980D01*
X19633579Y7285610D01*
X19567927Y7237910D01*
X19567925Y7237908D01*
X19567924Y7237908D01*
X19434312Y7104296D01*
X19434312Y7104295D01*
X19434310Y7104293D01*
X19395227Y7050500D01*
X19323240Y6951420D01*
X19237454Y6783057D01*
X19179059Y6603339D01*
X19149500Y6416707D01*
X18050500Y6416707D01*
X18050500Y7126490D01*
X18047646Y7156920D01*
X18047646Y7156922D01*
X18002793Y7285101D01*
X18002792Y7285103D01*
X17979429Y7316759D01*
X17922150Y7394370D01*
X17812882Y7475013D01*
X17812880Y7475014D01*
X17684700Y7519867D01*
X17654270Y7522720D01*
X17654266Y7522720D01*
X16045734Y7522720D01*
X16045730Y7522720D01*
X16015300Y7519867D01*
X16015298Y7519867D01*
X15887119Y7475014D01*
X15887117Y7475013D01*
X15777850Y7394370D01*
X15697207Y7285103D01*
X15697206Y7285101D01*
X15652353Y7156922D01*
X15652353Y7156920D01*
X15649500Y7126490D01*
X1000500Y7126490D01*
X1000500Y8698470D01*
X29949500Y8698470D01*
X29949500Y8491531D01*
X29989868Y8288588D01*
X29989870Y8288580D01*
X30069058Y8097404D01*
X30184024Y7925343D01*
X30330342Y7779025D01*
X30330345Y7779023D01*
X30502402Y7664059D01*
X30693580Y7584870D01*
X30896530Y7544501D01*
X30896534Y7544500D01*
X30896535Y7544500D01*
X31103466Y7544500D01*
X31103467Y7544501D01*
X31306420Y7584870D01*
X31497598Y7664059D01*
X31669655Y7779023D01*
X31815977Y7925345D01*
X31930941Y8097402D01*
X32010130Y8288580D01*
X32050500Y8491535D01*
X32050500Y8698465D01*
X32010130Y8901420D01*
X31930941Y9092598D01*
X31815977Y9264655D01*
X31815975Y9264658D01*
X31669657Y9410976D01*
X31544313Y9494727D01*
X31497598Y9525941D01*
X31306420Y9605130D01*
X31306412Y9605132D01*
X31103469Y9645500D01*
X31103465Y9645500D01*
X30896535Y9645500D01*
X30896530Y9645500D01*
X30693587Y9605132D01*
X30693579Y9605130D01*
X30502403Y9525942D01*
X30330342Y9410976D01*
X30184024Y9264658D01*
X30069058Y9092597D01*
X29989870Y8901421D01*
X29989868Y8901413D01*
X29949500Y8698470D01*
X1000500Y8698470D01*
X1000500Y9935929D01*
X13349499Y9935929D01*
X13374497Y9810262D01*
X13374499Y9810256D01*
X13423533Y9691876D01*
X13423538Y9691867D01*
X13494723Y9585332D01*
X13494726Y9585328D01*
X13585327Y9494727D01*
X13585331Y9494724D01*
X13691866Y9423539D01*
X13691872Y9423536D01*
X13691873Y9423535D01*
X13810256Y9374499D01*
X13810260Y9374499D01*
X13810261Y9374498D01*
X13935928Y9349500D01*
X13935931Y9349500D01*
X14064071Y9349500D01*
X14148615Y9366318D01*
X14189744Y9374499D01*
X14308127Y9423535D01*
X14414669Y9494724D01*
X14505276Y9585331D01*
X14576465Y9691873D01*
X14625501Y9810256D01*
X14650500Y9935931D01*
X14650500Y10064069D01*
X14650500Y10064072D01*
X14625502Y10189739D01*
X14625501Y10189740D01*
X14625501Y10189744D01*
X14576465Y10308127D01*
X14576464Y10308128D01*
X14576461Y10308134D01*
X14505276Y10414669D01*
X14505273Y10414673D01*
X14414672Y10505274D01*
X14414668Y10505277D01*
X14308133Y10576462D01*
X14308124Y10576467D01*
X14189744Y10625501D01*
X14189738Y10625503D01*
X14064071Y10650500D01*
X14064069Y10650500D01*
X13935931Y10650500D01*
X13935929Y10650500D01*
X13810261Y10625503D01*
X13810255Y10625501D01*
X13691875Y10576467D01*
X13691866Y10576462D01*
X13585331Y10505277D01*
X13585327Y10505274D01*
X13494726Y10414673D01*
X13494723Y10414669D01*
X13423538Y10308134D01*
X13423533Y10308125D01*
X13374499Y10189745D01*
X13374497Y10189739D01*
X13349500Y10064072D01*
X13349500Y10064069D01*
X13349500Y9935931D01*
X13349500Y9935929D01*
X13349499Y9935929D01*
X1000500Y9935929D01*
X1000500Y12483937D01*
X24301491Y12483937D01*
X24326489Y12358270D01*
X24326491Y12358264D01*
X24375525Y12239884D01*
X24375530Y12239875D01*
X24446715Y12133340D01*
X24446718Y12133336D01*
X24537319Y12042735D01*
X24537323Y12042732D01*
X24643858Y11971547D01*
X24643864Y11971544D01*
X24643865Y11971543D01*
X24762248Y11922507D01*
X24762252Y11922507D01*
X24762253Y11922506D01*
X24887920Y11897508D01*
X24887923Y11897508D01*
X25016063Y11897508D01*
X25100607Y11914326D01*
X25141736Y11922507D01*
X25260119Y11971543D01*
X25366661Y12042732D01*
X25457268Y12133339D01*
X25528457Y12239881D01*
X25577493Y12358264D01*
X25599284Y12467810D01*
X25602492Y12483937D01*
X25602492Y12612080D01*
X25577494Y12737747D01*
X25577493Y12737748D01*
X25577493Y12737752D01*
X25528457Y12856135D01*
X25528456Y12856136D01*
X25528453Y12856142D01*
X25457268Y12962677D01*
X25457265Y12962681D01*
X25366664Y13053282D01*
X25366660Y13053285D01*
X25260125Y13124470D01*
X25260116Y13124475D01*
X25141736Y13173509D01*
X25141730Y13173511D01*
X25016063Y13198508D01*
X25016061Y13198508D01*
X24887923Y13198508D01*
X24887921Y13198508D01*
X24762253Y13173511D01*
X24762247Y13173509D01*
X24643867Y13124475D01*
X24643858Y13124470D01*
X24537323Y13053285D01*
X24537319Y13053282D01*
X24446718Y12962681D01*
X24446715Y12962677D01*
X24375530Y12856142D01*
X24375525Y12856133D01*
X24326491Y12737753D01*
X24326489Y12737747D01*
X24301492Y12612080D01*
X24301492Y12612077D01*
X24301492Y12483939D01*
X24301492Y12483937D01*
X24301491Y12483937D01*
X1000500Y12483937D01*
X1000500Y13145892D01*
X2239500Y13145892D01*
X2239500Y13014109D01*
X2273608Y12886813D01*
X2295151Y12849500D01*
X2339500Y12772686D01*
X2432686Y12679500D01*
X2546814Y12613608D01*
X2674108Y12579500D01*
X2674110Y12579500D01*
X2805890Y12579500D01*
X2805892Y12579500D01*
X2933186Y12613608D01*
X3047314Y12679500D01*
X3140500Y12772686D01*
X3206392Y12886814D01*
X3240500Y13014108D01*
X3240500Y13145892D01*
X4779500Y13145892D01*
X4779500Y13014109D01*
X4813608Y12886813D01*
X4835151Y12849500D01*
X4879500Y12772686D01*
X4972686Y12679500D01*
X5086814Y12613608D01*
X5214108Y12579500D01*
X5214110Y12579500D01*
X5345890Y12579500D01*
X5345892Y12579500D01*
X5473186Y12613608D01*
X5587314Y12679500D01*
X5680500Y12772686D01*
X5746392Y12886814D01*
X5780500Y13014108D01*
X5780500Y13145892D01*
X7319500Y13145892D01*
X7319500Y13014109D01*
X7353608Y12886813D01*
X7375151Y12849500D01*
X7419500Y12772686D01*
X7512686Y12679500D01*
X7626814Y12613608D01*
X7754108Y12579500D01*
X7754110Y12579500D01*
X7885890Y12579500D01*
X7885892Y12579500D01*
X8013186Y12613608D01*
X8127314Y12679500D01*
X8220500Y12772686D01*
X8286392Y12886814D01*
X8320500Y13014108D01*
X8320500Y13145892D01*
X9859500Y13145892D01*
X9859500Y13014109D01*
X9893608Y12886813D01*
X9915151Y12849500D01*
X9959500Y12772686D01*
X10052686Y12679500D01*
X10166814Y12613608D01*
X10294108Y12579500D01*
X10294110Y12579500D01*
X10425890Y12579500D01*
X10425892Y12579500D01*
X10553186Y12613608D01*
X10667314Y12679500D01*
X10760500Y12772686D01*
X10826392Y12886814D01*
X10860500Y13014108D01*
X10860500Y13145892D01*
X12399500Y13145892D01*
X12399500Y13014109D01*
X12433608Y12886813D01*
X12455151Y12849500D01*
X12499500Y12772686D01*
X12592686Y12679500D01*
X12706814Y12613608D01*
X12834108Y12579500D01*
X12834110Y12579500D01*
X12965890Y12579500D01*
X12965892Y12579500D01*
X13093186Y12613608D01*
X13207314Y12679500D01*
X13300500Y12772686D01*
X13366392Y12886814D01*
X13400500Y13014108D01*
X13400500Y13145892D01*
X13366392Y13273186D01*
X13300500Y13387314D01*
X13207314Y13480500D01*
X13150250Y13513446D01*
X13093187Y13546392D01*
X13027203Y13564072D01*
X12965892Y13580500D01*
X12834108Y13580500D01*
X12706812Y13546392D01*
X12592686Y13480500D01*
X12592683Y13480498D01*
X12499502Y13387317D01*
X12499500Y13387314D01*
X12433608Y13273188D01*
X12399500Y13145892D01*
X10860500Y13145892D01*
X10826392Y13273186D01*
X10760500Y13387314D01*
X10667314Y13480500D01*
X10610250Y13513446D01*
X10553187Y13546392D01*
X10487203Y13564072D01*
X10425892Y13580500D01*
X10294108Y13580500D01*
X10166812Y13546392D01*
X10052686Y13480500D01*
X10052683Y13480498D01*
X9959502Y13387317D01*
X9959500Y13387314D01*
X9893608Y13273188D01*
X9859500Y13145892D01*
X8320500Y13145892D01*
X8286392Y13273186D01*
X8220500Y13387314D01*
X8127314Y13480500D01*
X8070250Y13513446D01*
X8013187Y13546392D01*
X7947203Y13564072D01*
X7885892Y13580500D01*
X7754108Y13580500D01*
X7626812Y13546392D01*
X7512686Y13480500D01*
X7512683Y13480498D01*
X7419502Y13387317D01*
X7419500Y13387314D01*
X7353608Y13273188D01*
X7319500Y13145892D01*
X5780500Y13145892D01*
X5746392Y13273186D01*
X5680500Y13387314D01*
X5587314Y13480500D01*
X5530250Y13513446D01*
X5473187Y13546392D01*
X5407203Y13564072D01*
X5345892Y13580500D01*
X5214108Y13580500D01*
X5086812Y13546392D01*
X4972686Y13480500D01*
X4972683Y13480498D01*
X4879502Y13387317D01*
X4879500Y13387314D01*
X4813608Y13273188D01*
X4779500Y13145892D01*
X3240500Y13145892D01*
X3206392Y13273186D01*
X3140500Y13387314D01*
X3047314Y13480500D01*
X2990250Y13513446D01*
X2933187Y13546392D01*
X2867203Y13564072D01*
X2805892Y13580500D01*
X2674108Y13580500D01*
X2546812Y13546392D01*
X2432686Y13480500D01*
X2432683Y13480498D01*
X2339502Y13387317D01*
X2339500Y13387314D01*
X2273608Y13273188D01*
X2239500Y13145892D01*
X1000500Y13145892D01*
X1000500Y14056018D01*
X28074500Y14056018D01*
X28074500Y13943982D01*
X28103497Y13835763D01*
X28159515Y13738737D01*
X28238737Y13659515D01*
X28335763Y13603497D01*
X28443982Y13574500D01*
X28443984Y13574500D01*
X28556016Y13574500D01*
X28556018Y13574500D01*
X28664237Y13603497D01*
X28761263Y13659515D01*
X28840485Y13738737D01*
X28896503Y13835763D01*
X28925500Y13943982D01*
X28925500Y14056018D01*
X28896503Y14164237D01*
X28840485Y14261263D01*
X28761263Y14340485D01*
X28664237Y14396503D01*
X28556018Y14425500D01*
X28443982Y14425500D01*
X28335763Y14396503D01*
X28335760Y14396502D01*
X28238740Y14340487D01*
X28238734Y14340483D01*
X28159517Y14261266D01*
X28159513Y14261260D01*
X28103498Y14164240D01*
X28103497Y14164237D01*
X28074500Y14056018D01*
X1000500Y14056018D01*
X1000500Y14572845D01*
X29650000Y14572845D01*
X29650000Y13925000D01*
X30566988Y13925000D01*
X30534075Y13867993D01*
X30500000Y13740826D01*
X30500000Y13609174D01*
X30534075Y13482007D01*
X30566988Y13425000D01*
X29650000Y13425000D01*
X29650000Y12777156D01*
X29656401Y12717628D01*
X29656403Y12717621D01*
X29706645Y12582914D01*
X29706649Y12582907D01*
X29792809Y12467813D01*
X29792812Y12467810D01*
X29907906Y12381650D01*
X29907913Y12381646D01*
X30042620Y12331404D01*
X30042627Y12331402D01*
X30102155Y12325001D01*
X30102172Y12325000D01*
X30504435Y12325000D01*
X30571474Y12305315D01*
X30617229Y12252511D01*
X30627173Y12183353D01*
X30598148Y12119797D01*
X30551888Y12086439D01*
X30502403Y12065942D01*
X30330342Y11950976D01*
X30184024Y11804658D01*
X30069058Y11632597D01*
X29989870Y11441421D01*
X29989868Y11441413D01*
X29949500Y11238470D01*
X29949500Y11031531D01*
X29989868Y10828588D01*
X29989870Y10828580D01*
X30069058Y10637404D01*
X30184024Y10465343D01*
X30330342Y10319025D01*
X30330345Y10319023D01*
X30502402Y10204059D01*
X30693580Y10124870D01*
X30896530Y10084501D01*
X30896534Y10084500D01*
X30896535Y10084500D01*
X31103466Y10084500D01*
X31103467Y10084501D01*
X31306420Y10124870D01*
X31497598Y10204059D01*
X31669655Y10319023D01*
X31815977Y10465345D01*
X31930941Y10637402D01*
X32010130Y10828580D01*
X32050500Y11031535D01*
X32050500Y11238465D01*
X32010130Y11441420D01*
X31930941Y11632598D01*
X31815977Y11804655D01*
X31815975Y11804658D01*
X31669657Y11950976D01*
X31532328Y12042735D01*
X31497598Y12065941D01*
X31448112Y12086439D01*
X31393709Y12130280D01*
X31371644Y12196574D01*
X31388923Y12264274D01*
X31440061Y12311884D01*
X31495565Y12325000D01*
X31897828Y12325000D01*
X31897844Y12325001D01*
X31957372Y12331402D01*
X31957379Y12331404D01*
X32092086Y12381646D01*
X32092093Y12381650D01*
X32207187Y12467810D01*
X32207190Y12467813D01*
X32293350Y12582907D01*
X32293354Y12582914D01*
X32343596Y12717621D01*
X32343598Y12717628D01*
X32349999Y12777156D01*
X32350000Y12777173D01*
X32350000Y13425000D01*
X31433012Y13425000D01*
X31439322Y13435929D01*
X39349499Y13435929D01*
X39374497Y13310262D01*
X39374499Y13310256D01*
X39423533Y13191876D01*
X39423538Y13191867D01*
X39494723Y13085332D01*
X39494726Y13085328D01*
X39585327Y12994727D01*
X39585331Y12994724D01*
X39691866Y12923539D01*
X39691872Y12923536D01*
X39691873Y12923535D01*
X39810256Y12874499D01*
X39810260Y12874499D01*
X39810261Y12874498D01*
X39935928Y12849500D01*
X39935931Y12849500D01*
X40064071Y12849500D01*
X40148615Y12866318D01*
X40189744Y12874499D01*
X40308127Y12923535D01*
X40414669Y12994724D01*
X40505276Y13085331D01*
X40576465Y13191873D01*
X40625501Y13310256D01*
X40650500Y13435931D01*
X40650500Y13564069D01*
X40650500Y13564072D01*
X40625502Y13689739D01*
X40625501Y13689740D01*
X40625501Y13689744D01*
X40576465Y13808127D01*
X40576464Y13808128D01*
X40576461Y13808134D01*
X40505276Y13914669D01*
X40505273Y13914673D01*
X40414672Y14005274D01*
X40414668Y14005277D01*
X40308133Y14076462D01*
X40308124Y14076467D01*
X40189744Y14125501D01*
X40189738Y14125503D01*
X40064071Y14150500D01*
X40064069Y14150500D01*
X39935931Y14150500D01*
X39935929Y14150500D01*
X39810261Y14125503D01*
X39810255Y14125501D01*
X39691875Y14076467D01*
X39691866Y14076462D01*
X39585331Y14005277D01*
X39585327Y14005274D01*
X39494726Y13914673D01*
X39494723Y13914669D01*
X39423538Y13808134D01*
X39423533Y13808125D01*
X39374499Y13689745D01*
X39374497Y13689739D01*
X39349500Y13564072D01*
X39349500Y13564069D01*
X39349500Y13435931D01*
X39349500Y13435929D01*
X39349499Y13435929D01*
X31439322Y13435929D01*
X31465925Y13482007D01*
X31500000Y13609174D01*
X31500000Y13740826D01*
X31465925Y13867993D01*
X31433012Y13925000D01*
X32350000Y13925000D01*
X32350000Y14556018D01*
X43074500Y14556018D01*
X43074500Y14443982D01*
X43103497Y14335763D01*
X43159515Y14238737D01*
X43238737Y14159515D01*
X43335763Y14103497D01*
X43443982Y14074500D01*
X43443984Y14074500D01*
X43556016Y14074500D01*
X43556018Y14074500D01*
X43664237Y14103497D01*
X43761263Y14159515D01*
X43840485Y14238737D01*
X43896503Y14335763D01*
X43925500Y14443982D01*
X43925500Y14556018D01*
X53074500Y14556018D01*
X53074500Y14443982D01*
X53103497Y14335763D01*
X53159515Y14238737D01*
X53238737Y14159515D01*
X53335763Y14103497D01*
X53443982Y14074500D01*
X53443984Y14074500D01*
X53556016Y14074500D01*
X53556018Y14074500D01*
X53664237Y14103497D01*
X53761263Y14159515D01*
X53840485Y14238737D01*
X53896503Y14335763D01*
X53925500Y14443982D01*
X53925500Y14556018D01*
X53896503Y14664237D01*
X53840485Y14761263D01*
X53761263Y14840485D01*
X53664237Y14896503D01*
X53556018Y14925500D01*
X53443982Y14925500D01*
X53335763Y14896503D01*
X53335760Y14896502D01*
X53238740Y14840487D01*
X53238734Y14840483D01*
X53159517Y14761266D01*
X53159513Y14761260D01*
X53103498Y14664240D01*
X53103497Y14664237D01*
X53074500Y14556018D01*
X43925500Y14556018D01*
X43896503Y14664237D01*
X43840485Y14761263D01*
X43761263Y14840485D01*
X43664237Y14896503D01*
X43556018Y14925500D01*
X43443982Y14925500D01*
X43335763Y14896503D01*
X43335760Y14896502D01*
X43238740Y14840487D01*
X43238734Y14840483D01*
X43159517Y14761266D01*
X43159513Y14761260D01*
X43103498Y14664240D01*
X43103497Y14664237D01*
X43074500Y14556018D01*
X32350000Y14556018D01*
X32350000Y14572828D01*
X32349999Y14572845D01*
X32343598Y14632373D01*
X32343596Y14632380D01*
X32293354Y14767087D01*
X32293350Y14767094D01*
X32207190Y14882188D01*
X32207187Y14882191D01*
X32096749Y14964866D01*
X32096731Y14964878D01*
X32092089Y14968353D01*
X32092086Y14968355D01*
X31957379Y15018597D01*
X31957372Y15018599D01*
X31897844Y15025000D01*
X31250000Y15025000D01*
X31250000Y14108012D01*
X31192993Y14140925D01*
X31065826Y14175000D01*
X30934174Y14175000D01*
X30807007Y14140925D01*
X30750000Y14108012D01*
X30750000Y15025000D01*
X30102155Y15025000D01*
X30042627Y15018599D01*
X30042620Y15018597D01*
X29907913Y14968355D01*
X29907906Y14968351D01*
X29792812Y14882191D01*
X29792809Y14882188D01*
X29706649Y14767094D01*
X29706645Y14767087D01*
X29656403Y14632380D01*
X29656401Y14632373D01*
X29650000Y14572845D01*
X1000500Y14572845D01*
X1000500Y15056018D01*
X33574500Y15056018D01*
X33574500Y14943982D01*
X33602233Y14840483D01*
X33603497Y14835764D01*
X33603498Y14835761D01*
X33608997Y14826237D01*
X33659515Y14738737D01*
X33738737Y14659515D01*
X33835763Y14603497D01*
X33943982Y14574500D01*
X33943984Y14574500D01*
X34056016Y14574500D01*
X34056018Y14574500D01*
X34164237Y14603497D01*
X34261263Y14659515D01*
X34304551Y14702804D01*
X34365872Y14736288D01*
X34435563Y14731304D01*
X34454231Y14722509D01*
X34549674Y14667405D01*
X34657893Y14638408D01*
X34657895Y14638408D01*
X34769927Y14638408D01*
X34769929Y14638408D01*
X34878148Y14667405D01*
X34975174Y14723423D01*
X35054396Y14802645D01*
X35054400Y14802653D01*
X35059344Y14809094D01*
X35061105Y14807743D01*
X35103271Y14847969D01*
X35171874Y14861211D01*
X35236746Y14835260D01*
X35247802Y14825450D01*
X35326237Y14747015D01*
X35423263Y14690997D01*
X35531482Y14662000D01*
X35531484Y14662000D01*
X35643516Y14662000D01*
X35643518Y14662000D01*
X35751737Y14690997D01*
X35848763Y14747015D01*
X35927985Y14826237D01*
X35984003Y14923263D01*
X36013000Y15031482D01*
X36013000Y15143518D01*
X35984003Y15251737D01*
X35927985Y15348763D01*
X35848763Y15427985D01*
X35792601Y15460410D01*
X35751739Y15484002D01*
X35751738Y15484003D01*
X35751737Y15484003D01*
X35643518Y15513000D01*
X35531482Y15513000D01*
X35423263Y15484003D01*
X35423260Y15484002D01*
X35326240Y15427987D01*
X35326234Y15427983D01*
X35247017Y15348766D01*
X35242067Y15342314D01*
X35240309Y15343663D01*
X35198108Y15303424D01*
X35129501Y15290202D01*
X35064636Y15316170D01*
X35053608Y15325959D01*
X34975176Y15404391D01*
X34975174Y15404393D01*
X34878148Y15460411D01*
X34769929Y15489408D01*
X34657893Y15489408D01*
X34549674Y15460411D01*
X34549671Y15460410D01*
X34452651Y15404395D01*
X34452644Y15404390D01*
X34409357Y15361104D01*
X34348034Y15327620D01*
X34278342Y15332606D01*
X34259678Y15341400D01*
X34255758Y15343663D01*
X34164237Y15396503D01*
X34056018Y15425500D01*
X33943982Y15425500D01*
X33835763Y15396503D01*
X33835760Y15396502D01*
X33738740Y15340487D01*
X33738734Y15340483D01*
X33659517Y15261266D01*
X33659513Y15261260D01*
X33603498Y15164240D01*
X33603497Y15164237D01*
X33574500Y15056018D01*
X1000500Y15056018D01*
X1000500Y15685892D01*
X2239500Y15685892D01*
X2239500Y15554109D01*
X2273608Y15426813D01*
X2306554Y15369750D01*
X2339500Y15312686D01*
X2432686Y15219500D01*
X2479133Y15192684D01*
X2536584Y15159514D01*
X2546814Y15153608D01*
X2674108Y15119500D01*
X2674110Y15119500D01*
X2805890Y15119500D01*
X2805892Y15119500D01*
X2933186Y15153608D01*
X3047314Y15219500D01*
X3140500Y15312686D01*
X3206392Y15426814D01*
X3240500Y15554108D01*
X3240500Y15685892D01*
X4779500Y15685892D01*
X4779500Y15554109D01*
X4813608Y15426813D01*
X4846554Y15369750D01*
X4879500Y15312686D01*
X4972686Y15219500D01*
X5019133Y15192684D01*
X5076584Y15159514D01*
X5086814Y15153608D01*
X5214108Y15119500D01*
X5214110Y15119500D01*
X5345890Y15119500D01*
X5345892Y15119500D01*
X5473186Y15153608D01*
X5587314Y15219500D01*
X5680500Y15312686D01*
X5746392Y15426814D01*
X5780500Y15554108D01*
X5780500Y15685892D01*
X7319500Y15685892D01*
X7319500Y15554109D01*
X7353608Y15426813D01*
X7386554Y15369750D01*
X7419500Y15312686D01*
X7512686Y15219500D01*
X7559133Y15192684D01*
X7616584Y15159514D01*
X7626814Y15153608D01*
X7754108Y15119500D01*
X7754110Y15119500D01*
X7885890Y15119500D01*
X7885892Y15119500D01*
X8013186Y15153608D01*
X8127314Y15219500D01*
X8220500Y15312686D01*
X8286392Y15426814D01*
X8320500Y15554108D01*
X8320500Y15685892D01*
X9859500Y15685892D01*
X9859500Y15554109D01*
X9893608Y15426813D01*
X9926554Y15369750D01*
X9959500Y15312686D01*
X10052686Y15219500D01*
X10099133Y15192684D01*
X10156584Y15159514D01*
X10166814Y15153608D01*
X10294108Y15119500D01*
X10294110Y15119500D01*
X10425890Y15119500D01*
X10425892Y15119500D01*
X10553186Y15153608D01*
X10667314Y15219500D01*
X10760500Y15312686D01*
X10826392Y15426814D01*
X10860500Y15554108D01*
X10860500Y15685892D01*
X12399500Y15685892D01*
X12399500Y15554109D01*
X12433608Y15426813D01*
X12466554Y15369750D01*
X12499500Y15312686D01*
X12592686Y15219500D01*
X12639133Y15192684D01*
X12696584Y15159514D01*
X12706814Y15153608D01*
X12834108Y15119500D01*
X12834110Y15119500D01*
X12965890Y15119500D01*
X12965892Y15119500D01*
X13093186Y15153608D01*
X13207314Y15219500D01*
X13300500Y15312686D01*
X13366392Y15426814D01*
X13400500Y15554108D01*
X13400500Y15556018D01*
X39662000Y15556018D01*
X39662000Y15443982D01*
X39689733Y15340483D01*
X39690997Y15335764D01*
X39690998Y15335761D01*
X39704322Y15312684D01*
X39747015Y15238737D01*
X39826237Y15159515D01*
X39923263Y15103497D01*
X40031482Y15074500D01*
X40031484Y15074500D01*
X40143516Y15074500D01*
X40143518Y15074500D01*
X40251737Y15103497D01*
X40348763Y15159515D01*
X40427985Y15238737D01*
X40484003Y15335763D01*
X40513000Y15443982D01*
X40513000Y15556018D01*
X40510354Y15565892D01*
X44999500Y15565892D01*
X44999500Y15434108D01*
X45016554Y15370461D01*
X45033608Y15306813D01*
X45035565Y15303424D01*
X45099500Y15192686D01*
X45192686Y15099500D01*
X45306814Y15033608D01*
X45434108Y14999500D01*
X45434110Y14999500D01*
X45565890Y14999500D01*
X45565892Y14999500D01*
X45693186Y15033608D01*
X45807314Y15099500D01*
X45900500Y15192686D01*
X45900504Y15192694D01*
X45901625Y15194153D01*
X45902892Y15195079D01*
X45906247Y15198433D01*
X45906770Y15197910D01*
X45958053Y15235355D01*
X46027799Y15239509D01*
X46088719Y15205296D01*
X46098375Y15194153D01*
X46099498Y15192689D01*
X46099500Y15192686D01*
X46192686Y15099500D01*
X46306814Y15033608D01*
X46434108Y14999500D01*
X46434110Y14999500D01*
X46565890Y14999500D01*
X46565892Y14999500D01*
X46693186Y15033608D01*
X46807314Y15099500D01*
X46900500Y15192686D01*
X46900504Y15192694D01*
X46901625Y15194153D01*
X46902892Y15195079D01*
X46906247Y15198433D01*
X46906770Y15197910D01*
X46958053Y15235355D01*
X47027799Y15239509D01*
X47088719Y15205296D01*
X47098375Y15194153D01*
X47099498Y15192689D01*
X47099500Y15192686D01*
X47192686Y15099500D01*
X47306814Y15033608D01*
X47434108Y14999500D01*
X47434110Y14999500D01*
X47565890Y14999500D01*
X47565892Y14999500D01*
X47693186Y15033608D01*
X47807314Y15099500D01*
X47900500Y15192686D01*
X47900504Y15192694D01*
X47901625Y15194153D01*
X47902892Y15195079D01*
X47906247Y15198433D01*
X47906770Y15197910D01*
X47958053Y15235355D01*
X48027799Y15239509D01*
X48088719Y15205296D01*
X48098375Y15194153D01*
X48099498Y15192689D01*
X48099500Y15192686D01*
X48192686Y15099500D01*
X48306814Y15033608D01*
X48434108Y14999500D01*
X48434110Y14999500D01*
X48565890Y14999500D01*
X48565892Y14999500D01*
X48693186Y15033608D01*
X48807314Y15099500D01*
X48900500Y15192686D01*
X48966392Y15306814D01*
X49000500Y15434108D01*
X49000500Y15565892D01*
X48966392Y15693186D01*
X48900500Y15807314D01*
X48807314Y15900500D01*
X48807311Y15900502D01*
X48805847Y15901625D01*
X48804921Y15902893D01*
X48801567Y15906247D01*
X48802090Y15906771D01*
X48764645Y15958053D01*
X48760491Y16027799D01*
X48794704Y16088719D01*
X48805847Y16098375D01*
X48807306Y16099496D01*
X48807314Y16099500D01*
X48900500Y16192686D01*
X48966392Y16306814D01*
X49000500Y16434108D01*
X49000500Y16565892D01*
X48966392Y16693186D01*
X48900500Y16807314D01*
X48807314Y16900500D01*
X48807311Y16900502D01*
X48805847Y16901625D01*
X48804921Y16902893D01*
X48801567Y16906247D01*
X48802090Y16906771D01*
X48764645Y16958053D01*
X48760491Y17027799D01*
X48794704Y17088719D01*
X48805847Y17098375D01*
X48807306Y17099496D01*
X48807314Y17099500D01*
X48900500Y17192686D01*
X48966392Y17306814D01*
X49000500Y17434108D01*
X49000500Y17565892D01*
X48966392Y17693186D01*
X48966148Y17693608D01*
X48928105Y17759500D01*
X48900500Y17807314D01*
X48807314Y17900500D01*
X48807311Y17900502D01*
X48805847Y17901625D01*
X48804921Y17902893D01*
X48801567Y17906247D01*
X48802090Y17906771D01*
X48764645Y17958053D01*
X48760491Y18027799D01*
X48794704Y18088719D01*
X48805847Y18098375D01*
X48807306Y18099496D01*
X48807314Y18099500D01*
X48900500Y18192686D01*
X48966392Y18306814D01*
X49000500Y18434108D01*
X49000500Y18565892D01*
X48966392Y18693186D01*
X48900500Y18807314D01*
X48807314Y18900500D01*
X48807311Y18900502D01*
X48805847Y18901625D01*
X48804921Y18902893D01*
X48801567Y18906247D01*
X48802090Y18906771D01*
X48764645Y18958053D01*
X48760491Y19027799D01*
X48794704Y19088719D01*
X48805847Y19098375D01*
X48807306Y19099496D01*
X48807314Y19099500D01*
X48900500Y19192686D01*
X48966392Y19306814D01*
X49000500Y19434108D01*
X49000500Y19565892D01*
X48966392Y19693186D01*
X48900500Y19807314D01*
X48807314Y19900500D01*
X48807311Y19900502D01*
X48805847Y19901625D01*
X48804921Y19902893D01*
X48801567Y19906247D01*
X48802090Y19906771D01*
X48764645Y19958053D01*
X48760491Y20027799D01*
X48794704Y20088719D01*
X48805847Y20098375D01*
X48807306Y20099496D01*
X48807314Y20099500D01*
X48900500Y20192686D01*
X48966392Y20306814D01*
X49000500Y20434108D01*
X49000500Y20565892D01*
X48966392Y20693186D01*
X48900500Y20807314D01*
X48807314Y20900500D01*
X48693186Y20966392D01*
X48583469Y20995791D01*
X48523810Y21032155D01*
X48495789Y21083472D01*
X48493948Y21090342D01*
X48466392Y21193186D01*
X48400500Y21307314D01*
X48307314Y21400500D01*
X48250250Y21433446D01*
X48193187Y21466392D01*
X48129539Y21483446D01*
X48065892Y21500500D01*
X47934108Y21500500D01*
X47806812Y21466392D01*
X47692686Y21400500D01*
X47692683Y21400498D01*
X47599502Y21307317D01*
X47599495Y21307308D01*
X47592198Y21294669D01*
X47541629Y21246456D01*
X47473021Y21233236D01*
X47422814Y21249287D01*
X47393189Y21266391D01*
X47393186Y21266392D01*
X47265892Y21300500D01*
X47134108Y21300500D01*
X47006812Y21266392D01*
X46892686Y21200500D01*
X46892683Y21200498D01*
X46799502Y21107317D01*
X46799500Y21107314D01*
X46733608Y20993188D01*
X46706814Y20893189D01*
X46699500Y20865892D01*
X46699500Y20734108D01*
X46707576Y20703968D01*
X46733608Y20606813D01*
X46760382Y20560440D01*
X46799500Y20492686D01*
X46892686Y20399500D01*
X46982934Y20347395D01*
X47005679Y20334263D01*
X47006814Y20333608D01*
X47134108Y20299500D01*
X47134110Y20299500D01*
X47265890Y20299500D01*
X47265892Y20299500D01*
X47393186Y20333608D01*
X47507314Y20399500D01*
X47600500Y20492686D01*
X47607798Y20505328D01*
X47658364Y20553542D01*
X47726971Y20566766D01*
X47755935Y20560440D01*
X47767020Y20556583D01*
X47806814Y20533608D01*
X47920911Y20503036D01*
X47925185Y20501549D01*
X47950073Y20483765D01*
X47976189Y20467846D01*
X47978645Y20463347D01*
X47982032Y20460927D01*
X47987605Y20446940D01*
X48004209Y20416531D01*
X48033608Y20306814D01*
X48099500Y20192686D01*
X48099502Y20192684D01*
X48192687Y20099499D01*
X48194158Y20098370D01*
X48195083Y20097103D01*
X48198433Y20093753D01*
X48197910Y20093231D01*
X48235356Y20041940D01*
X48239506Y19972193D01*
X48205289Y19911275D01*
X48194158Y19901630D01*
X48192687Y19900502D01*
X48099502Y19807317D01*
X48099500Y19807314D01*
X48033608Y19693188D01*
X47999500Y19565892D01*
X47999500Y19434109D01*
X48033608Y19306813D01*
X48038013Y19299184D01*
X48099500Y19192686D01*
X48099502Y19192684D01*
X48192687Y19099499D01*
X48194158Y19098370D01*
X48195083Y19097103D01*
X48198433Y19093753D01*
X48197910Y19093231D01*
X48235356Y19041940D01*
X48239506Y18972193D01*
X48205289Y18911275D01*
X48194158Y18901630D01*
X48192687Y18900502D01*
X48099502Y18807317D01*
X48099500Y18807314D01*
X48033608Y18693188D01*
X47999500Y18565892D01*
X47999500Y18434109D01*
X48033608Y18306813D01*
X48066554Y18249750D01*
X48099500Y18192686D01*
X48099502Y18192684D01*
X48192687Y18099499D01*
X48194158Y18098370D01*
X48195083Y18097103D01*
X48198433Y18093753D01*
X48197910Y18093231D01*
X48235356Y18041940D01*
X48239506Y17972193D01*
X48205289Y17911275D01*
X48194158Y17901630D01*
X48192687Y17900502D01*
X48099502Y17807317D01*
X48099500Y17807314D01*
X48033608Y17693188D01*
X47999500Y17565892D01*
X47999500Y17434109D01*
X48033608Y17306813D01*
X48066554Y17249750D01*
X48099500Y17192686D01*
X48099502Y17192684D01*
X48192687Y17099499D01*
X48194158Y17098370D01*
X48195083Y17097103D01*
X48198433Y17093753D01*
X48197910Y17093231D01*
X48235356Y17041940D01*
X48239506Y16972193D01*
X48205289Y16911275D01*
X48194158Y16901630D01*
X48192687Y16900502D01*
X48099502Y16807317D01*
X48099500Y16807314D01*
X48033608Y16693188D01*
X47999500Y16565892D01*
X47999500Y16434109D01*
X48033608Y16306813D01*
X48066554Y16249750D01*
X48099500Y16192686D01*
X48099502Y16192684D01*
X48192687Y16099499D01*
X48194158Y16098370D01*
X48195083Y16097103D01*
X48198433Y16093753D01*
X48197910Y16093231D01*
X48204241Y16084558D01*
X48217931Y16074310D01*
X48224414Y16056927D01*
X48235356Y16041940D01*
X48236371Y16024869D01*
X48242348Y16008846D01*
X48238403Y15990716D01*
X48239506Y15972193D01*
X48231055Y15956935D01*
X48227496Y15940573D01*
X48211909Y15922366D01*
X48206345Y15912319D01*
X48197039Y15903014D01*
X48192686Y15900500D01*
X48099500Y15807314D01*
X48096986Y15802961D01*
X48087681Y15793655D01*
X48063862Y15780650D01*
X48041940Y15764644D01*
X48033647Y15764151D01*
X48026358Y15760170D01*
X47999285Y15762107D01*
X47972193Y15760494D01*
X47964951Y15764562D01*
X47956666Y15765154D01*
X47934938Y15781420D01*
X47911275Y15794711D01*
X47901630Y15805842D01*
X47900501Y15807313D01*
X47807316Y15900498D01*
X47807314Y15900500D01*
X47737906Y15940573D01*
X47693187Y15966392D01*
X47629539Y15983446D01*
X47565892Y16000500D01*
X47434108Y16000500D01*
X47306812Y15966392D01*
X47192686Y15900500D01*
X47192683Y15900498D01*
X47099498Y15807313D01*
X47098370Y15805842D01*
X47097102Y15804917D01*
X47093753Y15801567D01*
X47093230Y15802090D01*
X47041940Y15764644D01*
X46972193Y15760494D01*
X46911275Y15794711D01*
X46901630Y15805842D01*
X46900501Y15807313D01*
X46807316Y15900498D01*
X46807314Y15900500D01*
X46737906Y15940573D01*
X46693187Y15966392D01*
X46629539Y15983446D01*
X46565892Y16000500D01*
X46434108Y16000500D01*
X46306812Y15966392D01*
X46192686Y15900500D01*
X46192683Y15900498D01*
X46099498Y15807313D01*
X46098370Y15805842D01*
X46097102Y15804917D01*
X46093753Y15801567D01*
X46093230Y15802090D01*
X46041940Y15764644D01*
X45972193Y15760494D01*
X45911275Y15794711D01*
X45901630Y15805842D01*
X45900501Y15807313D01*
X45807316Y15900498D01*
X45807314Y15900500D01*
X45737906Y15940573D01*
X45693187Y15966392D01*
X45629539Y15983446D01*
X45565892Y16000500D01*
X45434108Y16000500D01*
X45306812Y15966392D01*
X45192686Y15900500D01*
X45192683Y15900498D01*
X45099502Y15807317D01*
X45099500Y15807314D01*
X45033608Y15693188D01*
X45031653Y15685890D01*
X44999500Y15565892D01*
X40510354Y15565892D01*
X40484003Y15664237D01*
X40427985Y15761263D01*
X40348763Y15840485D01*
X40251737Y15896503D01*
X40143518Y15925500D01*
X40031482Y15925500D01*
X39923263Y15896503D01*
X39923260Y15896502D01*
X39826240Y15840487D01*
X39826234Y15840483D01*
X39747017Y15761266D01*
X39747013Y15761260D01*
X39690998Y15664240D01*
X39690997Y15664237D01*
X39662000Y15556018D01*
X13400500Y15556018D01*
X13400500Y15685892D01*
X13366392Y15813186D01*
X13300500Y15927314D01*
X13207314Y16020500D01*
X13114113Y16074310D01*
X13093187Y16086392D01*
X13029539Y16103446D01*
X12965892Y16120500D01*
X12834108Y16120500D01*
X12706812Y16086392D01*
X12592686Y16020500D01*
X12592683Y16020498D01*
X12499502Y15927317D01*
X12499500Y15927314D01*
X12433608Y15813188D01*
X12399500Y15685892D01*
X10860500Y15685892D01*
X10826392Y15813186D01*
X10760500Y15927314D01*
X10667314Y16020500D01*
X10574113Y16074310D01*
X10553187Y16086392D01*
X10489539Y16103446D01*
X10425892Y16120500D01*
X10294108Y16120500D01*
X10166812Y16086392D01*
X10052686Y16020500D01*
X10052683Y16020498D01*
X9959502Y15927317D01*
X9959500Y15927314D01*
X9893608Y15813188D01*
X9859500Y15685892D01*
X8320500Y15685892D01*
X8286392Y15813186D01*
X8220500Y15927314D01*
X8127314Y16020500D01*
X8034113Y16074310D01*
X8013187Y16086392D01*
X7949539Y16103446D01*
X7885892Y16120500D01*
X7754108Y16120500D01*
X7626812Y16086392D01*
X7512686Y16020500D01*
X7512683Y16020498D01*
X7419502Y15927317D01*
X7419500Y15927314D01*
X7353608Y15813188D01*
X7319500Y15685892D01*
X5780500Y15685892D01*
X5746392Y15813186D01*
X5680500Y15927314D01*
X5587314Y16020500D01*
X5494113Y16074310D01*
X5473187Y16086392D01*
X5409539Y16103446D01*
X5345892Y16120500D01*
X5214108Y16120500D01*
X5086812Y16086392D01*
X4972686Y16020500D01*
X4972683Y16020498D01*
X4879502Y15927317D01*
X4879500Y15927314D01*
X4813608Y15813188D01*
X4779500Y15685892D01*
X3240500Y15685892D01*
X3206392Y15813186D01*
X3140500Y15927314D01*
X3047314Y16020500D01*
X2954113Y16074310D01*
X2933187Y16086392D01*
X2869539Y16103446D01*
X2805892Y16120500D01*
X2674108Y16120500D01*
X2546812Y16086392D01*
X2432686Y16020500D01*
X2432683Y16020498D01*
X2339502Y15927317D01*
X2339500Y15927314D01*
X2273608Y15813188D01*
X2239500Y15685892D01*
X1000500Y15685892D01*
X1000500Y17435929D01*
X17349499Y17435929D01*
X17374497Y17310262D01*
X17374499Y17310256D01*
X17423533Y17191876D01*
X17423538Y17191867D01*
X17494723Y17085332D01*
X17494726Y17085328D01*
X17585327Y16994727D01*
X17585331Y16994724D01*
X17691866Y16923539D01*
X17691872Y16923536D01*
X17691873Y16923535D01*
X17810256Y16874499D01*
X17810260Y16874499D01*
X17810261Y16874498D01*
X17935928Y16849500D01*
X17935931Y16849500D01*
X18064071Y16849500D01*
X18148615Y16866318D01*
X18189744Y16874499D01*
X18308127Y16923535D01*
X18414669Y16994724D01*
X18505276Y17085331D01*
X18576465Y17191873D01*
X18625501Y17310256D01*
X18633682Y17351385D01*
X18650500Y17435929D01*
X18650500Y17564072D01*
X18625502Y17689739D01*
X18625501Y17689740D01*
X18625501Y17689744D01*
X18576465Y17808127D01*
X18576464Y17808128D01*
X18576461Y17808134D01*
X18505276Y17914669D01*
X18505273Y17914673D01*
X18414672Y18005274D01*
X18414668Y18005277D01*
X18308133Y18076462D01*
X18308124Y18076467D01*
X18189744Y18125501D01*
X18189738Y18125503D01*
X18064071Y18150500D01*
X18064069Y18150500D01*
X17935931Y18150500D01*
X17935929Y18150500D01*
X17810261Y18125503D01*
X17810255Y18125501D01*
X17691875Y18076467D01*
X17691866Y18076462D01*
X17585331Y18005277D01*
X17585327Y18005274D01*
X17494726Y17914673D01*
X17494723Y17914669D01*
X17423538Y17808134D01*
X17423533Y17808125D01*
X17374499Y17689745D01*
X17374497Y17689739D01*
X17349500Y17564072D01*
X17349500Y17564069D01*
X17349500Y17435931D01*
X17349500Y17435929D01*
X17349499Y17435929D01*
X1000500Y17435929D01*
X1000500Y18225892D01*
X2239500Y18225892D01*
X2239500Y18094108D01*
X2244228Y18076462D01*
X2273608Y17966813D01*
X2278666Y17958053D01*
X2339500Y17852686D01*
X2432686Y17759500D01*
X2546814Y17693608D01*
X2674108Y17659500D01*
X2674110Y17659500D01*
X2805890Y17659500D01*
X2805892Y17659500D01*
X2933186Y17693608D01*
X3047314Y17759500D01*
X3140500Y17852686D01*
X3206392Y17966814D01*
X3240500Y18094108D01*
X3240500Y18225892D01*
X4779500Y18225892D01*
X4779500Y18094108D01*
X4784228Y18076462D01*
X4813608Y17966813D01*
X4818666Y17958053D01*
X4879500Y17852686D01*
X4972686Y17759500D01*
X5086814Y17693608D01*
X5214108Y17659500D01*
X5214110Y17659500D01*
X5345890Y17659500D01*
X5345892Y17659500D01*
X5473186Y17693608D01*
X5587314Y17759500D01*
X5680500Y17852686D01*
X5746392Y17966814D01*
X5780500Y18094108D01*
X5780500Y18225892D01*
X7319500Y18225892D01*
X7319500Y18094108D01*
X7324228Y18076462D01*
X7353608Y17966813D01*
X7358666Y17958053D01*
X7419500Y17852686D01*
X7512686Y17759500D01*
X7626814Y17693608D01*
X7754108Y17659500D01*
X7754110Y17659500D01*
X7885890Y17659500D01*
X7885892Y17659500D01*
X8013186Y17693608D01*
X8127314Y17759500D01*
X8220500Y17852686D01*
X8286392Y17966814D01*
X8320500Y18094108D01*
X8320500Y18225892D01*
X9859500Y18225892D01*
X9859500Y18094108D01*
X9864228Y18076462D01*
X9893608Y17966813D01*
X9898666Y17958053D01*
X9959500Y17852686D01*
X10052686Y17759500D01*
X10166814Y17693608D01*
X10294108Y17659500D01*
X10294110Y17659500D01*
X10425890Y17659500D01*
X10425892Y17659500D01*
X10553186Y17693608D01*
X10667314Y17759500D01*
X10760500Y17852686D01*
X10826392Y17966814D01*
X10860500Y18094108D01*
X10860500Y18225892D01*
X12399500Y18225892D01*
X12399500Y18094108D01*
X12404228Y18076462D01*
X12433608Y17966813D01*
X12438666Y17958053D01*
X12499500Y17852686D01*
X12592686Y17759500D01*
X12706814Y17693608D01*
X12834108Y17659500D01*
X12834110Y17659500D01*
X12965890Y17659500D01*
X12965892Y17659500D01*
X13093186Y17693608D01*
X13207314Y17759500D01*
X13300500Y17852686D01*
X13366392Y17966814D01*
X13400500Y18094108D01*
X13400500Y18225892D01*
X13366392Y18353186D01*
X13300500Y18467314D01*
X13207314Y18560500D01*
X13150250Y18593446D01*
X13093187Y18626392D01*
X13029539Y18643446D01*
X12965892Y18660500D01*
X12834108Y18660500D01*
X12706812Y18626392D01*
X12592686Y18560500D01*
X12592683Y18560498D01*
X12499502Y18467317D01*
X12499500Y18467314D01*
X12433608Y18353188D01*
X12399500Y18225892D01*
X10860500Y18225892D01*
X10826392Y18353186D01*
X10760500Y18467314D01*
X10667314Y18560500D01*
X10610250Y18593446D01*
X10553187Y18626392D01*
X10489539Y18643446D01*
X10425892Y18660500D01*
X10294108Y18660500D01*
X10166812Y18626392D01*
X10052686Y18560500D01*
X10052683Y18560498D01*
X9959502Y18467317D01*
X9959500Y18467314D01*
X9893608Y18353188D01*
X9859500Y18225892D01*
X8320500Y18225892D01*
X8286392Y18353186D01*
X8220500Y18467314D01*
X8127314Y18560500D01*
X8070250Y18593446D01*
X8013187Y18626392D01*
X7949539Y18643446D01*
X7885892Y18660500D01*
X7754108Y18660500D01*
X7626812Y18626392D01*
X7512686Y18560500D01*
X7512683Y18560498D01*
X7419502Y18467317D01*
X7419500Y18467314D01*
X7353608Y18353188D01*
X7319500Y18225892D01*
X5780500Y18225892D01*
X5746392Y18353186D01*
X5680500Y18467314D01*
X5587314Y18560500D01*
X5530250Y18593446D01*
X5473187Y18626392D01*
X5409539Y18643446D01*
X5345892Y18660500D01*
X5214108Y18660500D01*
X5086812Y18626392D01*
X4972686Y18560500D01*
X4972683Y18560498D01*
X4879502Y18467317D01*
X4879500Y18467314D01*
X4813608Y18353188D01*
X4779500Y18225892D01*
X3240500Y18225892D01*
X3206392Y18353186D01*
X3140500Y18467314D01*
X3047314Y18560500D01*
X2990250Y18593446D01*
X2933187Y18626392D01*
X2869539Y18643446D01*
X2805892Y18660500D01*
X2674108Y18660500D01*
X2546812Y18626392D01*
X2432686Y18560500D01*
X2432683Y18560498D01*
X2339502Y18467317D01*
X2339500Y18467314D01*
X2273608Y18353188D01*
X2239500Y18225892D01*
X1000500Y18225892D01*
X1000500Y19935929D01*
X36849499Y19935929D01*
X36874497Y19810262D01*
X36874499Y19810256D01*
X36923533Y19691876D01*
X36923538Y19691867D01*
X36994723Y19585332D01*
X36994726Y19585328D01*
X37085327Y19494727D01*
X37085331Y19494724D01*
X37191866Y19423539D01*
X37191872Y19423536D01*
X37191873Y19423535D01*
X37310256Y19374499D01*
X37310260Y19374499D01*
X37310261Y19374498D01*
X37435928Y19349500D01*
X37435931Y19349500D01*
X37564071Y19349500D01*
X37673315Y19371231D01*
X37689744Y19374499D01*
X37808127Y19423535D01*
X37914669Y19494724D01*
X38005276Y19585331D01*
X38076465Y19691873D01*
X38125501Y19810256D01*
X38133682Y19851385D01*
X38150500Y19935929D01*
X38150500Y20064072D01*
X38125502Y20189739D01*
X38125501Y20189740D01*
X38125501Y20189744D01*
X38087574Y20281308D01*
X38076466Y20308125D01*
X38076461Y20308134D01*
X38024744Y20385534D01*
X38005276Y20414669D01*
X38005273Y20414673D01*
X37973648Y20446298D01*
X42056007Y20446298D01*
X42056007Y20334262D01*
X42085004Y20226043D01*
X42141022Y20129017D01*
X42220244Y20049795D01*
X42317270Y19993777D01*
X42425489Y19964780D01*
X42425491Y19964780D01*
X42537523Y19964780D01*
X42537525Y19964780D01*
X42645744Y19993777D01*
X42742770Y20049795D01*
X42821992Y20129017D01*
X42878010Y20226043D01*
X42907007Y20334262D01*
X42907007Y20446298D01*
X42878010Y20554517D01*
X42821992Y20651543D01*
X42742770Y20730765D01*
X42655556Y20781118D01*
X42645746Y20786782D01*
X42645745Y20786783D01*
X42645744Y20786783D01*
X42537525Y20815780D01*
X42425489Y20815780D01*
X42317270Y20786783D01*
X42317267Y20786782D01*
X42220247Y20730767D01*
X42220241Y20730763D01*
X42141024Y20651546D01*
X42141020Y20651540D01*
X42085005Y20554520D01*
X42085004Y20554517D01*
X42056007Y20446298D01*
X37973648Y20446298D01*
X37914672Y20505274D01*
X37914668Y20505277D01*
X37808133Y20576462D01*
X37808124Y20576467D01*
X37689744Y20625501D01*
X37689738Y20625503D01*
X37564071Y20650500D01*
X37564069Y20650500D01*
X37435931Y20650500D01*
X37435929Y20650500D01*
X37310261Y20625503D01*
X37310255Y20625501D01*
X37191875Y20576467D01*
X37191866Y20576462D01*
X37085331Y20505277D01*
X37085327Y20505274D01*
X36994726Y20414673D01*
X36994723Y20414669D01*
X36923538Y20308134D01*
X36923533Y20308125D01*
X36874499Y20189745D01*
X36874497Y20189739D01*
X36849500Y20064072D01*
X36849500Y20064069D01*
X36849500Y19935931D01*
X36849500Y19935929D01*
X36849499Y19935929D01*
X1000500Y19935929D01*
X1000500Y20765892D01*
X2239500Y20765892D01*
X2239500Y20634108D01*
X2251362Y20589838D01*
X2273608Y20506813D01*
X2281766Y20492684D01*
X2339500Y20392686D01*
X2432686Y20299500D01*
X2546814Y20233608D01*
X2674108Y20199500D01*
X2674110Y20199500D01*
X2805890Y20199500D01*
X2805892Y20199500D01*
X2933186Y20233608D01*
X3047314Y20299500D01*
X3140500Y20392686D01*
X3206392Y20506814D01*
X3240500Y20634108D01*
X3240500Y20765892D01*
X4779500Y20765892D01*
X4779500Y20634108D01*
X4791362Y20589838D01*
X4813608Y20506813D01*
X4821766Y20492684D01*
X4879500Y20392686D01*
X4972686Y20299500D01*
X5086814Y20233608D01*
X5214108Y20199500D01*
X5214110Y20199500D01*
X5345890Y20199500D01*
X5345892Y20199500D01*
X5473186Y20233608D01*
X5587314Y20299500D01*
X5680500Y20392686D01*
X5746392Y20506814D01*
X5780500Y20634108D01*
X5780500Y20765892D01*
X7319500Y20765892D01*
X7319500Y20634108D01*
X7331362Y20589838D01*
X7353608Y20506813D01*
X7361766Y20492684D01*
X7419500Y20392686D01*
X7512686Y20299500D01*
X7626814Y20233608D01*
X7754108Y20199500D01*
X7754110Y20199500D01*
X7885890Y20199500D01*
X7885892Y20199500D01*
X8013186Y20233608D01*
X8127314Y20299500D01*
X8220500Y20392686D01*
X8286392Y20506814D01*
X8320500Y20634108D01*
X8320500Y20765892D01*
X9859500Y20765892D01*
X9859500Y20634108D01*
X9871362Y20589838D01*
X9893608Y20506813D01*
X9901766Y20492684D01*
X9959500Y20392686D01*
X10052686Y20299500D01*
X10166814Y20233608D01*
X10294108Y20199500D01*
X10294110Y20199500D01*
X10425890Y20199500D01*
X10425892Y20199500D01*
X10553186Y20233608D01*
X10667314Y20299500D01*
X10760500Y20392686D01*
X10826392Y20506814D01*
X10860500Y20634108D01*
X10860500Y20765892D01*
X12399500Y20765892D01*
X12399500Y20634108D01*
X12411362Y20589838D01*
X12433608Y20506813D01*
X12441766Y20492684D01*
X12499500Y20392686D01*
X12592686Y20299500D01*
X12706814Y20233608D01*
X12834108Y20199500D01*
X12834110Y20199500D01*
X12965890Y20199500D01*
X12965892Y20199500D01*
X13093186Y20233608D01*
X13207314Y20299500D01*
X13300500Y20392686D01*
X13366392Y20506814D01*
X13400500Y20634108D01*
X13400500Y20765892D01*
X14939500Y20765892D01*
X14939500Y20634108D01*
X14951362Y20589838D01*
X14973608Y20506813D01*
X14981766Y20492684D01*
X15039500Y20392686D01*
X15132686Y20299500D01*
X15246814Y20233608D01*
X15374108Y20199500D01*
X15374110Y20199500D01*
X15505890Y20199500D01*
X15505892Y20199500D01*
X15633186Y20233608D01*
X15747314Y20299500D01*
X15840500Y20392686D01*
X15906392Y20506814D01*
X15940500Y20634108D01*
X15940500Y20765892D01*
X17479500Y20765892D01*
X17479500Y20634108D01*
X17491362Y20589838D01*
X17513608Y20506813D01*
X17521766Y20492684D01*
X17579500Y20392686D01*
X17672686Y20299500D01*
X17786814Y20233608D01*
X17914108Y20199500D01*
X17914110Y20199500D01*
X18045890Y20199500D01*
X18045892Y20199500D01*
X18173186Y20233608D01*
X18287314Y20299500D01*
X18380500Y20392686D01*
X18446392Y20506814D01*
X18480500Y20634108D01*
X18480500Y20765892D01*
X20019500Y20765892D01*
X20019500Y20634108D01*
X20031362Y20589838D01*
X20053608Y20506813D01*
X20061766Y20492684D01*
X20119500Y20392686D01*
X20212686Y20299500D01*
X20326814Y20233608D01*
X20454108Y20199500D01*
X20454110Y20199500D01*
X20585890Y20199500D01*
X20585892Y20199500D01*
X20713186Y20233608D01*
X20827314Y20299500D01*
X20920500Y20392686D01*
X20986392Y20506814D01*
X21020500Y20634108D01*
X21020500Y20765892D01*
X22559500Y20765892D01*
X22559500Y20634108D01*
X22571362Y20589838D01*
X22593608Y20506813D01*
X22601766Y20492684D01*
X22659500Y20392686D01*
X22752686Y20299500D01*
X22866814Y20233608D01*
X22994108Y20199500D01*
X22994110Y20199500D01*
X23125890Y20199500D01*
X23125892Y20199500D01*
X23253186Y20233608D01*
X23367314Y20299500D01*
X23460500Y20392686D01*
X23526392Y20506814D01*
X23560500Y20634108D01*
X23560500Y20765892D01*
X23526392Y20893186D01*
X23526391Y20893188D01*
X23526391Y20893189D01*
X23517163Y20909171D01*
X23517162Y20909173D01*
X23487336Y20960832D01*
X23486058Y20963046D01*
X45102346Y20963046D01*
X45102346Y20831262D01*
X45108762Y20807317D01*
X45136454Y20703967D01*
X45142679Y20693186D01*
X45202346Y20589840D01*
X45295532Y20496654D01*
X45394367Y20439591D01*
X45403864Y20434108D01*
X45409660Y20430762D01*
X45536954Y20396654D01*
X45536956Y20396654D01*
X45668736Y20396654D01*
X45668738Y20396654D01*
X45796032Y20430762D01*
X45910160Y20496654D01*
X46003346Y20589840D01*
X46069238Y20703968D01*
X46103346Y20831262D01*
X46103346Y20963046D01*
X46069238Y21090340D01*
X46003346Y21204468D01*
X45910160Y21297654D01*
X45853096Y21330600D01*
X45796033Y21363546D01*
X45732385Y21380600D01*
X45668738Y21397654D01*
X45536954Y21397654D01*
X45409658Y21363546D01*
X45295532Y21297654D01*
X45295529Y21297652D01*
X45202348Y21204471D01*
X45202346Y21204468D01*
X45136454Y21090342D01*
X45112382Y21000500D01*
X45102346Y20963046D01*
X23486058Y20963046D01*
X23460500Y21007314D01*
X23367314Y21100500D01*
X23310250Y21133446D01*
X23253187Y21166392D01*
X23153188Y21193186D01*
X23125892Y21200500D01*
X22994108Y21200500D01*
X22866812Y21166392D01*
X22752686Y21100500D01*
X22752683Y21100498D01*
X22659502Y21007317D01*
X22659500Y21007314D01*
X22593608Y20893188D01*
X22572867Y20815780D01*
X22559500Y20765892D01*
X21020500Y20765892D01*
X20986392Y20893186D01*
X20920500Y21007314D01*
X20827314Y21100500D01*
X20770250Y21133446D01*
X20713187Y21166392D01*
X20613188Y21193186D01*
X20585892Y21200500D01*
X20454108Y21200500D01*
X20326812Y21166392D01*
X20212686Y21100500D01*
X20212683Y21100498D01*
X20119502Y21007317D01*
X20119500Y21007314D01*
X20053608Y20893188D01*
X20032867Y20815780D01*
X20019500Y20765892D01*
X18480500Y20765892D01*
X18446392Y20893186D01*
X18380500Y21007314D01*
X18287314Y21100500D01*
X18230250Y21133446D01*
X18173187Y21166392D01*
X18073188Y21193186D01*
X18045892Y21200500D01*
X17914108Y21200500D01*
X17786812Y21166392D01*
X17672686Y21100500D01*
X17672683Y21100498D01*
X17579502Y21007317D01*
X17579500Y21007314D01*
X17513608Y20893188D01*
X17492867Y20815780D01*
X17479500Y20765892D01*
X15940500Y20765892D01*
X15906392Y20893186D01*
X15840500Y21007314D01*
X15747314Y21100500D01*
X15690250Y21133446D01*
X15633187Y21166392D01*
X15533188Y21193186D01*
X15505892Y21200500D01*
X15374108Y21200500D01*
X15246812Y21166392D01*
X15132686Y21100500D01*
X15132683Y21100498D01*
X15039502Y21007317D01*
X15039500Y21007314D01*
X14973608Y20893188D01*
X14952867Y20815780D01*
X14939500Y20765892D01*
X13400500Y20765892D01*
X13366392Y20893186D01*
X13300500Y21007314D01*
X13207314Y21100500D01*
X13150250Y21133446D01*
X13093187Y21166392D01*
X12993188Y21193186D01*
X12965892Y21200500D01*
X12834108Y21200500D01*
X12706812Y21166392D01*
X12592686Y21100500D01*
X12592683Y21100498D01*
X12499502Y21007317D01*
X12499500Y21007314D01*
X12433608Y20893188D01*
X12412867Y20815780D01*
X12399500Y20765892D01*
X10860500Y20765892D01*
X10826392Y20893186D01*
X10760500Y21007314D01*
X10667314Y21100500D01*
X10610250Y21133446D01*
X10553187Y21166392D01*
X10453188Y21193186D01*
X10425892Y21200500D01*
X10294108Y21200500D01*
X10166812Y21166392D01*
X10052686Y21100500D01*
X10052683Y21100498D01*
X9959502Y21007317D01*
X9959500Y21007314D01*
X9893608Y20893188D01*
X9872867Y20815780D01*
X9859500Y20765892D01*
X8320500Y20765892D01*
X8286392Y20893186D01*
X8220500Y21007314D01*
X8127314Y21100500D01*
X8070250Y21133446D01*
X8013187Y21166392D01*
X7913188Y21193186D01*
X7885892Y21200500D01*
X7754108Y21200500D01*
X7626812Y21166392D01*
X7512686Y21100500D01*
X7512683Y21100498D01*
X7419502Y21007317D01*
X7419500Y21007314D01*
X7353608Y20893188D01*
X7332867Y20815780D01*
X7319500Y20765892D01*
X5780500Y20765892D01*
X5746392Y20893186D01*
X5680500Y21007314D01*
X5587314Y21100500D01*
X5530250Y21133446D01*
X5473187Y21166392D01*
X5373188Y21193186D01*
X5345892Y21200500D01*
X5214108Y21200500D01*
X5086812Y21166392D01*
X4972686Y21100500D01*
X4972683Y21100498D01*
X4879502Y21007317D01*
X4879500Y21007314D01*
X4813608Y20893188D01*
X4792867Y20815780D01*
X4779500Y20765892D01*
X3240500Y20765892D01*
X3206392Y20893186D01*
X3140500Y21007314D01*
X3047314Y21100500D01*
X2990250Y21133446D01*
X2933187Y21166392D01*
X2833188Y21193186D01*
X2805892Y21200500D01*
X2674108Y21200500D01*
X2546812Y21166392D01*
X2432686Y21100500D01*
X2432683Y21100498D01*
X2339502Y21007317D01*
X2339500Y21007314D01*
X2273608Y20893188D01*
X2252867Y20815780D01*
X2239500Y20765892D01*
X1000500Y20765892D01*
X1000500Y22673205D01*
X42632313Y22673205D01*
X42632313Y22561170D01*
X42661310Y22452951D01*
X42661311Y22452948D01*
X42679982Y22420608D01*
X42717328Y22355924D01*
X42717330Y22355922D01*
X42780484Y22292768D01*
X42813969Y22231445D01*
X42808985Y22161753D01*
X42800197Y22143099D01*
X42799375Y22141677D01*
X42799372Y22141668D01*
X42770375Y22033449D01*
X42770375Y21921413D01*
X42799372Y21813194D01*
X42855390Y21716168D01*
X42934612Y21636946D01*
X43031638Y21580928D01*
X43139857Y21551931D01*
X43139859Y21551931D01*
X43251891Y21551931D01*
X43251893Y21551931D01*
X43360112Y21580928D01*
X43457138Y21636946D01*
X43536360Y21716168D01*
X43592378Y21813194D01*
X43621375Y21921413D01*
X43621375Y22033449D01*
X43592378Y22141668D01*
X43536360Y22238694D01*
X43473203Y22301851D01*
X43439718Y22363174D01*
X43444702Y22432866D01*
X43453499Y22451535D01*
X43454316Y22452950D01*
X43483313Y22561169D01*
X43483313Y22673205D01*
X43454316Y22781424D01*
X43398298Y22878450D01*
X43319076Y22957672D01*
X43222050Y23013690D01*
X43113831Y23042687D01*
X43001795Y23042687D01*
X42893576Y23013690D01*
X42893573Y23013689D01*
X42796553Y22957674D01*
X42796547Y22957670D01*
X42717330Y22878453D01*
X42717326Y22878447D01*
X42661311Y22781427D01*
X42661310Y22781424D01*
X42632313Y22673205D01*
X1000500Y22673205D01*
X1000500Y23305892D01*
X2239500Y23305892D01*
X2239500Y23174108D01*
X2252217Y23126646D01*
X2273608Y23046813D01*
X2276600Y23041631D01*
X2339500Y22932686D01*
X2432686Y22839500D01*
X2520641Y22788719D01*
X2546810Y22773610D01*
X2546814Y22773608D01*
X2674108Y22739500D01*
X2674110Y22739500D01*
X2805890Y22739500D01*
X2805892Y22739500D01*
X2933186Y22773608D01*
X3047314Y22839500D01*
X3140500Y22932686D01*
X3206392Y23046814D01*
X3240500Y23174108D01*
X3240500Y23305892D01*
X4779500Y23305892D01*
X4779500Y23174108D01*
X4792217Y23126646D01*
X4813608Y23046813D01*
X4816600Y23041631D01*
X4879500Y22932686D01*
X4972686Y22839500D01*
X5060641Y22788719D01*
X5086810Y22773610D01*
X5086814Y22773608D01*
X5214108Y22739500D01*
X5214110Y22739500D01*
X5345890Y22739500D01*
X5345892Y22739500D01*
X5473186Y22773608D01*
X5587314Y22839500D01*
X5680500Y22932686D01*
X5746392Y23046814D01*
X5780500Y23174108D01*
X5780500Y23305892D01*
X7319500Y23305892D01*
X7319500Y23174108D01*
X7332217Y23126646D01*
X7353608Y23046813D01*
X7356600Y23041631D01*
X7419500Y22932686D01*
X7512686Y22839500D01*
X7600641Y22788719D01*
X7626810Y22773610D01*
X7626814Y22773608D01*
X7754108Y22739500D01*
X7754110Y22739500D01*
X7885890Y22739500D01*
X7885892Y22739500D01*
X8013186Y22773608D01*
X8127314Y22839500D01*
X8220500Y22932686D01*
X8286392Y23046814D01*
X8320500Y23174108D01*
X8320500Y23305892D01*
X9859500Y23305892D01*
X9859500Y23174108D01*
X9872217Y23126646D01*
X9893608Y23046813D01*
X9896600Y23041631D01*
X9959500Y22932686D01*
X10052686Y22839500D01*
X10140641Y22788719D01*
X10166810Y22773610D01*
X10166814Y22773608D01*
X10294108Y22739500D01*
X10294110Y22739500D01*
X10425890Y22739500D01*
X10425892Y22739500D01*
X10553186Y22773608D01*
X10667314Y22839500D01*
X10760500Y22932686D01*
X10826392Y23046814D01*
X10860500Y23174108D01*
X10860500Y23305892D01*
X12399500Y23305892D01*
X12399500Y23174108D01*
X12412217Y23126646D01*
X12433608Y23046813D01*
X12436600Y23041631D01*
X12499500Y22932686D01*
X12592686Y22839500D01*
X12680641Y22788719D01*
X12706810Y22773610D01*
X12706814Y22773608D01*
X12834108Y22739500D01*
X12834110Y22739500D01*
X12965890Y22739500D01*
X12965892Y22739500D01*
X13093186Y22773608D01*
X13207314Y22839500D01*
X13300500Y22932686D01*
X13366392Y23046814D01*
X13400500Y23174108D01*
X13400500Y23305892D01*
X14939500Y23305892D01*
X14939500Y23174108D01*
X14952217Y23126646D01*
X14973608Y23046813D01*
X14976600Y23041631D01*
X15039500Y22932686D01*
X15132686Y22839500D01*
X15220641Y22788719D01*
X15246810Y22773610D01*
X15246814Y22773608D01*
X15374108Y22739500D01*
X15374110Y22739500D01*
X15505890Y22739500D01*
X15505892Y22739500D01*
X15633186Y22773608D01*
X15747314Y22839500D01*
X15840500Y22932686D01*
X15906392Y23046814D01*
X15940500Y23174108D01*
X15940500Y23305892D01*
X17479500Y23305892D01*
X17479500Y23174108D01*
X17492217Y23126646D01*
X17513608Y23046813D01*
X17516600Y23041631D01*
X17579500Y22932686D01*
X17672686Y22839500D01*
X17760641Y22788719D01*
X17786810Y22773610D01*
X17786814Y22773608D01*
X17914108Y22739500D01*
X17914110Y22739500D01*
X18045890Y22739500D01*
X18045892Y22739500D01*
X18173186Y22773608D01*
X18287314Y22839500D01*
X18380500Y22932686D01*
X18446392Y23046814D01*
X18480500Y23174108D01*
X18480500Y23305892D01*
X20019500Y23305892D01*
X20019500Y23174108D01*
X20032217Y23126646D01*
X20053608Y23046813D01*
X20056600Y23041631D01*
X20119500Y22932686D01*
X20212686Y22839500D01*
X20300641Y22788719D01*
X20326810Y22773610D01*
X20326814Y22773608D01*
X20454108Y22739500D01*
X20454110Y22739500D01*
X20585890Y22739500D01*
X20585892Y22739500D01*
X20713186Y22773608D01*
X20827314Y22839500D01*
X20920500Y22932686D01*
X20986392Y23046814D01*
X21020500Y23174108D01*
X21020500Y23305892D01*
X22559500Y23305892D01*
X22559500Y23174108D01*
X22572217Y23126646D01*
X22593608Y23046813D01*
X22596600Y23041631D01*
X22659500Y22932686D01*
X22752686Y22839500D01*
X22840641Y22788719D01*
X22866810Y22773610D01*
X22866814Y22773608D01*
X22994108Y22739500D01*
X22994110Y22739500D01*
X23125890Y22739500D01*
X23125892Y22739500D01*
X23253186Y22773608D01*
X23367314Y22839500D01*
X23460500Y22932686D01*
X23526392Y23046814D01*
X23560500Y23174108D01*
X23560500Y23305892D01*
X23526392Y23433186D01*
X23460500Y23547314D01*
X23367314Y23640500D01*
X23310250Y23673446D01*
X23253187Y23706392D01*
X23171084Y23728391D01*
X23125892Y23740500D01*
X22994108Y23740500D01*
X22866812Y23706392D01*
X22752686Y23640500D01*
X22752683Y23640498D01*
X22659502Y23547317D01*
X22659500Y23547314D01*
X22593608Y23433188D01*
X22576707Y23370110D01*
X22559500Y23305892D01*
X21020500Y23305892D01*
X20986392Y23433186D01*
X20920500Y23547314D01*
X20827314Y23640500D01*
X20770250Y23673446D01*
X20713187Y23706392D01*
X20631084Y23728391D01*
X20585892Y23740500D01*
X20454108Y23740500D01*
X20326812Y23706392D01*
X20212686Y23640500D01*
X20212683Y23640498D01*
X20119502Y23547317D01*
X20119500Y23547314D01*
X20053608Y23433188D01*
X20036707Y23370110D01*
X20019500Y23305892D01*
X18480500Y23305892D01*
X18446392Y23433186D01*
X18380500Y23547314D01*
X18287314Y23640500D01*
X18230250Y23673446D01*
X18173187Y23706392D01*
X18091084Y23728391D01*
X18045892Y23740500D01*
X17914108Y23740500D01*
X17786812Y23706392D01*
X17672686Y23640500D01*
X17672683Y23640498D01*
X17579502Y23547317D01*
X17579500Y23547314D01*
X17513608Y23433188D01*
X17496707Y23370110D01*
X17479500Y23305892D01*
X15940500Y23305892D01*
X15906392Y23433186D01*
X15840500Y23547314D01*
X15747314Y23640500D01*
X15690250Y23673446D01*
X15633187Y23706392D01*
X15551084Y23728391D01*
X15505892Y23740500D01*
X15374108Y23740500D01*
X15246812Y23706392D01*
X15132686Y23640500D01*
X15132683Y23640498D01*
X15039502Y23547317D01*
X15039500Y23547314D01*
X14973608Y23433188D01*
X14956707Y23370110D01*
X14939500Y23305892D01*
X13400500Y23305892D01*
X13366392Y23433186D01*
X13300500Y23547314D01*
X13207314Y23640500D01*
X13150250Y23673446D01*
X13093187Y23706392D01*
X13011084Y23728391D01*
X12965892Y23740500D01*
X12834108Y23740500D01*
X12706812Y23706392D01*
X12592686Y23640500D01*
X12592683Y23640498D01*
X12499502Y23547317D01*
X12499500Y23547314D01*
X12433608Y23433188D01*
X12416707Y23370110D01*
X12399500Y23305892D01*
X10860500Y23305892D01*
X10826392Y23433186D01*
X10760500Y23547314D01*
X10667314Y23640500D01*
X10610250Y23673446D01*
X10553187Y23706392D01*
X10471084Y23728391D01*
X10425892Y23740500D01*
X10294108Y23740500D01*
X10166812Y23706392D01*
X10052686Y23640500D01*
X10052683Y23640498D01*
X9959502Y23547317D01*
X9959500Y23547314D01*
X9893608Y23433188D01*
X9876707Y23370110D01*
X9859500Y23305892D01*
X8320500Y23305892D01*
X8286392Y23433186D01*
X8220500Y23547314D01*
X8127314Y23640500D01*
X8070250Y23673446D01*
X8013187Y23706392D01*
X7931084Y23728391D01*
X7885892Y23740500D01*
X7754108Y23740500D01*
X7626812Y23706392D01*
X7512686Y23640500D01*
X7512683Y23640498D01*
X7419502Y23547317D01*
X7419500Y23547314D01*
X7353608Y23433188D01*
X7336707Y23370110D01*
X7319500Y23305892D01*
X5780500Y23305892D01*
X5746392Y23433186D01*
X5680500Y23547314D01*
X5587314Y23640500D01*
X5530250Y23673446D01*
X5473187Y23706392D01*
X5391084Y23728391D01*
X5345892Y23740500D01*
X5214108Y23740500D01*
X5086812Y23706392D01*
X4972686Y23640500D01*
X4972683Y23640498D01*
X4879502Y23547317D01*
X4879500Y23547314D01*
X4813608Y23433188D01*
X4796707Y23370110D01*
X4779500Y23305892D01*
X3240500Y23305892D01*
X3206392Y23433186D01*
X3140500Y23547314D01*
X3047314Y23640500D01*
X2990250Y23673446D01*
X2933187Y23706392D01*
X2851084Y23728391D01*
X2805892Y23740500D01*
X2674108Y23740500D01*
X2546812Y23706392D01*
X2432686Y23640500D01*
X2432683Y23640498D01*
X2339502Y23547317D01*
X2339500Y23547314D01*
X2273608Y23433188D01*
X2256707Y23370110D01*
X2239500Y23305892D01*
X1000500Y23305892D01*
X1000500Y24279803D01*
X41213411Y24279803D01*
X41213411Y24148019D01*
X41222654Y24113524D01*
X41247519Y24020724D01*
X41280465Y23963661D01*
X41313411Y23906597D01*
X41406597Y23813411D01*
X41520725Y23747519D01*
X41648019Y23713411D01*
X41648021Y23713411D01*
X41779801Y23713411D01*
X41779803Y23713411D01*
X41907097Y23747519D01*
X42021225Y23813411D01*
X42114411Y23906597D01*
X42180303Y24020725D01*
X42205168Y24113524D01*
X42516994Y24113524D01*
X42516994Y24001488D01*
X42545991Y23893269D01*
X42602009Y23796243D01*
X42681231Y23717021D01*
X42778257Y23661003D01*
X42886476Y23632006D01*
X42886478Y23632006D01*
X42998510Y23632006D01*
X42998512Y23632006D01*
X43106731Y23661003D01*
X43203757Y23717021D01*
X43282979Y23796243D01*
X43338997Y23893269D01*
X43367152Y23998348D01*
X43399241Y24053928D01*
X43614938Y24269626D01*
X43676261Y24303110D01*
X43745953Y24298126D01*
X43801886Y24256254D01*
X43807383Y24247920D01*
X43808704Y24246199D01*
X43808706Y24246196D01*
X43887928Y24166974D01*
X43984954Y24110956D01*
X44093173Y24081959D01*
X44093175Y24081959D01*
X44205207Y24081959D01*
X44205209Y24081959D01*
X44313428Y24110956D01*
X44407634Y24165347D01*
X44469634Y24181959D01*
X45968433Y24181959D01*
X45997873Y24173315D01*
X46027860Y24166791D01*
X46032875Y24163037D01*
X46035472Y24162274D01*
X46056114Y24145640D01*
X46192656Y24009098D01*
X46226141Y23947775D01*
X46221157Y23878083D01*
X46179285Y23822150D01*
X46166981Y23814033D01*
X46155871Y23807619D01*
X46155865Y23807614D01*
X46076648Y23728397D01*
X46076644Y23728391D01*
X46020629Y23631371D01*
X46020628Y23631368D01*
X45991631Y23523149D01*
X45991631Y23411113D01*
X46020628Y23302894D01*
X46076646Y23205868D01*
X46155868Y23126646D01*
X46252894Y23070628D01*
X46361113Y23041631D01*
X46361115Y23041631D01*
X46473147Y23041631D01*
X46473149Y23041631D01*
X46581368Y23070628D01*
X46678394Y23126646D01*
X46757616Y23205868D01*
X46764029Y23216977D01*
X46814595Y23265191D01*
X46883202Y23278415D01*
X46948067Y23252447D01*
X46959097Y23242657D01*
X63049257Y7152497D01*
X63082742Y7091174D01*
X63077758Y7021482D01*
X63035886Y6965549D01*
X63009029Y6950255D01*
X62962404Y6930943D01*
X62790342Y6815976D01*
X62644024Y6669658D01*
X62529057Y6497597D01*
X62460835Y6332892D01*
X62416994Y6278489D01*
X62350700Y6256424D01*
X62283000Y6273703D01*
X62235390Y6324841D01*
X62228343Y6342027D01*
X62171095Y6518218D01*
X62074620Y6707558D01*
X61949727Y6879460D01*
X61949723Y6879465D01*
X61799464Y7029724D01*
X61799459Y7029728D01*
X61627557Y7154621D01*
X61438215Y7251097D01*
X61236124Y7316759D01*
X61170000Y7327232D01*
X61170000Y6433012D01*
X61112993Y6465925D01*
X60985826Y6500000D01*
X60854174Y6500000D01*
X60727007Y6465925D01*
X60670000Y6433012D01*
X60670000Y7327232D01*
X60669999Y7327232D01*
X60603875Y7316759D01*
X60401784Y7251097D01*
X60212442Y7154621D01*
X60040540Y7029728D01*
X60040535Y7029724D01*
X59890276Y6879465D01*
X59890272Y6879460D01*
X59765379Y6707558D01*
X59668904Y6518218D01*
X59603242Y6316130D01*
X59603242Y6316127D01*
X59592769Y6250000D01*
X60486988Y6250000D01*
X60454075Y6192993D01*
X60420000Y6065826D01*
X60420000Y5934174D01*
X60454075Y5807007D01*
X60486988Y5750000D01*
X59592769Y5750000D01*
X59603242Y5683874D01*
X59603242Y5683871D01*
X59668904Y5481783D01*
X59765379Y5292443D01*
X59890272Y5120541D01*
X59890276Y5120536D01*
X60040535Y4970277D01*
X60040540Y4970273D01*
X60212442Y4845380D01*
X60401782Y4748905D01*
X60603871Y4683243D01*
X60670000Y4672769D01*
X60670000Y5566988D01*
X60727007Y5534075D01*
X60854174Y5500000D01*
X60985826Y5500000D01*
X61112993Y5534075D01*
X61170000Y5566988D01*
X61170000Y4672770D01*
X61236126Y4683243D01*
X61236129Y4683243D01*
X61438217Y4748905D01*
X61627557Y4845380D01*
X61799459Y4970273D01*
X61799464Y4970277D01*
X61949723Y5120536D01*
X61949727Y5120541D01*
X62074620Y5292443D01*
X62171095Y5481783D01*
X62228343Y5657974D01*
X62267780Y5715649D01*
X62332139Y5742848D01*
X62400985Y5730934D01*
X62452461Y5683690D01*
X62460833Y5667113D01*
X62481042Y5618325D01*
X62529058Y5502404D01*
X62644024Y5330343D01*
X62790342Y5184025D01*
X62790345Y5184023D01*
X62962402Y5069059D01*
X63153580Y4989870D01*
X63298052Y4961133D01*
X63356530Y4949501D01*
X63356534Y4949500D01*
X63356535Y4949500D01*
X63563466Y4949500D01*
X63563467Y4949501D01*
X63766420Y4989870D01*
X63957598Y5069059D01*
X64129655Y5184023D01*
X64275977Y5330345D01*
X64390941Y5502402D01*
X64470130Y5693580D01*
X64510500Y5896535D01*
X64510500Y6103465D01*
X64470130Y6306420D01*
X64390941Y6497598D01*
X64275977Y6669655D01*
X64275975Y6669658D01*
X64129657Y6815976D01*
X63957596Y6930943D01*
X63862047Y6970520D01*
X63807644Y7014361D01*
X63785579Y7080655D01*
X63785500Y7085081D01*
X63785500Y7244932D01*
X63785500Y7244934D01*
X63763318Y7327719D01*
X63763318Y7327720D01*
X63720465Y7401943D01*
X46354484Y24767924D01*
X46317372Y24789351D01*
X46280262Y24810777D01*
X46238868Y24821868D01*
X46197475Y24832959D01*
X46197474Y24832959D01*
X45603671Y24832959D01*
X45536632Y24852644D01*
X45490877Y24905448D01*
X45480933Y24974606D01*
X45496284Y25018960D01*
X45500010Y25025413D01*
X45518718Y25057816D01*
X45552826Y25185110D01*
X45552826Y25316894D01*
X45532056Y25394410D01*
X45533719Y25464259D01*
X45572882Y25522121D01*
X45637110Y25549625D01*
X45651831Y25550502D01*
X45937809Y25550502D01*
X46004848Y25530817D01*
X46025490Y25514183D01*
X55519175Y16020498D01*
X65002568Y6537106D01*
X65036053Y6475783D01*
X65031069Y6406091D01*
X65029449Y6401974D01*
X65006020Y6345412D01*
X64989871Y6306421D01*
X64989869Y6306417D01*
X64989867Y6306413D01*
X64949500Y6103470D01*
X64949500Y5896531D01*
X64989868Y5693588D01*
X64989870Y5693580D01*
X65069058Y5502404D01*
X65184024Y5330343D01*
X65330342Y5184025D01*
X65330345Y5184023D01*
X65502402Y5069059D01*
X65693580Y4989870D01*
X65838052Y4961133D01*
X65896530Y4949501D01*
X65896534Y4949500D01*
X65896535Y4949500D01*
X66103466Y4949500D01*
X66103467Y4949501D01*
X66306420Y4989870D01*
X66497598Y5069059D01*
X66669655Y5184023D01*
X66815977Y5330345D01*
X66930941Y5502402D01*
X67010130Y5693580D01*
X67050500Y5896535D01*
X67050500Y6103465D01*
X67010130Y6306420D01*
X66930941Y6497598D01*
X66815977Y6669655D01*
X66815975Y6669658D01*
X66669657Y6815976D01*
X66501655Y6928230D01*
X66497598Y6930941D01*
X66497593Y6930943D01*
X66306420Y7010130D01*
X66306412Y7010132D01*
X66103469Y7050500D01*
X66103465Y7050500D01*
X65896535Y7050500D01*
X65896530Y7050500D01*
X65693587Y7010133D01*
X65693583Y7010131D01*
X65693581Y7010131D01*
X65693580Y7010130D01*
X65662924Y6997432D01*
X65598026Y6970551D01*
X65528557Y6963083D01*
X65466078Y6994359D01*
X65462894Y6997432D01*
X53372508Y19087819D01*
X53339023Y19149142D01*
X53344007Y19218834D01*
X53385879Y19274767D01*
X53451343Y19299184D01*
X53460189Y19299500D01*
X53594486Y19299500D01*
X53781118Y19329060D01*
X53844025Y19349500D01*
X53960832Y19387453D01*
X54129199Y19473240D01*
X54282073Y19584310D01*
X54415690Y19717927D01*
X54526760Y19870801D01*
X54612547Y20039168D01*
X54670940Y20218882D01*
X54673272Y20233608D01*
X54700500Y20405514D01*
X54700500Y20594487D01*
X58799500Y20594487D01*
X58799500Y20405514D01*
X58829059Y20218882D01*
X58887454Y20039164D01*
X58973240Y19870801D01*
X59084310Y19717927D01*
X59217927Y19584310D01*
X59370801Y19473240D01*
X59447598Y19434110D01*
X59539163Y19387455D01*
X59539165Y19387455D01*
X59539168Y19387453D01*
X59589094Y19371231D01*
X59718881Y19329060D01*
X59905514Y19299500D01*
X59905519Y19299500D01*
X60094486Y19299500D01*
X60281118Y19329060D01*
X60344025Y19349500D01*
X60460832Y19387453D01*
X60629199Y19473240D01*
X60782073Y19584310D01*
X60915690Y19717927D01*
X61026760Y19870801D01*
X61112547Y20039168D01*
X61170940Y20218882D01*
X61173272Y20233608D01*
X61200500Y20405514D01*
X61200500Y20594487D01*
X61170940Y20781119D01*
X61112545Y20960837D01*
X61050059Y21083472D01*
X61026760Y21129199D01*
X60915690Y21282073D01*
X60782073Y21415690D01*
X60629199Y21526760D01*
X60460836Y21612546D01*
X60281118Y21670941D01*
X60094486Y21700500D01*
X60094481Y21700500D01*
X59905519Y21700500D01*
X59905514Y21700500D01*
X59718881Y21670941D01*
X59539163Y21612546D01*
X59370800Y21526760D01*
X59334657Y21500500D01*
X59217927Y21415690D01*
X59217925Y21415688D01*
X59217924Y21415688D01*
X59084312Y21282076D01*
X59084312Y21282075D01*
X59084310Y21282073D01*
X59058433Y21246456D01*
X58973240Y21129200D01*
X58887454Y20960837D01*
X58829059Y20781119D01*
X58799500Y20594487D01*
X54700500Y20594487D01*
X54670940Y20781119D01*
X54612545Y20960837D01*
X54550059Y21083472D01*
X54526760Y21129199D01*
X54415690Y21282073D01*
X54282073Y21415690D01*
X54129199Y21526760D01*
X53960836Y21612546D01*
X53781118Y21670941D01*
X53594486Y21700500D01*
X53594481Y21700500D01*
X53405519Y21700500D01*
X53405514Y21700500D01*
X53218881Y21670941D01*
X53039163Y21612546D01*
X52870800Y21526760D01*
X52834657Y21500500D01*
X52717927Y21415690D01*
X52717925Y21415688D01*
X52717924Y21415688D01*
X52584312Y21282076D01*
X52584312Y21282075D01*
X52584310Y21282073D01*
X52558433Y21246456D01*
X52473240Y21129200D01*
X52387454Y20960837D01*
X52329059Y20781119D01*
X52299500Y20594487D01*
X52299500Y20460189D01*
X52279815Y20393150D01*
X52227011Y20347395D01*
X52157853Y20337451D01*
X52094297Y20366476D01*
X52087819Y20372508D01*
X47904309Y24556018D01*
X50574500Y24556018D01*
X50574500Y24443982D01*
X50603497Y24335763D01*
X50659515Y24238737D01*
X50738737Y24159515D01*
X50835763Y24103497D01*
X50943982Y24074500D01*
X50943984Y24074500D01*
X51056016Y24074500D01*
X51056018Y24074500D01*
X51164237Y24103497D01*
X51261263Y24159515D01*
X51340485Y24238737D01*
X51396503Y24335763D01*
X51425500Y24443982D01*
X51425500Y24556018D01*
X51396503Y24664237D01*
X51340485Y24761263D01*
X51261263Y24840485D01*
X51164237Y24896503D01*
X51056018Y24925500D01*
X50943982Y24925500D01*
X50835763Y24896503D01*
X50835760Y24896502D01*
X50738740Y24840487D01*
X50738734Y24840483D01*
X50659517Y24761266D01*
X50659513Y24761260D01*
X50603498Y24664240D01*
X50603497Y24664237D01*
X50574500Y24556018D01*
X47904309Y24556018D01*
X47365840Y25094487D01*
X52299500Y25094487D01*
X52299500Y24905514D01*
X52329059Y24718882D01*
X52387454Y24539164D01*
X52454745Y24407099D01*
X52473240Y24370801D01*
X52584310Y24217927D01*
X52717927Y24084310D01*
X52870801Y23973240D01*
X52920779Y23947775D01*
X53039163Y23887455D01*
X53039165Y23887455D01*
X53039168Y23887453D01*
X53112475Y23863634D01*
X53218881Y23829060D01*
X53405514Y23799500D01*
X53405519Y23799500D01*
X53594486Y23799500D01*
X53781118Y23829060D01*
X53960832Y23887453D01*
X54129199Y23973240D01*
X54282073Y24084310D01*
X54415690Y24217927D01*
X54526760Y24370801D01*
X54612547Y24539168D01*
X54670940Y24718882D01*
X54677652Y24761260D01*
X54700500Y24905514D01*
X54700500Y25094487D01*
X58799500Y25094487D01*
X58799500Y24905514D01*
X58829059Y24718882D01*
X58887454Y24539164D01*
X58954745Y24407099D01*
X58973240Y24370801D01*
X59084310Y24217927D01*
X59217927Y24084310D01*
X59370801Y23973240D01*
X59420779Y23947775D01*
X59539163Y23887455D01*
X59539165Y23887455D01*
X59539168Y23887453D01*
X59612475Y23863634D01*
X59718881Y23829060D01*
X59905514Y23799500D01*
X59905519Y23799500D01*
X60094486Y23799500D01*
X60281118Y23829060D01*
X60460832Y23887453D01*
X60629199Y23973240D01*
X60782073Y24084310D01*
X60915690Y24217927D01*
X61026760Y24370801D01*
X61112547Y24539168D01*
X61170940Y24718882D01*
X61177652Y24761260D01*
X61200500Y24905514D01*
X61200500Y25094487D01*
X61170940Y25281119D01*
X61142812Y25367687D01*
X61112547Y25460832D01*
X61112545Y25460835D01*
X61112545Y25460837D01*
X61055593Y25572610D01*
X61026760Y25629199D01*
X60915690Y25782073D01*
X60782073Y25915690D01*
X60629199Y26026760D01*
X60615757Y26033609D01*
X60460836Y26112546D01*
X60281118Y26170941D01*
X60094486Y26200500D01*
X60094481Y26200500D01*
X59905519Y26200500D01*
X59905514Y26200500D01*
X59718881Y26170941D01*
X59539163Y26112546D01*
X59370800Y26026760D01*
X59297066Y25973188D01*
X59217927Y25915690D01*
X59217925Y25915688D01*
X59217924Y25915688D01*
X59084312Y25782076D01*
X59084312Y25782075D01*
X59084310Y25782073D01*
X59054390Y25740892D01*
X58973240Y25629200D01*
X58887454Y25460837D01*
X58829059Y25281119D01*
X58799500Y25094487D01*
X54700500Y25094487D01*
X54670940Y25281119D01*
X54642812Y25367687D01*
X54612547Y25460832D01*
X54612545Y25460835D01*
X54612545Y25460837D01*
X54555593Y25572610D01*
X54526760Y25629199D01*
X54415690Y25782073D01*
X54282073Y25915690D01*
X54129199Y26026760D01*
X54115757Y26033609D01*
X53960836Y26112546D01*
X53781118Y26170941D01*
X53594486Y26200500D01*
X53594481Y26200500D01*
X53405519Y26200500D01*
X53405514Y26200500D01*
X53218881Y26170941D01*
X53039163Y26112546D01*
X52870800Y26026760D01*
X52797066Y25973188D01*
X52717927Y25915690D01*
X52717925Y25915688D01*
X52717924Y25915688D01*
X52584312Y25782076D01*
X52584312Y25782075D01*
X52584310Y25782073D01*
X52554390Y25740892D01*
X52473240Y25629200D01*
X52387454Y25460837D01*
X52329059Y25281119D01*
X52299500Y25094487D01*
X47365840Y25094487D01*
X46323862Y26136465D01*
X46323860Y26136467D01*
X46286748Y26157894D01*
X46249638Y26179320D01*
X46199753Y26192686D01*
X46166851Y26201502D01*
X44728915Y26201502D01*
X44646130Y26179320D01*
X44646123Y26179317D01*
X44600901Y26153208D01*
X44571912Y26136472D01*
X44571904Y26136466D01*
X44008047Y25572610D01*
X43982370Y25552906D01*
X43971002Y25546343D01*
X43785847Y25361188D01*
X43760168Y25341483D01*
X43721099Y25318926D01*
X43721093Y25318922D01*
X43337727Y24935556D01*
X43315167Y24896481D01*
X43295462Y24870802D01*
X42938917Y24514257D01*
X42883330Y24482163D01*
X42778255Y24454009D01*
X42778254Y24454008D01*
X42681234Y24397993D01*
X42681228Y24397989D01*
X42602011Y24318772D01*
X42602007Y24318766D01*
X42545992Y24221746D01*
X42545991Y24221743D01*
X42516994Y24113524D01*
X42205168Y24113524D01*
X42214411Y24148019D01*
X42214411Y24279803D01*
X42180303Y24407097D01*
X42114411Y24521225D01*
X42021225Y24614411D01*
X41964161Y24647357D01*
X41907098Y24680303D01*
X41843450Y24697357D01*
X41779803Y24714411D01*
X41648019Y24714411D01*
X41520723Y24680303D01*
X41406597Y24614411D01*
X41406594Y24614409D01*
X41313413Y24521228D01*
X41313411Y24521225D01*
X41247519Y24407099D01*
X41223852Y24318769D01*
X41213411Y24279803D01*
X1000500Y24279803D01*
X1000500Y25845892D01*
X2239500Y25845892D01*
X2239500Y25714109D01*
X2273608Y25586813D01*
X2288473Y25561067D01*
X2339500Y25472686D01*
X2432686Y25379500D01*
X2546814Y25313608D01*
X2674108Y25279500D01*
X2674110Y25279500D01*
X2805890Y25279500D01*
X2805892Y25279500D01*
X2933186Y25313608D01*
X3047314Y25379500D01*
X3140500Y25472686D01*
X3206392Y25586814D01*
X3240500Y25714108D01*
X3240500Y25845892D01*
X4779500Y25845892D01*
X4779500Y25714109D01*
X4813608Y25586813D01*
X4828473Y25561067D01*
X4879500Y25472686D01*
X4972686Y25379500D01*
X5086814Y25313608D01*
X5214108Y25279500D01*
X5214110Y25279500D01*
X5345890Y25279500D01*
X5345892Y25279500D01*
X5473186Y25313608D01*
X5587314Y25379500D01*
X5680500Y25472686D01*
X5746392Y25586814D01*
X5780500Y25714108D01*
X5780500Y25845892D01*
X7319500Y25845892D01*
X7319500Y25714109D01*
X7353608Y25586813D01*
X7368473Y25561067D01*
X7419500Y25472686D01*
X7512686Y25379500D01*
X7626814Y25313608D01*
X7754108Y25279500D01*
X7754110Y25279500D01*
X7885890Y25279500D01*
X7885892Y25279500D01*
X8013186Y25313608D01*
X8127314Y25379500D01*
X8220500Y25472686D01*
X8286392Y25586814D01*
X8320500Y25714108D01*
X8320500Y25845892D01*
X9859500Y25845892D01*
X9859500Y25714109D01*
X9893608Y25586813D01*
X9908473Y25561067D01*
X9959500Y25472686D01*
X10052686Y25379500D01*
X10166814Y25313608D01*
X10294108Y25279500D01*
X10294110Y25279500D01*
X10425890Y25279500D01*
X10425892Y25279500D01*
X10553186Y25313608D01*
X10667314Y25379500D01*
X10760500Y25472686D01*
X10826392Y25586814D01*
X10860500Y25714108D01*
X10860500Y25845892D01*
X12399500Y25845892D01*
X12399500Y25714109D01*
X12433608Y25586813D01*
X12448473Y25561067D01*
X12499500Y25472686D01*
X12592686Y25379500D01*
X12706814Y25313608D01*
X12834108Y25279500D01*
X12834110Y25279500D01*
X12965890Y25279500D01*
X12965892Y25279500D01*
X13093186Y25313608D01*
X13207314Y25379500D01*
X13300500Y25472686D01*
X13366392Y25586814D01*
X13400500Y25714108D01*
X13400500Y25845892D01*
X14939500Y25845892D01*
X14939500Y25714109D01*
X14973608Y25586813D01*
X14988473Y25561067D01*
X15039500Y25472686D01*
X15132686Y25379500D01*
X15246814Y25313608D01*
X15374108Y25279500D01*
X15374110Y25279500D01*
X15505890Y25279500D01*
X15505892Y25279500D01*
X15633186Y25313608D01*
X15747314Y25379500D01*
X15840500Y25472686D01*
X15906392Y25586814D01*
X15940500Y25714108D01*
X15940500Y25845892D01*
X17479500Y25845892D01*
X17479500Y25714109D01*
X17513608Y25586813D01*
X17528473Y25561067D01*
X17579500Y25472686D01*
X17672686Y25379500D01*
X17786814Y25313608D01*
X17914108Y25279500D01*
X17914110Y25279500D01*
X18045890Y25279500D01*
X18045892Y25279500D01*
X18173186Y25313608D01*
X18287314Y25379500D01*
X18380500Y25472686D01*
X18446392Y25586814D01*
X18480500Y25714108D01*
X18480500Y25845892D01*
X20019500Y25845892D01*
X20019500Y25714109D01*
X20053608Y25586813D01*
X20068473Y25561067D01*
X20119500Y25472686D01*
X20212686Y25379500D01*
X20326814Y25313608D01*
X20454108Y25279500D01*
X20454110Y25279500D01*
X20585890Y25279500D01*
X20585892Y25279500D01*
X20713186Y25313608D01*
X20827314Y25379500D01*
X20920500Y25472686D01*
X20986392Y25586814D01*
X21020500Y25714108D01*
X21020500Y25845892D01*
X22559500Y25845892D01*
X22559500Y25714109D01*
X22593608Y25586813D01*
X22608473Y25561067D01*
X22659500Y25472686D01*
X22752686Y25379500D01*
X22866814Y25313608D01*
X22994108Y25279500D01*
X22994110Y25279500D01*
X23125890Y25279500D01*
X23125892Y25279500D01*
X23253186Y25313608D01*
X23367314Y25379500D01*
X23460500Y25472686D01*
X23526392Y25586814D01*
X23560500Y25714108D01*
X23560500Y25740892D01*
X39999500Y25740892D01*
X39999500Y25609109D01*
X40033608Y25481813D01*
X40038877Y25472687D01*
X40099500Y25367686D01*
X40192686Y25274500D01*
X40306814Y25208608D01*
X40434108Y25174500D01*
X40434110Y25174500D01*
X40565890Y25174500D01*
X40565892Y25174500D01*
X40693186Y25208608D01*
X40807314Y25274500D01*
X40900500Y25367686D01*
X40966392Y25481814D01*
X41000500Y25609108D01*
X41000500Y25740892D01*
X40966392Y25868186D01*
X40900500Y25982314D01*
X40807314Y26075500D01*
X40743147Y26112547D01*
X40693187Y26141392D01*
X40582910Y26170940D01*
X40565892Y26175500D01*
X40434108Y26175500D01*
X40306812Y26141392D01*
X40192686Y26075500D01*
X40192683Y26075498D01*
X40099502Y25982317D01*
X40099500Y25982314D01*
X40033608Y25868188D01*
X39999500Y25740892D01*
X23560500Y25740892D01*
X23560500Y25845892D01*
X23526392Y25973186D01*
X23460500Y26087314D01*
X23367314Y26180500D01*
X23310250Y26213446D01*
X23253187Y26246392D01*
X23189539Y26263446D01*
X23125892Y26280500D01*
X22994108Y26280500D01*
X22866812Y26246392D01*
X22752686Y26180500D01*
X22752683Y26180498D01*
X22659502Y26087317D01*
X22659500Y26087314D01*
X22593608Y25973188D01*
X22559500Y25845892D01*
X21020500Y25845892D01*
X20986392Y25973186D01*
X20920500Y26087314D01*
X20827314Y26180500D01*
X20770250Y26213446D01*
X20713187Y26246392D01*
X20649539Y26263446D01*
X20585892Y26280500D01*
X20454108Y26280500D01*
X20326812Y26246392D01*
X20212686Y26180500D01*
X20212683Y26180498D01*
X20119502Y26087317D01*
X20119500Y26087314D01*
X20053608Y25973188D01*
X20019500Y25845892D01*
X18480500Y25845892D01*
X18446392Y25973186D01*
X18380500Y26087314D01*
X18287314Y26180500D01*
X18230250Y26213446D01*
X18173187Y26246392D01*
X18109539Y26263446D01*
X18045892Y26280500D01*
X17914108Y26280500D01*
X17786812Y26246392D01*
X17672686Y26180500D01*
X17672683Y26180498D01*
X17579502Y26087317D01*
X17579500Y26087314D01*
X17513608Y25973188D01*
X17479500Y25845892D01*
X15940500Y25845892D01*
X15906392Y25973186D01*
X15840500Y26087314D01*
X15747314Y26180500D01*
X15690250Y26213446D01*
X15633187Y26246392D01*
X15569539Y26263446D01*
X15505892Y26280500D01*
X15374108Y26280500D01*
X15246812Y26246392D01*
X15132686Y26180500D01*
X15132683Y26180498D01*
X15039502Y26087317D01*
X15039500Y26087314D01*
X14973608Y25973188D01*
X14939500Y25845892D01*
X13400500Y25845892D01*
X13366392Y25973186D01*
X13300500Y26087314D01*
X13207314Y26180500D01*
X13150250Y26213446D01*
X13093187Y26246392D01*
X13029539Y26263446D01*
X12965892Y26280500D01*
X12834108Y26280500D01*
X12706812Y26246392D01*
X12592686Y26180500D01*
X12592683Y26180498D01*
X12499502Y26087317D01*
X12499500Y26087314D01*
X12433608Y25973188D01*
X12399500Y25845892D01*
X10860500Y25845892D01*
X10826392Y25973186D01*
X10760500Y26087314D01*
X10667314Y26180500D01*
X10610250Y26213446D01*
X10553187Y26246392D01*
X10489539Y26263446D01*
X10425892Y26280500D01*
X10294108Y26280500D01*
X10166812Y26246392D01*
X10052686Y26180500D01*
X10052683Y26180498D01*
X9959502Y26087317D01*
X9959500Y26087314D01*
X9893608Y25973188D01*
X9859500Y25845892D01*
X8320500Y25845892D01*
X8286392Y25973186D01*
X8220500Y26087314D01*
X8127314Y26180500D01*
X8070250Y26213446D01*
X8013187Y26246392D01*
X7949539Y26263446D01*
X7885892Y26280500D01*
X7754108Y26280500D01*
X7626812Y26246392D01*
X7512686Y26180500D01*
X7512683Y26180498D01*
X7419502Y26087317D01*
X7419500Y26087314D01*
X7353608Y25973188D01*
X7319500Y25845892D01*
X5780500Y25845892D01*
X5746392Y25973186D01*
X5680500Y26087314D01*
X5587314Y26180500D01*
X5530250Y26213446D01*
X5473187Y26246392D01*
X5409539Y26263446D01*
X5345892Y26280500D01*
X5214108Y26280500D01*
X5086812Y26246392D01*
X4972686Y26180500D01*
X4972683Y26180498D01*
X4879502Y26087317D01*
X4879500Y26087314D01*
X4813608Y25973188D01*
X4779500Y25845892D01*
X3240500Y25845892D01*
X3206392Y25973186D01*
X3140500Y26087314D01*
X3047314Y26180500D01*
X2990250Y26213446D01*
X2933187Y26246392D01*
X2869539Y26263446D01*
X2805892Y26280500D01*
X2674108Y26280500D01*
X2546812Y26246392D01*
X2432686Y26180500D01*
X2432683Y26180498D01*
X2339502Y26087317D01*
X2339500Y26087314D01*
X2273608Y25973188D01*
X2239500Y25845892D01*
X1000500Y25845892D01*
X1000500Y26565892D01*
X40999500Y26565892D01*
X40999500Y26434109D01*
X41033608Y26306813D01*
X41048800Y26280500D01*
X41099500Y26192686D01*
X41192686Y26099500D01*
X41306814Y26033608D01*
X41434108Y25999500D01*
X41434110Y25999500D01*
X41565890Y25999500D01*
X41565892Y25999500D01*
X41693186Y26033608D01*
X41807314Y26099500D01*
X41900500Y26192686D01*
X41966392Y26306814D01*
X42000500Y26434108D01*
X42000500Y26565892D01*
X41966392Y26693186D01*
X41900500Y26807314D01*
X41807314Y26900500D01*
X41750250Y26933446D01*
X41693187Y26966392D01*
X41654356Y26976797D01*
X41565892Y27000500D01*
X41434108Y27000500D01*
X41306812Y26966392D01*
X41192686Y26900500D01*
X41192683Y26900498D01*
X41099502Y26807317D01*
X41099500Y26807314D01*
X41033608Y26693188D01*
X40999500Y26565892D01*
X1000500Y26565892D01*
X1000500Y27106018D01*
X49074500Y27106018D01*
X49074500Y26993982D01*
X49103497Y26885763D01*
X49159515Y26788737D01*
X49238737Y26709515D01*
X49335763Y26653497D01*
X49443982Y26624500D01*
X49443984Y26624500D01*
X49556016Y26624500D01*
X49556018Y26624500D01*
X49664237Y26653497D01*
X49761263Y26709515D01*
X49840485Y26788737D01*
X49896503Y26885763D01*
X49925500Y26993982D01*
X49925500Y27106018D01*
X49896503Y27214237D01*
X49840485Y27311263D01*
X49761263Y27390485D01*
X49664237Y27446503D01*
X49556018Y27475500D01*
X49443982Y27475500D01*
X49335763Y27446503D01*
X49335760Y27446502D01*
X49238740Y27390487D01*
X49238734Y27390483D01*
X49159517Y27311266D01*
X49159513Y27311260D01*
X49103498Y27214240D01*
X49103497Y27214237D01*
X49074500Y27106018D01*
X1000500Y27106018D01*
X1000500Y27718672D01*
X39846720Y27718672D01*
X39846720Y27586888D01*
X39851940Y27567408D01*
X39880828Y27459593D01*
X39913774Y27402530D01*
X39946720Y27345466D01*
X40039906Y27252280D01*
X40154034Y27186388D01*
X40281328Y27152280D01*
X40281330Y27152280D01*
X40413110Y27152280D01*
X40413112Y27152280D01*
X40540406Y27186388D01*
X40654534Y27252280D01*
X40747720Y27345466D01*
X40813612Y27459594D01*
X40847720Y27586888D01*
X40847720Y27718672D01*
X40813612Y27845966D01*
X40747720Y27960094D01*
X40687885Y28019929D01*
X45785589Y28019929D01*
X45785589Y27907893D01*
X45814586Y27799674D01*
X45870604Y27702648D01*
X45949826Y27623426D01*
X46046852Y27567408D01*
X46155071Y27538411D01*
X46155073Y27538411D01*
X46267105Y27538411D01*
X46267107Y27538411D01*
X46375326Y27567408D01*
X46472352Y27623426D01*
X46551574Y27702648D01*
X46607592Y27799674D01*
X46636589Y27907893D01*
X46636589Y28019929D01*
X46607592Y28128148D01*
X46551574Y28225174D01*
X46472352Y28304396D01*
X46375326Y28360414D01*
X46267107Y28389411D01*
X46155071Y28389411D01*
X46046852Y28360414D01*
X46046849Y28360413D01*
X45962252Y28311572D01*
X45962239Y28311563D01*
X45949826Y28304396D01*
X45943181Y28297752D01*
X45943178Y28297749D01*
X45870603Y28225173D01*
X45870602Y28225171D01*
X45814587Y28128151D01*
X45814586Y28128148D01*
X45785589Y28019929D01*
X40687885Y28019929D01*
X40654534Y28053280D01*
X40597470Y28086226D01*
X40540407Y28119172D01*
X40476759Y28136226D01*
X40413112Y28153280D01*
X40281328Y28153280D01*
X40154032Y28119172D01*
X40039906Y28053280D01*
X40039903Y28053278D01*
X39946722Y27960097D01*
X39946720Y27960094D01*
X39880828Y27845968D01*
X39846720Y27718672D01*
X1000500Y27718672D01*
X1000500Y28385892D01*
X2239500Y28385892D01*
X2239500Y28254109D01*
X2273608Y28126813D01*
X2278020Y28119172D01*
X2339500Y28012686D01*
X2432686Y27919500D01*
X2546814Y27853608D01*
X2674108Y27819500D01*
X2674110Y27819500D01*
X2805890Y27819500D01*
X2805892Y27819500D01*
X2933186Y27853608D01*
X3047314Y27919500D01*
X3140500Y28012686D01*
X3206392Y28126814D01*
X3240500Y28254108D01*
X3240500Y28385892D01*
X4779500Y28385892D01*
X4779500Y28254109D01*
X4813608Y28126813D01*
X4818020Y28119172D01*
X4879500Y28012686D01*
X4972686Y27919500D01*
X5086814Y27853608D01*
X5214108Y27819500D01*
X5214110Y27819500D01*
X5345890Y27819500D01*
X5345892Y27819500D01*
X5473186Y27853608D01*
X5587314Y27919500D01*
X5680500Y28012686D01*
X5746392Y28126814D01*
X5780500Y28254108D01*
X5780500Y28385892D01*
X7319500Y28385892D01*
X7319500Y28254109D01*
X7353608Y28126813D01*
X7358020Y28119172D01*
X7419500Y28012686D01*
X7512686Y27919500D01*
X7626814Y27853608D01*
X7754108Y27819500D01*
X7754110Y27819500D01*
X7885890Y27819500D01*
X7885892Y27819500D01*
X8013186Y27853608D01*
X8127314Y27919500D01*
X8220500Y28012686D01*
X8286392Y28126814D01*
X8320500Y28254108D01*
X8320500Y28385892D01*
X9859500Y28385892D01*
X9859500Y28254109D01*
X9893608Y28126813D01*
X9898020Y28119172D01*
X9959500Y28012686D01*
X10052686Y27919500D01*
X10166814Y27853608D01*
X10294108Y27819500D01*
X10294110Y27819500D01*
X10425890Y27819500D01*
X10425892Y27819500D01*
X10553186Y27853608D01*
X10667314Y27919500D01*
X10760500Y28012686D01*
X10826392Y28126814D01*
X10860500Y28254108D01*
X10860500Y28385892D01*
X12399500Y28385892D01*
X12399500Y28254109D01*
X12433608Y28126813D01*
X12438020Y28119172D01*
X12499500Y28012686D01*
X12592686Y27919500D01*
X12706814Y27853608D01*
X12834108Y27819500D01*
X12834110Y27819500D01*
X12965890Y27819500D01*
X12965892Y27819500D01*
X13093186Y27853608D01*
X13207314Y27919500D01*
X13300500Y28012686D01*
X13366392Y28126814D01*
X13400500Y28254108D01*
X13400500Y28385892D01*
X14939500Y28385892D01*
X14939500Y28254109D01*
X14973608Y28126813D01*
X14978020Y28119172D01*
X15039500Y28012686D01*
X15132686Y27919500D01*
X15246814Y27853608D01*
X15374108Y27819500D01*
X15374110Y27819500D01*
X15505890Y27819500D01*
X15505892Y27819500D01*
X15633186Y27853608D01*
X15747314Y27919500D01*
X15840500Y28012686D01*
X15906392Y28126814D01*
X15940500Y28254108D01*
X15940500Y28385892D01*
X17479500Y28385892D01*
X17479500Y28254109D01*
X17513608Y28126813D01*
X17518020Y28119172D01*
X17579500Y28012686D01*
X17672686Y27919500D01*
X17786814Y27853608D01*
X17914108Y27819500D01*
X17914110Y27819500D01*
X18045890Y27819500D01*
X18045892Y27819500D01*
X18173186Y27853608D01*
X18287314Y27919500D01*
X18380500Y28012686D01*
X18446392Y28126814D01*
X18480500Y28254108D01*
X18480500Y28385892D01*
X20019500Y28385892D01*
X20019500Y28254109D01*
X20053608Y28126813D01*
X20058020Y28119172D01*
X20119500Y28012686D01*
X20212686Y27919500D01*
X20326814Y27853608D01*
X20454108Y27819500D01*
X20454110Y27819500D01*
X20585890Y27819500D01*
X20585892Y27819500D01*
X20713186Y27853608D01*
X20827314Y27919500D01*
X20920500Y28012686D01*
X20986392Y28126814D01*
X21020500Y28254108D01*
X21020500Y28385892D01*
X22559500Y28385892D01*
X22559500Y28254109D01*
X22593608Y28126813D01*
X22598020Y28119172D01*
X22659500Y28012686D01*
X22752686Y27919500D01*
X22866814Y27853608D01*
X22994108Y27819500D01*
X22994110Y27819500D01*
X23125890Y27819500D01*
X23125892Y27819500D01*
X23253186Y27853608D01*
X23367314Y27919500D01*
X23460500Y28012686D01*
X23526392Y28126814D01*
X23560500Y28254108D01*
X23560500Y28385892D01*
X23526392Y28513186D01*
X23460500Y28627314D01*
X23367314Y28720500D01*
X23310250Y28753446D01*
X23253187Y28786392D01*
X23176969Y28806814D01*
X23125892Y28820500D01*
X22994108Y28820500D01*
X22866812Y28786392D01*
X22752686Y28720500D01*
X22752683Y28720498D01*
X22659502Y28627317D01*
X22659500Y28627314D01*
X22593608Y28513188D01*
X22559500Y28385892D01*
X21020500Y28385892D01*
X20986392Y28513186D01*
X20920500Y28627314D01*
X20827314Y28720500D01*
X20770250Y28753446D01*
X20713187Y28786392D01*
X20636969Y28806814D01*
X20585892Y28820500D01*
X20454108Y28820500D01*
X20326812Y28786392D01*
X20212686Y28720500D01*
X20212683Y28720498D01*
X20119502Y28627317D01*
X20119500Y28627314D01*
X20053608Y28513188D01*
X20019500Y28385892D01*
X18480500Y28385892D01*
X18446392Y28513186D01*
X18380500Y28627314D01*
X18287314Y28720500D01*
X18230250Y28753446D01*
X18173187Y28786392D01*
X18096969Y28806814D01*
X18045892Y28820500D01*
X17914108Y28820500D01*
X17786812Y28786392D01*
X17672686Y28720500D01*
X17672683Y28720498D01*
X17579502Y28627317D01*
X17579500Y28627314D01*
X17513608Y28513188D01*
X17479500Y28385892D01*
X15940500Y28385892D01*
X15906392Y28513186D01*
X15840500Y28627314D01*
X15747314Y28720500D01*
X15690250Y28753446D01*
X15633187Y28786392D01*
X15556969Y28806814D01*
X15505892Y28820500D01*
X15374108Y28820500D01*
X15246812Y28786392D01*
X15132686Y28720500D01*
X15132683Y28720498D01*
X15039502Y28627317D01*
X15039500Y28627314D01*
X14973608Y28513188D01*
X14939500Y28385892D01*
X13400500Y28385892D01*
X13366392Y28513186D01*
X13300500Y28627314D01*
X13207314Y28720500D01*
X13150250Y28753446D01*
X13093187Y28786392D01*
X13016969Y28806814D01*
X12965892Y28820500D01*
X12834108Y28820500D01*
X12706812Y28786392D01*
X12592686Y28720500D01*
X12592683Y28720498D01*
X12499502Y28627317D01*
X12499500Y28627314D01*
X12433608Y28513188D01*
X12399500Y28385892D01*
X10860500Y28385892D01*
X10826392Y28513186D01*
X10760500Y28627314D01*
X10667314Y28720500D01*
X10610250Y28753446D01*
X10553187Y28786392D01*
X10476969Y28806814D01*
X10425892Y28820500D01*
X10294108Y28820500D01*
X10166812Y28786392D01*
X10052686Y28720500D01*
X10052683Y28720498D01*
X9959502Y28627317D01*
X9959500Y28627314D01*
X9893608Y28513188D01*
X9859500Y28385892D01*
X8320500Y28385892D01*
X8286392Y28513186D01*
X8220500Y28627314D01*
X8127314Y28720500D01*
X8070250Y28753446D01*
X8013187Y28786392D01*
X7936969Y28806814D01*
X7885892Y28820500D01*
X7754108Y28820500D01*
X7626812Y28786392D01*
X7512686Y28720500D01*
X7512683Y28720498D01*
X7419502Y28627317D01*
X7419500Y28627314D01*
X7353608Y28513188D01*
X7319500Y28385892D01*
X5780500Y28385892D01*
X5746392Y28513186D01*
X5680500Y28627314D01*
X5587314Y28720500D01*
X5530250Y28753446D01*
X5473187Y28786392D01*
X5396969Y28806814D01*
X5345892Y28820500D01*
X5214108Y28820500D01*
X5086812Y28786392D01*
X4972686Y28720500D01*
X4972683Y28720498D01*
X4879502Y28627317D01*
X4879500Y28627314D01*
X4813608Y28513188D01*
X4779500Y28385892D01*
X3240500Y28385892D01*
X3206392Y28513186D01*
X3140500Y28627314D01*
X3047314Y28720500D01*
X2990250Y28753446D01*
X2933187Y28786392D01*
X2856969Y28806814D01*
X2805892Y28820500D01*
X2674108Y28820500D01*
X2546812Y28786392D01*
X2432686Y28720500D01*
X2432683Y28720498D01*
X2339502Y28627317D01*
X2339500Y28627314D01*
X2273608Y28513188D01*
X2239500Y28385892D01*
X1000500Y28385892D01*
X1000500Y29065892D01*
X29499500Y29065892D01*
X29499500Y28934109D01*
X29533608Y28806813D01*
X29566554Y28749750D01*
X29599500Y28692686D01*
X29692686Y28599500D01*
X29806814Y28533608D01*
X29934108Y28499500D01*
X29934110Y28499500D01*
X30065890Y28499500D01*
X30065892Y28499500D01*
X30193186Y28533608D01*
X30307314Y28599500D01*
X30400500Y28692686D01*
X30466392Y28806814D01*
X30500500Y28934108D01*
X30500500Y29065892D01*
X32499500Y29065892D01*
X32499500Y28934109D01*
X32533608Y28806813D01*
X32566554Y28749750D01*
X32599500Y28692686D01*
X32692686Y28599500D01*
X32806814Y28533608D01*
X32934108Y28499500D01*
X32934110Y28499500D01*
X33065890Y28499500D01*
X33065892Y28499500D01*
X33193186Y28533608D01*
X33307314Y28599500D01*
X33400500Y28692686D01*
X33466392Y28806814D01*
X33500500Y28934108D01*
X33500500Y28970124D01*
X44999500Y28970124D01*
X44999500Y28838341D01*
X45033608Y28711045D01*
X45044208Y28692686D01*
X45099500Y28596918D01*
X45192686Y28503732D01*
X45291521Y28446669D01*
X45306810Y28437842D01*
X45306814Y28437840D01*
X45434108Y28403732D01*
X45434110Y28403732D01*
X45565890Y28403732D01*
X45565892Y28403732D01*
X45693186Y28437840D01*
X45807314Y28503732D01*
X45900500Y28596918D01*
X45966392Y28711046D01*
X46000500Y28838340D01*
X46000500Y28970124D01*
X45966392Y29097418D01*
X45900500Y29211546D01*
X45807314Y29304732D01*
X45750250Y29337678D01*
X45693187Y29370624D01*
X45629539Y29387678D01*
X45565892Y29404732D01*
X45434108Y29404732D01*
X45306812Y29370624D01*
X45192686Y29304732D01*
X45192683Y29304730D01*
X45099502Y29211549D01*
X45099500Y29211546D01*
X45033608Y29097420D01*
X44999500Y28970124D01*
X33500500Y28970124D01*
X33500500Y29065892D01*
X33466392Y29193186D01*
X33400500Y29307314D01*
X33307314Y29400500D01*
X33250250Y29433446D01*
X33193187Y29466392D01*
X33129539Y29483446D01*
X33065892Y29500500D01*
X32934108Y29500500D01*
X32806812Y29466392D01*
X32692686Y29400500D01*
X32692683Y29400498D01*
X32599502Y29307317D01*
X32599500Y29307314D01*
X32533608Y29193188D01*
X32499500Y29065892D01*
X30500500Y29065892D01*
X30466392Y29193186D01*
X30400500Y29307314D01*
X30307314Y29400500D01*
X30250250Y29433446D01*
X30193187Y29466392D01*
X30129539Y29483446D01*
X30065892Y29500500D01*
X29934108Y29500500D01*
X29806812Y29466392D01*
X29692686Y29400500D01*
X29692683Y29400498D01*
X29599502Y29307317D01*
X29599500Y29307314D01*
X29533608Y29193188D01*
X29499500Y29065892D01*
X1000500Y29065892D01*
X1000500Y29731018D01*
X47074500Y29731018D01*
X47074500Y29618982D01*
X47103497Y29510763D01*
X47159515Y29413737D01*
X47238737Y29334515D01*
X47335763Y29278497D01*
X47443982Y29249500D01*
X47443984Y29249500D01*
X47556016Y29249500D01*
X47556018Y29249500D01*
X47664237Y29278497D01*
X47761263Y29334515D01*
X47840485Y29413737D01*
X47896503Y29510763D01*
X47925500Y29618982D01*
X47925500Y29731018D01*
X47896503Y29839237D01*
X47867203Y29889985D01*
X47850731Y29957884D01*
X47873583Y30023911D01*
X47928505Y30067101D01*
X47985855Y30074303D01*
X47985855Y30074500D01*
X47987427Y30074500D01*
X47990788Y30074922D01*
X47993973Y30074503D01*
X47993982Y30074500D01*
X47993991Y30074500D01*
X48106016Y30074500D01*
X48106018Y30074500D01*
X48214237Y30103497D01*
X48311263Y30159515D01*
X48390485Y30238737D01*
X48446503Y30335763D01*
X48475500Y30443982D01*
X48475500Y30556018D01*
X48446503Y30664237D01*
X48390485Y30761263D01*
X48311263Y30840485D01*
X48214237Y30896503D01*
X48106018Y30925500D01*
X47993982Y30925500D01*
X47885763Y30896503D01*
X47885760Y30896502D01*
X47788740Y30840487D01*
X47788734Y30840483D01*
X47709517Y30761266D01*
X47709513Y30761260D01*
X47653498Y30664240D01*
X47653497Y30664237D01*
X47624500Y30556018D01*
X47624500Y30443982D01*
X47647137Y30359501D01*
X47653497Y30335764D01*
X47653498Y30335761D01*
X47682795Y30285017D01*
X47699268Y30217117D01*
X47676415Y30151090D01*
X47621494Y30107899D01*
X47564145Y30100697D01*
X47564145Y30100500D01*
X47562581Y30100500D01*
X47559221Y30100078D01*
X47556019Y30100500D01*
X47556018Y30100500D01*
X47443982Y30100500D01*
X47335763Y30071503D01*
X47335760Y30071502D01*
X47238740Y30015487D01*
X47238734Y30015483D01*
X47159517Y29936266D01*
X47159513Y29936260D01*
X47103498Y29839240D01*
X47103497Y29839237D01*
X47074500Y29731018D01*
X1000500Y29731018D01*
X1000500Y30925892D01*
X2239500Y30925892D01*
X2239500Y30794109D01*
X2273608Y30666813D01*
X2291386Y30636022D01*
X2339500Y30552686D01*
X2432686Y30459500D01*
X2546814Y30393608D01*
X2674108Y30359500D01*
X2674110Y30359500D01*
X2805890Y30359500D01*
X2805892Y30359500D01*
X2933186Y30393608D01*
X3047314Y30459500D01*
X3140500Y30552686D01*
X3206392Y30666814D01*
X3240500Y30794108D01*
X3240500Y30925892D01*
X4779500Y30925892D01*
X4779500Y30794109D01*
X4813608Y30666813D01*
X4831386Y30636022D01*
X4879500Y30552686D01*
X4972686Y30459500D01*
X5086814Y30393608D01*
X5214108Y30359500D01*
X5214110Y30359500D01*
X5345890Y30359500D01*
X5345892Y30359500D01*
X5473186Y30393608D01*
X5587314Y30459500D01*
X5680500Y30552686D01*
X5746392Y30666814D01*
X5780500Y30794108D01*
X5780500Y30925892D01*
X7319500Y30925892D01*
X7319500Y30794109D01*
X7353608Y30666813D01*
X7371386Y30636022D01*
X7419500Y30552686D01*
X7512686Y30459500D01*
X7626814Y30393608D01*
X7754108Y30359500D01*
X7754110Y30359500D01*
X7885890Y30359500D01*
X7885892Y30359500D01*
X8013186Y30393608D01*
X8127314Y30459500D01*
X8220500Y30552686D01*
X8286392Y30666814D01*
X8320500Y30794108D01*
X8320500Y30925892D01*
X9859500Y30925892D01*
X9859500Y30794109D01*
X9893608Y30666813D01*
X9911386Y30636022D01*
X9959500Y30552686D01*
X10052686Y30459500D01*
X10166814Y30393608D01*
X10294108Y30359500D01*
X10294110Y30359500D01*
X10425890Y30359500D01*
X10425892Y30359500D01*
X10553186Y30393608D01*
X10667314Y30459500D01*
X10760500Y30552686D01*
X10826392Y30666814D01*
X10860500Y30794108D01*
X10860500Y30925892D01*
X12399500Y30925892D01*
X12399500Y30794109D01*
X12433608Y30666813D01*
X12451386Y30636022D01*
X12499500Y30552686D01*
X12592686Y30459500D01*
X12706814Y30393608D01*
X12834108Y30359500D01*
X12834110Y30359500D01*
X12965890Y30359500D01*
X12965892Y30359500D01*
X13093186Y30393608D01*
X13207314Y30459500D01*
X13300500Y30552686D01*
X13366392Y30666814D01*
X13400500Y30794108D01*
X13400500Y30925892D01*
X14939500Y30925892D01*
X14939500Y30794109D01*
X14973608Y30666813D01*
X14991386Y30636022D01*
X15039500Y30552686D01*
X15132686Y30459500D01*
X15246814Y30393608D01*
X15374108Y30359500D01*
X15374110Y30359500D01*
X15505890Y30359500D01*
X15505892Y30359500D01*
X15633186Y30393608D01*
X15747314Y30459500D01*
X15840500Y30552686D01*
X15906392Y30666814D01*
X15940500Y30794108D01*
X15940500Y30925892D01*
X17479500Y30925892D01*
X17479500Y30794109D01*
X17513608Y30666813D01*
X17531386Y30636022D01*
X17579500Y30552686D01*
X17672686Y30459500D01*
X17786814Y30393608D01*
X17914108Y30359500D01*
X17914110Y30359500D01*
X18045890Y30359500D01*
X18045892Y30359500D01*
X18173186Y30393608D01*
X18287314Y30459500D01*
X18380500Y30552686D01*
X18446392Y30666814D01*
X18480500Y30794108D01*
X18480500Y30925892D01*
X20019500Y30925892D01*
X20019500Y30794109D01*
X20053608Y30666813D01*
X20071386Y30636022D01*
X20119500Y30552686D01*
X20212686Y30459500D01*
X20326814Y30393608D01*
X20454108Y30359500D01*
X20454110Y30359500D01*
X20585890Y30359500D01*
X20585892Y30359500D01*
X20713186Y30393608D01*
X20827314Y30459500D01*
X20920500Y30552686D01*
X20986392Y30666814D01*
X21020500Y30794108D01*
X21020500Y30925892D01*
X22559500Y30925892D01*
X22559500Y30794109D01*
X22593608Y30666813D01*
X22611386Y30636022D01*
X22659500Y30552686D01*
X22752686Y30459500D01*
X22866814Y30393608D01*
X22994108Y30359500D01*
X22994110Y30359500D01*
X23125890Y30359500D01*
X23125892Y30359500D01*
X23253186Y30393608D01*
X23367314Y30459500D01*
X23460500Y30552686D01*
X23468125Y30565892D01*
X34499500Y30565892D01*
X34499500Y30434109D01*
X34533608Y30306813D01*
X34566554Y30249750D01*
X34599500Y30192686D01*
X34692686Y30099500D01*
X34806814Y30033608D01*
X34934108Y29999500D01*
X34934110Y29999500D01*
X35065890Y29999500D01*
X35065892Y29999500D01*
X35193186Y30033608D01*
X35307314Y30099500D01*
X35400500Y30192686D01*
X35466392Y30306814D01*
X35500500Y30434108D01*
X35500500Y30565892D01*
X35466392Y30693186D01*
X35400500Y30807314D01*
X35307314Y30900500D01*
X35250250Y30933446D01*
X35193187Y30966392D01*
X35129539Y30983446D01*
X35065892Y31000500D01*
X34934108Y31000500D01*
X34806812Y30966392D01*
X34692686Y30900500D01*
X34692683Y30900498D01*
X34599502Y30807317D01*
X34599500Y30807314D01*
X34533608Y30693188D01*
X34499500Y30565892D01*
X23468125Y30565892D01*
X23526392Y30666814D01*
X23560500Y30794108D01*
X23560500Y30925892D01*
X23526392Y31053186D01*
X23460500Y31167314D01*
X23367314Y31260500D01*
X23310250Y31293446D01*
X23253187Y31326392D01*
X23189539Y31343446D01*
X23125892Y31360500D01*
X22994108Y31360500D01*
X22866812Y31326392D01*
X22752686Y31260500D01*
X22752683Y31260498D01*
X22659502Y31167317D01*
X22659500Y31167314D01*
X22593608Y31053188D01*
X22559500Y30925892D01*
X21020500Y30925892D01*
X20986392Y31053186D01*
X20920500Y31167314D01*
X20827314Y31260500D01*
X20770250Y31293446D01*
X20713187Y31326392D01*
X20649539Y31343446D01*
X20585892Y31360500D01*
X20454108Y31360500D01*
X20326812Y31326392D01*
X20212686Y31260500D01*
X20212683Y31260498D01*
X20119502Y31167317D01*
X20119500Y31167314D01*
X20053608Y31053188D01*
X20019500Y30925892D01*
X18480500Y30925892D01*
X18446392Y31053186D01*
X18380500Y31167314D01*
X18287314Y31260500D01*
X18230250Y31293446D01*
X18173187Y31326392D01*
X18109539Y31343446D01*
X18045892Y31360500D01*
X17914108Y31360500D01*
X17786812Y31326392D01*
X17672686Y31260500D01*
X17672683Y31260498D01*
X17579502Y31167317D01*
X17579500Y31167314D01*
X17513608Y31053188D01*
X17479500Y30925892D01*
X15940500Y30925892D01*
X15906392Y31053186D01*
X15840500Y31167314D01*
X15747314Y31260500D01*
X15690250Y31293446D01*
X15633187Y31326392D01*
X15569539Y31343446D01*
X15505892Y31360500D01*
X15374108Y31360500D01*
X15246812Y31326392D01*
X15132686Y31260500D01*
X15132683Y31260498D01*
X15039502Y31167317D01*
X15039500Y31167314D01*
X14973608Y31053188D01*
X14939500Y30925892D01*
X13400500Y30925892D01*
X13366392Y31053186D01*
X13300500Y31167314D01*
X13207314Y31260500D01*
X13150250Y31293446D01*
X13093187Y31326392D01*
X13029539Y31343446D01*
X12965892Y31360500D01*
X12834108Y31360500D01*
X12706812Y31326392D01*
X12592686Y31260500D01*
X12592683Y31260498D01*
X12499502Y31167317D01*
X12499500Y31167314D01*
X12433608Y31053188D01*
X12399500Y30925892D01*
X10860500Y30925892D01*
X10826392Y31053186D01*
X10760500Y31167314D01*
X10667314Y31260500D01*
X10610250Y31293446D01*
X10553187Y31326392D01*
X10489539Y31343446D01*
X10425892Y31360500D01*
X10294108Y31360500D01*
X10166812Y31326392D01*
X10052686Y31260500D01*
X10052683Y31260498D01*
X9959502Y31167317D01*
X9959500Y31167314D01*
X9893608Y31053188D01*
X9859500Y30925892D01*
X8320500Y30925892D01*
X8286392Y31053186D01*
X8220500Y31167314D01*
X8127314Y31260500D01*
X8070250Y31293446D01*
X8013187Y31326392D01*
X7949539Y31343446D01*
X7885892Y31360500D01*
X7754108Y31360500D01*
X7626812Y31326392D01*
X7512686Y31260500D01*
X7512683Y31260498D01*
X7419502Y31167317D01*
X7419500Y31167314D01*
X7353608Y31053188D01*
X7319500Y30925892D01*
X5780500Y30925892D01*
X5746392Y31053186D01*
X5680500Y31167314D01*
X5587314Y31260500D01*
X5530250Y31293446D01*
X5473187Y31326392D01*
X5409539Y31343446D01*
X5345892Y31360500D01*
X5214108Y31360500D01*
X5086812Y31326392D01*
X4972686Y31260500D01*
X4972683Y31260498D01*
X4879502Y31167317D01*
X4879500Y31167314D01*
X4813608Y31053188D01*
X4779500Y30925892D01*
X3240500Y30925892D01*
X3206392Y31053186D01*
X3140500Y31167314D01*
X3047314Y31260500D01*
X2990250Y31293446D01*
X2933187Y31326392D01*
X2869539Y31343446D01*
X2805892Y31360500D01*
X2674108Y31360500D01*
X2546812Y31326392D01*
X2432686Y31260500D01*
X2432683Y31260498D01*
X2339502Y31167317D01*
X2339500Y31167314D01*
X2273608Y31053188D01*
X2239500Y30925892D01*
X1000500Y30925892D01*
X1000500Y32556018D01*
X44074500Y32556018D01*
X44074500Y32443982D01*
X44103497Y32335763D01*
X44159515Y32238737D01*
X44238737Y32159515D01*
X44335763Y32103497D01*
X44443982Y32074500D01*
X44443984Y32074500D01*
X44556016Y32074500D01*
X44556018Y32074500D01*
X44664237Y32103497D01*
X44761263Y32159515D01*
X44840485Y32238737D01*
X44896503Y32335763D01*
X44925500Y32443982D01*
X44925500Y32556018D01*
X44896503Y32664237D01*
X44840485Y32761263D01*
X44761263Y32840485D01*
X44664237Y32896503D01*
X44556018Y32925500D01*
X44443982Y32925500D01*
X44335763Y32896503D01*
X44335760Y32896502D01*
X44238740Y32840487D01*
X44238734Y32840483D01*
X44159517Y32761266D01*
X44159513Y32761260D01*
X44103498Y32664240D01*
X44103497Y32664237D01*
X44074500Y32556018D01*
X1000500Y32556018D01*
X1000500Y33465892D01*
X2239500Y33465892D01*
X2239500Y33334109D01*
X2273608Y33206813D01*
X2306554Y33149750D01*
X2339500Y33092686D01*
X2432686Y32999500D01*
X2546814Y32933608D01*
X2674108Y32899500D01*
X2674110Y32899500D01*
X2805890Y32899500D01*
X2805892Y32899500D01*
X2933186Y32933608D01*
X3047314Y32999500D01*
X3140500Y33092686D01*
X3206392Y33206814D01*
X3240500Y33334108D01*
X3240500Y33465892D01*
X4779500Y33465892D01*
X4779500Y33334109D01*
X4813608Y33206813D01*
X4846554Y33149750D01*
X4879500Y33092686D01*
X4972686Y32999500D01*
X5086814Y32933608D01*
X5214108Y32899500D01*
X5214110Y32899500D01*
X5345890Y32899500D01*
X5345892Y32899500D01*
X5473186Y32933608D01*
X5587314Y32999500D01*
X5680500Y33092686D01*
X5746392Y33206814D01*
X5780500Y33334108D01*
X5780500Y33465892D01*
X7319500Y33465892D01*
X7319500Y33334109D01*
X7353608Y33206813D01*
X7386554Y33149750D01*
X7419500Y33092686D01*
X7512686Y32999500D01*
X7626814Y32933608D01*
X7754108Y32899500D01*
X7754110Y32899500D01*
X7885890Y32899500D01*
X7885892Y32899500D01*
X8013186Y32933608D01*
X8127314Y32999500D01*
X8220500Y33092686D01*
X8286392Y33206814D01*
X8320500Y33334108D01*
X8320500Y33465892D01*
X9859500Y33465892D01*
X9859500Y33334109D01*
X9893608Y33206813D01*
X9926554Y33149750D01*
X9959500Y33092686D01*
X10052686Y32999500D01*
X10166814Y32933608D01*
X10294108Y32899500D01*
X10294110Y32899500D01*
X10425890Y32899500D01*
X10425892Y32899500D01*
X10553186Y32933608D01*
X10667314Y32999500D01*
X10760500Y33092686D01*
X10826392Y33206814D01*
X10860500Y33334108D01*
X10860500Y33465892D01*
X12399500Y33465892D01*
X12399500Y33334109D01*
X12433608Y33206813D01*
X12466554Y33149750D01*
X12499500Y33092686D01*
X12592686Y32999500D01*
X12706814Y32933608D01*
X12834108Y32899500D01*
X12834110Y32899500D01*
X12965890Y32899500D01*
X12965892Y32899500D01*
X13093186Y32933608D01*
X13207314Y32999500D01*
X13300500Y33092686D01*
X13366392Y33206814D01*
X13400500Y33334108D01*
X13400500Y33465892D01*
X14939500Y33465892D01*
X14939500Y33334109D01*
X14973608Y33206813D01*
X15006554Y33149750D01*
X15039500Y33092686D01*
X15132686Y32999500D01*
X15246814Y32933608D01*
X15374108Y32899500D01*
X15374110Y32899500D01*
X15505890Y32899500D01*
X15505892Y32899500D01*
X15633186Y32933608D01*
X15747314Y32999500D01*
X15840500Y33092686D01*
X15906392Y33206814D01*
X15940500Y33334108D01*
X15940500Y33465892D01*
X17479500Y33465892D01*
X17479500Y33334109D01*
X17513608Y33206813D01*
X17546554Y33149750D01*
X17579500Y33092686D01*
X17672686Y32999500D01*
X17786814Y32933608D01*
X17914108Y32899500D01*
X17914110Y32899500D01*
X18045890Y32899500D01*
X18045892Y32899500D01*
X18173186Y32933608D01*
X18287314Y32999500D01*
X18380500Y33092686D01*
X18446392Y33206814D01*
X18480500Y33334108D01*
X18480500Y33465892D01*
X20019500Y33465892D01*
X20019500Y33334109D01*
X20053608Y33206813D01*
X20086554Y33149750D01*
X20119500Y33092686D01*
X20212686Y32999500D01*
X20326814Y32933608D01*
X20454108Y32899500D01*
X20454110Y32899500D01*
X20585890Y32899500D01*
X20585892Y32899500D01*
X20713186Y32933608D01*
X20827314Y32999500D01*
X20920500Y33092686D01*
X20986392Y33206814D01*
X21020500Y33334108D01*
X21020500Y33465892D01*
X22559500Y33465892D01*
X22559500Y33334109D01*
X22593608Y33206813D01*
X22626554Y33149750D01*
X22659500Y33092686D01*
X22752686Y32999500D01*
X22866814Y32933608D01*
X22994108Y32899500D01*
X22994110Y32899500D01*
X23125890Y32899500D01*
X23125892Y32899500D01*
X23253186Y32933608D01*
X23367314Y32999500D01*
X23460500Y33092686D01*
X23526392Y33206814D01*
X23560500Y33334108D01*
X23560500Y33465892D01*
X23526392Y33593186D01*
X23460500Y33707314D01*
X23367314Y33800500D01*
X23310250Y33833446D01*
X23253187Y33866392D01*
X23189539Y33883446D01*
X23125892Y33900500D01*
X22994108Y33900500D01*
X22866812Y33866392D01*
X22752686Y33800500D01*
X22752683Y33800498D01*
X22659502Y33707317D01*
X22659500Y33707314D01*
X22593608Y33593188D01*
X22559500Y33465892D01*
X21020500Y33465892D01*
X20986392Y33593186D01*
X20920500Y33707314D01*
X20827314Y33800500D01*
X20770250Y33833446D01*
X20713187Y33866392D01*
X20649539Y33883446D01*
X20585892Y33900500D01*
X20454108Y33900500D01*
X20326812Y33866392D01*
X20212686Y33800500D01*
X20212683Y33800498D01*
X20119502Y33707317D01*
X20119500Y33707314D01*
X20053608Y33593188D01*
X20019500Y33465892D01*
X18480500Y33465892D01*
X18446392Y33593186D01*
X18380500Y33707314D01*
X18287314Y33800500D01*
X18230250Y33833446D01*
X18173187Y33866392D01*
X18109539Y33883446D01*
X18045892Y33900500D01*
X17914108Y33900500D01*
X17786812Y33866392D01*
X17672686Y33800500D01*
X17672683Y33800498D01*
X17579502Y33707317D01*
X17579500Y33707314D01*
X17513608Y33593188D01*
X17479500Y33465892D01*
X15940500Y33465892D01*
X15906392Y33593186D01*
X15840500Y33707314D01*
X15747314Y33800500D01*
X15690250Y33833446D01*
X15633187Y33866392D01*
X15569539Y33883446D01*
X15505892Y33900500D01*
X15374108Y33900500D01*
X15246812Y33866392D01*
X15132686Y33800500D01*
X15132683Y33800498D01*
X15039502Y33707317D01*
X15039500Y33707314D01*
X14973608Y33593188D01*
X14939500Y33465892D01*
X13400500Y33465892D01*
X13366392Y33593186D01*
X13300500Y33707314D01*
X13207314Y33800500D01*
X13150250Y33833446D01*
X13093187Y33866392D01*
X13029539Y33883446D01*
X12965892Y33900500D01*
X12834108Y33900500D01*
X12706812Y33866392D01*
X12592686Y33800500D01*
X12592683Y33800498D01*
X12499502Y33707317D01*
X12499500Y33707314D01*
X12433608Y33593188D01*
X12399500Y33465892D01*
X10860500Y33465892D01*
X10826392Y33593186D01*
X10760500Y33707314D01*
X10667314Y33800500D01*
X10610250Y33833446D01*
X10553187Y33866392D01*
X10489539Y33883446D01*
X10425892Y33900500D01*
X10294108Y33900500D01*
X10166812Y33866392D01*
X10052686Y33800500D01*
X10052683Y33800498D01*
X9959502Y33707317D01*
X9959500Y33707314D01*
X9893608Y33593188D01*
X9859500Y33465892D01*
X8320500Y33465892D01*
X8286392Y33593186D01*
X8220500Y33707314D01*
X8127314Y33800500D01*
X8070250Y33833446D01*
X8013187Y33866392D01*
X7949539Y33883446D01*
X7885892Y33900500D01*
X7754108Y33900500D01*
X7626812Y33866392D01*
X7512686Y33800500D01*
X7512683Y33800498D01*
X7419502Y33707317D01*
X7419500Y33707314D01*
X7353608Y33593188D01*
X7319500Y33465892D01*
X5780500Y33465892D01*
X5746392Y33593186D01*
X5680500Y33707314D01*
X5587314Y33800500D01*
X5530250Y33833446D01*
X5473187Y33866392D01*
X5409539Y33883446D01*
X5345892Y33900500D01*
X5214108Y33900500D01*
X5086812Y33866392D01*
X4972686Y33800500D01*
X4972683Y33800498D01*
X4879502Y33707317D01*
X4879500Y33707314D01*
X4813608Y33593188D01*
X4779500Y33465892D01*
X3240500Y33465892D01*
X3206392Y33593186D01*
X3140500Y33707314D01*
X3047314Y33800500D01*
X2990250Y33833446D01*
X2933187Y33866392D01*
X2869539Y33883446D01*
X2805892Y33900500D01*
X2674108Y33900500D01*
X2546812Y33866392D01*
X2432686Y33800500D01*
X2432683Y33800498D01*
X2339502Y33707317D01*
X2339500Y33707314D01*
X2273608Y33593188D01*
X2239500Y33465892D01*
X1000500Y33465892D01*
X1000500Y36005892D01*
X2239500Y36005892D01*
X2239500Y35874108D01*
X2256554Y35810461D01*
X2273608Y35746813D01*
X2290722Y35717171D01*
X2339500Y35632686D01*
X2432686Y35539500D01*
X2546814Y35473608D01*
X2674108Y35439500D01*
X2674110Y35439500D01*
X2805890Y35439500D01*
X2805892Y35439500D01*
X2933186Y35473608D01*
X3047314Y35539500D01*
X3140500Y35632686D01*
X3206392Y35746814D01*
X3240500Y35874108D01*
X3240500Y36005892D01*
X4779500Y36005892D01*
X4779500Y35874108D01*
X4796554Y35810461D01*
X4813608Y35746813D01*
X4830722Y35717171D01*
X4879500Y35632686D01*
X4972686Y35539500D01*
X5086814Y35473608D01*
X5214108Y35439500D01*
X5214110Y35439500D01*
X5345890Y35439500D01*
X5345892Y35439500D01*
X5473186Y35473608D01*
X5587314Y35539500D01*
X5680500Y35632686D01*
X5746392Y35746814D01*
X5780500Y35874108D01*
X5780500Y36005892D01*
X7319500Y36005892D01*
X7319500Y35874108D01*
X7336554Y35810461D01*
X7353608Y35746813D01*
X7370722Y35717171D01*
X7419500Y35632686D01*
X7512686Y35539500D01*
X7626814Y35473608D01*
X7754108Y35439500D01*
X7754110Y35439500D01*
X7885890Y35439500D01*
X7885892Y35439500D01*
X8013186Y35473608D01*
X8127314Y35539500D01*
X8220500Y35632686D01*
X8286392Y35746814D01*
X8320500Y35874108D01*
X8320500Y36005892D01*
X9859500Y36005892D01*
X9859500Y35874108D01*
X9876554Y35810461D01*
X9893608Y35746813D01*
X9910722Y35717171D01*
X9959500Y35632686D01*
X10052686Y35539500D01*
X10166814Y35473608D01*
X10294108Y35439500D01*
X10294110Y35439500D01*
X10425890Y35439500D01*
X10425892Y35439500D01*
X10553186Y35473608D01*
X10667314Y35539500D01*
X10760500Y35632686D01*
X10826392Y35746814D01*
X10860500Y35874108D01*
X10860500Y36005892D01*
X12399500Y36005892D01*
X12399500Y35874108D01*
X12416554Y35810461D01*
X12433608Y35746813D01*
X12450722Y35717171D01*
X12499500Y35632686D01*
X12592686Y35539500D01*
X12706814Y35473608D01*
X12834108Y35439500D01*
X12834110Y35439500D01*
X12965890Y35439500D01*
X12965892Y35439500D01*
X13093186Y35473608D01*
X13207314Y35539500D01*
X13300500Y35632686D01*
X13366392Y35746814D01*
X13400500Y35874108D01*
X13400500Y36005892D01*
X14939500Y36005892D01*
X14939500Y35874108D01*
X14956554Y35810461D01*
X14973608Y35746813D01*
X14990722Y35717171D01*
X15039500Y35632686D01*
X15132686Y35539500D01*
X15246814Y35473608D01*
X15374108Y35439500D01*
X15374110Y35439500D01*
X15505890Y35439500D01*
X15505892Y35439500D01*
X15633186Y35473608D01*
X15747314Y35539500D01*
X15840500Y35632686D01*
X15906392Y35746814D01*
X15940500Y35874108D01*
X15940500Y36005892D01*
X17479500Y36005892D01*
X17479500Y35874108D01*
X17496554Y35810461D01*
X17513608Y35746813D01*
X17530722Y35717171D01*
X17579500Y35632686D01*
X17672686Y35539500D01*
X17786814Y35473608D01*
X17914108Y35439500D01*
X17914110Y35439500D01*
X18045890Y35439500D01*
X18045892Y35439500D01*
X18173186Y35473608D01*
X18287314Y35539500D01*
X18380500Y35632686D01*
X18446392Y35746814D01*
X18480500Y35874108D01*
X18480500Y36005892D01*
X20019500Y36005892D01*
X20019500Y35874108D01*
X20036554Y35810461D01*
X20053608Y35746813D01*
X20070722Y35717171D01*
X20119500Y35632686D01*
X20212686Y35539500D01*
X20326814Y35473608D01*
X20454108Y35439500D01*
X20454110Y35439500D01*
X20585890Y35439500D01*
X20585892Y35439500D01*
X20713186Y35473608D01*
X20827314Y35539500D01*
X20920500Y35632686D01*
X20986392Y35746814D01*
X21020500Y35874108D01*
X21020500Y36005892D01*
X22559500Y36005892D01*
X22559500Y35874108D01*
X22576554Y35810461D01*
X22593608Y35746813D01*
X22610722Y35717171D01*
X22659500Y35632686D01*
X22752686Y35539500D01*
X22866814Y35473608D01*
X22994108Y35439500D01*
X22994110Y35439500D01*
X23125890Y35439500D01*
X23125892Y35439500D01*
X23253186Y35473608D01*
X23367314Y35539500D01*
X23460500Y35632686D01*
X23468789Y35647043D01*
X50983475Y35647043D01*
X50983475Y35535007D01*
X51012472Y35426788D01*
X51068490Y35329762D01*
X51147712Y35250540D01*
X51244738Y35194522D01*
X51352957Y35165525D01*
X51352959Y35165525D01*
X51464991Y35165525D01*
X51464993Y35165525D01*
X51573212Y35194522D01*
X51670238Y35250540D01*
X51749460Y35329762D01*
X51805478Y35426788D01*
X51834475Y35535007D01*
X51834475Y35647043D01*
X51805478Y35755262D01*
X51749460Y35852288D01*
X51670238Y35931510D01*
X51573212Y35987528D01*
X51464993Y36016525D01*
X51352957Y36016525D01*
X51244738Y35987528D01*
X51244735Y35987527D01*
X51147715Y35931512D01*
X51147709Y35931508D01*
X51068492Y35852291D01*
X51068488Y35852285D01*
X51012473Y35755265D01*
X51012472Y35755262D01*
X50983475Y35647043D01*
X23468789Y35647043D01*
X23526392Y35746814D01*
X23560500Y35874108D01*
X23560500Y36005892D01*
X23526392Y36133186D01*
X23460500Y36247314D01*
X23367314Y36340500D01*
X23310250Y36373446D01*
X23253187Y36406392D01*
X23189539Y36423446D01*
X23125892Y36440500D01*
X22994108Y36440500D01*
X22866812Y36406392D01*
X22752686Y36340500D01*
X22752683Y36340498D01*
X22659502Y36247317D01*
X22659500Y36247314D01*
X22593608Y36133188D01*
X22562349Y36016525D01*
X22559500Y36005892D01*
X21020500Y36005892D01*
X20986392Y36133186D01*
X20920500Y36247314D01*
X20827314Y36340500D01*
X20770250Y36373446D01*
X20713187Y36406392D01*
X20649539Y36423446D01*
X20585892Y36440500D01*
X20454108Y36440500D01*
X20326812Y36406392D01*
X20212686Y36340500D01*
X20212683Y36340498D01*
X20119502Y36247317D01*
X20119500Y36247314D01*
X20053608Y36133188D01*
X20022349Y36016525D01*
X20019500Y36005892D01*
X18480500Y36005892D01*
X18446392Y36133186D01*
X18380500Y36247314D01*
X18287314Y36340500D01*
X18230250Y36373446D01*
X18173187Y36406392D01*
X18109539Y36423446D01*
X18045892Y36440500D01*
X17914108Y36440500D01*
X17786812Y36406392D01*
X17672686Y36340500D01*
X17672683Y36340498D01*
X17579502Y36247317D01*
X17579500Y36247314D01*
X17513608Y36133188D01*
X17482349Y36016525D01*
X17479500Y36005892D01*
X15940500Y36005892D01*
X15906392Y36133186D01*
X15840500Y36247314D01*
X15747314Y36340500D01*
X15690250Y36373446D01*
X15633187Y36406392D01*
X15569539Y36423446D01*
X15505892Y36440500D01*
X15374108Y36440500D01*
X15246812Y36406392D01*
X15132686Y36340500D01*
X15132683Y36340498D01*
X15039502Y36247317D01*
X15039500Y36247314D01*
X14973608Y36133188D01*
X14942349Y36016525D01*
X14939500Y36005892D01*
X13400500Y36005892D01*
X13366392Y36133186D01*
X13300500Y36247314D01*
X13207314Y36340500D01*
X13150250Y36373446D01*
X13093187Y36406392D01*
X13029539Y36423446D01*
X12965892Y36440500D01*
X12834108Y36440500D01*
X12706812Y36406392D01*
X12592686Y36340500D01*
X12592683Y36340498D01*
X12499502Y36247317D01*
X12499500Y36247314D01*
X12433608Y36133188D01*
X12402349Y36016525D01*
X12399500Y36005892D01*
X10860500Y36005892D01*
X10826392Y36133186D01*
X10760500Y36247314D01*
X10667314Y36340500D01*
X10610250Y36373446D01*
X10553187Y36406392D01*
X10489539Y36423446D01*
X10425892Y36440500D01*
X10294108Y36440500D01*
X10166812Y36406392D01*
X10052686Y36340500D01*
X10052683Y36340498D01*
X9959502Y36247317D01*
X9959500Y36247314D01*
X9893608Y36133188D01*
X9862349Y36016525D01*
X9859500Y36005892D01*
X8320500Y36005892D01*
X8286392Y36133186D01*
X8220500Y36247314D01*
X8127314Y36340500D01*
X8070250Y36373446D01*
X8013187Y36406392D01*
X7949539Y36423446D01*
X7885892Y36440500D01*
X7754108Y36440500D01*
X7626812Y36406392D01*
X7512686Y36340500D01*
X7512683Y36340498D01*
X7419502Y36247317D01*
X7419500Y36247314D01*
X7353608Y36133188D01*
X7322349Y36016525D01*
X7319500Y36005892D01*
X5780500Y36005892D01*
X5746392Y36133186D01*
X5680500Y36247314D01*
X5587314Y36340500D01*
X5530250Y36373446D01*
X5473187Y36406392D01*
X5409539Y36423446D01*
X5345892Y36440500D01*
X5214108Y36440500D01*
X5086812Y36406392D01*
X4972686Y36340500D01*
X4972683Y36340498D01*
X4879502Y36247317D01*
X4879500Y36247314D01*
X4813608Y36133188D01*
X4782349Y36016525D01*
X4779500Y36005892D01*
X3240500Y36005892D01*
X3206392Y36133186D01*
X3140500Y36247314D01*
X3047314Y36340500D01*
X2990250Y36373446D01*
X2933187Y36406392D01*
X2869539Y36423446D01*
X2805892Y36440500D01*
X2674108Y36440500D01*
X2546812Y36406392D01*
X2432686Y36340500D01*
X2432683Y36340498D01*
X2339502Y36247317D01*
X2339500Y36247314D01*
X2273608Y36133188D01*
X2242349Y36016525D01*
X2239500Y36005892D01*
X1000500Y36005892D01*
X1000500Y38376000D01*
X1020185Y38443039D01*
X1072989Y38488794D01*
X1124500Y38500000D01*
X2121337Y38500000D01*
X2188376Y38480315D01*
G37*
%TD.AperFunction*%
%TD*%
M02*
