%TF.GenerationSoftware,KiCad,Pcbnew,9.0.0*%
%TF.CreationDate,2026-04-30T19:49:20+09:00*%
%TF.ProjectId,BAT_ECU_PCB_V1,4241545f-4543-4555-9f50-43425f56312e,rev?*%
%TF.SameCoordinates,PX487ab00PY80befc0*%
%TF.FileFunction,Soldermask,Top*%
%TF.FilePolarity,Negative*%
%FSLAX46Y46*%
G04 Gerber Fmt 4.6, Leading zero omitted, Abs format (unit mm)*
G04 Created by KiCad (PCBNEW 9.0.0) date 2026-04-30 19:49:20*
%MOMM*%
%LPD*%
G01*
G04 APERTURE LIST*
G04 Aperture macros list*
%AMRoundRect*
0 Rectangle with rounded corners*
0 $1 Rounding radius*
0 $2 $3 $4 $5 $6 $7 $8 $9 X,Y pos of 4 corners*
0 Add a 4 corners polygon primitive as box body*
4,1,4,$2,$3,$4,$5,$6,$7,$8,$9,$2,$3,0*
0 Add four circle primitives for the rounded corners*
1,1,$1+$1,$2,$3*
1,1,$1+$1,$4,$5*
1,1,$1+$1,$6,$7*
1,1,$1+$1,$8,$9*
0 Add four rect primitives between the rounded corners*
20,1,$1+$1,$2,$3,$4,$5,0*
20,1,$1+$1,$4,$5,$6,$7,0*
20,1,$1+$1,$6,$7,$8,$9,0*
20,1,$1+$1,$8,$9,$2,$3,0*%
G04 Aperture macros list end*
%ADD10RoundRect,0.200000X-0.275000X0.200000X-0.275000X-0.200000X0.275000X-0.200000X0.275000X0.200000X0*%
%ADD11RoundRect,0.200000X-0.200000X-0.275000X0.200000X-0.275000X0.200000X0.275000X-0.200000X0.275000X0*%
%ADD12RoundRect,0.225000X-0.225000X-0.250000X0.225000X-0.250000X0.225000X0.250000X-0.225000X0.250000X0*%
%ADD13RoundRect,0.250000X-0.325000X-1.100000X0.325000X-1.100000X0.325000X1.100000X-0.325000X1.100000X0*%
%ADD14RoundRect,0.218750X0.218750X0.256250X-0.218750X0.256250X-0.218750X-0.256250X0.218750X-0.256250X0*%
%ADD15C,1.000000*%
%ADD16C,3.200000*%
%ADD17R,2.000000X0.900000*%
%ADD18RoundRect,1.025000X-1.025000X1.025000X-1.025000X-1.025000X1.025000X-1.025000X1.025000X1.025000X0*%
%ADD19C,4.100000*%
%ADD20RoundRect,0.375000X0.375000X-0.625000X0.375000X0.625000X-0.375000X0.625000X-0.375000X-0.625000X0*%
%ADD21RoundRect,0.500000X1.400000X-0.500000X1.400000X0.500000X-1.400000X0.500000X-1.400000X-0.500000X0*%
%ADD22R,0.600000X1.550000*%
%ADD23R,3.100000X2.600000*%
%ADD24RoundRect,0.200000X0.275000X-0.200000X0.275000X0.200000X-0.275000X0.200000X-0.275000X-0.200000X0*%
%ADD25RoundRect,0.150000X0.825000X0.150000X-0.825000X0.150000X-0.825000X-0.150000X0.825000X-0.150000X0*%
%ADD26RoundRect,0.225000X0.225000X0.250000X-0.225000X0.250000X-0.225000X-0.250000X0.225000X-0.250000X0*%
%ADD27RoundRect,0.225000X-0.250000X0.225000X-0.250000X-0.225000X0.250000X-0.225000X0.250000X0.225000X0*%
%ADD28RoundRect,0.250000X1.050000X-0.750000X1.050000X0.750000X-1.050000X0.750000X-1.050000X-0.750000X0*%
%ADD29O,2.600000X2.000000*%
%ADD30RoundRect,0.200000X0.200000X0.275000X-0.200000X0.275000X-0.200000X-0.275000X0.200000X-0.275000X0*%
%ADD31R,1.700000X1.700000*%
%ADD32O,1.700000X1.700000*%
%ADD33R,1.200000X1.400000*%
%ADD34RoundRect,0.250000X-0.250000X-0.475000X0.250000X-0.475000X0.250000X0.475000X-0.250000X0.475000X0*%
%ADD35RoundRect,0.250000X0.250000X0.475000X-0.250000X0.475000X-0.250000X-0.475000X0.250000X-0.475000X0*%
%ADD36RoundRect,0.250000X0.475000X-0.250000X0.475000X0.250000X-0.475000X0.250000X-0.475000X-0.250000X0*%
%ADD37RoundRect,0.218750X-0.218750X-0.256250X0.218750X-0.256250X0.218750X0.256250X-0.218750X0.256250X0*%
%ADD38C,2.000000*%
%ADD39RoundRect,0.150000X-0.150000X0.587500X-0.150000X-0.587500X0.150000X-0.587500X0.150000X0.587500X0*%
%ADD40RoundRect,1.025000X1.025000X-1.025000X1.025000X1.025000X-1.025000X1.025000X-1.025000X-1.025000X0*%
%ADD41RoundRect,0.062500X0.375000X0.062500X-0.375000X0.062500X-0.375000X-0.062500X0.375000X-0.062500X0*%
%ADD42RoundRect,0.062500X0.062500X0.375000X-0.062500X0.375000X-0.062500X-0.375000X0.062500X-0.375000X0*%
%ADD43R,5.600000X5.600000*%
%ADD44RoundRect,0.155000X-0.155000X0.212500X-0.155000X-0.212500X0.155000X-0.212500X0.155000X0.212500X0*%
%ADD45RoundRect,0.218750X0.256250X-0.218750X0.256250X0.218750X-0.256250X0.218750X-0.256250X-0.218750X0*%
%ADD46RoundRect,0.249999X-1.425001X0.450001X-1.425001X-0.450001X1.425001X-0.450001X1.425001X0.450001X0*%
%ADD47R,2.400000X2.400000*%
%ADD48C,2.400000*%
%ADD49RoundRect,0.250000X1.400000X1.000000X-1.400000X1.000000X-1.400000X-1.000000X1.400000X-1.000000X0*%
%ADD50RoundRect,0.225000X0.250000X-0.225000X0.250000X0.225000X-0.250000X0.225000X-0.250000X-0.225000X0*%
%ADD51RoundRect,0.155000X0.155000X-0.212500X0.155000X0.212500X-0.155000X0.212500X-0.155000X-0.212500X0*%
%ADD52RoundRect,0.250000X-0.750000X-1.050000X0.750000X-1.050000X0.750000X1.050000X-0.750000X1.050000X0*%
%ADD53O,2.000000X2.600000*%
%ADD54RoundRect,0.075000X0.075000X-0.650000X0.075000X0.650000X-0.075000X0.650000X-0.075000X-0.650000X0*%
%ADD55RoundRect,0.250000X0.312500X0.625000X-0.312500X0.625000X-0.312500X-0.625000X0.312500X-0.625000X0*%
%ADD56RoundRect,0.250000X-1.200000X-2.450000X1.200000X-2.450000X1.200000X2.450000X-1.200000X2.450000X0*%
G04 APERTURE END LIST*
D10*
%TO.C,R21*%
X27500000Y24500000D03*
X27500000Y22850000D03*
%TD*%
D11*
%TO.C,R17*%
X49500000Y28175000D03*
X51150000Y28175000D03*
%TD*%
D12*
%TO.C,C5*%
X7900000Y52522220D03*
X9450000Y52522220D03*
%TD*%
D13*
%TO.C,C1*%
X7550000Y68022220D03*
X10500000Y68022220D03*
%TD*%
D14*
%TO.C,D3*%
X37575000Y31675000D03*
X36000000Y31675000D03*
%TD*%
D15*
%TO.C,TP3*%
X50000000Y34000000D03*
%TD*%
D16*
%TO.C,H4*%
X76500000Y4522220D03*
%TD*%
D17*
%TO.C,J2*%
X78850000Y85772220D03*
X78850000Y72272220D03*
D18*
X72850000Y82622220D03*
D19*
X72850000Y75422220D03*
%TD*%
D20*
%TO.C,U4*%
X43700000Y49872220D03*
X46000000Y49872220D03*
X48300000Y49872220D03*
D21*
X46000000Y56172220D03*
%TD*%
D22*
%TO.C,U1*%
X10270000Y60422220D03*
X9000000Y60422220D03*
X7730000Y60422220D03*
X6460000Y60422220D03*
X6460000Y55022220D03*
X7730000Y55022220D03*
X9000000Y55022220D03*
X10270000Y55022220D03*
D23*
X8365000Y57722220D03*
%TD*%
D10*
%TO.C,R3*%
X4000000Y60347220D03*
X4000000Y58697220D03*
%TD*%
D24*
%TO.C,R5*%
X4000000Y51197220D03*
X4000000Y52847220D03*
%TD*%
D25*
%TO.C,U7*%
X22975000Y11500000D03*
X22975000Y12770000D03*
X22975000Y14040000D03*
X22975000Y15310000D03*
X18025000Y15310000D03*
X18025000Y14040000D03*
X18025000Y12770000D03*
X18025000Y11500000D03*
%TD*%
D26*
%TO.C,C35*%
X21000000Y17500000D03*
X19450000Y17500000D03*
%TD*%
%TO.C,C30*%
X35550000Y25675000D03*
X34000000Y25675000D03*
%TD*%
%TO.C,C26*%
X32050000Y16675000D03*
X30500000Y16675000D03*
%TD*%
D14*
%TO.C,D4*%
X57612500Y49500000D03*
X56037500Y49500000D03*
%TD*%
D27*
%TO.C,C22*%
X53500000Y17275000D03*
X53500000Y15725000D03*
%TD*%
D28*
%TO.C,J9*%
X77350000Y29122220D03*
D29*
X77350000Y32622220D03*
%TD*%
D30*
%TO.C,R16*%
X37612500Y29675000D03*
X35962500Y29675000D03*
%TD*%
D26*
%TO.C,C28*%
X35590000Y27652780D03*
X34040000Y27652780D03*
%TD*%
D12*
%TO.C,C40*%
X47725000Y44500000D03*
X49275000Y44500000D03*
%TD*%
%TO.C,C31*%
X37765000Y27652780D03*
X39315000Y27652780D03*
%TD*%
D24*
%TO.C,R10*%
X51500000Y15675000D03*
X51500000Y17325000D03*
%TD*%
D26*
%TO.C,C29*%
X31815000Y25652780D03*
X30265000Y25652780D03*
%TD*%
D28*
%TO.C,J4*%
X77350000Y14122220D03*
D29*
X77350000Y17622220D03*
%TD*%
D31*
%TO.C,J8*%
X68540000Y6000000D03*
D32*
X66000000Y6000000D03*
X63460000Y6000000D03*
X60920000Y6000000D03*
%TD*%
D33*
%TO.C,Y1*%
X45500000Y19375000D03*
X45500000Y17175000D03*
X47200000Y17175000D03*
X47200000Y19375000D03*
%TD*%
D34*
%TO.C,C11*%
X7625000Y71022220D03*
X9525000Y71022220D03*
%TD*%
D28*
%TO.C,J3*%
X77350000Y42122220D03*
D29*
X77350000Y45622220D03*
%TD*%
D30*
%TO.C,R23*%
X44500000Y30000000D03*
X42850000Y30000000D03*
%TD*%
D16*
%TO.C,H2*%
X5000000Y5022220D03*
%TD*%
D24*
%TO.C,R6*%
X4500000Y54697220D03*
X4500000Y56347220D03*
%TD*%
D27*
%TO.C,C27*%
X41500000Y14950000D03*
X41500000Y13400000D03*
%TD*%
D34*
%TO.C,C16*%
X38050000Y58522220D03*
X39950000Y58522220D03*
%TD*%
D35*
%TO.C,C7*%
X32625000Y59522220D03*
X30725000Y59522220D03*
%TD*%
D11*
%TO.C,R11*%
X34675000Y12675000D03*
X36325000Y12675000D03*
%TD*%
D26*
%TO.C,C34*%
X51275000Y36975000D03*
X49725000Y36975000D03*
%TD*%
D36*
%TO.C,C20*%
X51000000Y50500000D03*
X51000000Y52400000D03*
%TD*%
D37*
%TO.C,D2*%
X30000000Y64500000D03*
X31575000Y64500000D03*
%TD*%
D11*
%TO.C,R22*%
X14000000Y11500000D03*
X15650000Y11500000D03*
%TD*%
D38*
%TO.C,SW1*%
X53500000Y25000000D03*
X60000000Y25000000D03*
X53500000Y20500000D03*
X60000000Y20500000D03*
%TD*%
D39*
%TO.C,U6*%
X45450000Y42500000D03*
X44500000Y40625000D03*
X43550000Y42500000D03*
%TD*%
D17*
%TO.C,J1*%
X3000000Y74872220D03*
X3000000Y88372220D03*
D40*
X9000000Y78022220D03*
D19*
X9000000Y85222220D03*
%TD*%
D12*
%TO.C,C3*%
X12450000Y61022220D03*
X14000000Y61022220D03*
%TD*%
D30*
%TO.C,R18*%
X21325000Y9000000D03*
X19675000Y9000000D03*
%TD*%
D16*
%TO.C,H1*%
X5000000Y96522220D03*
%TD*%
D35*
%TO.C,C6*%
X32675000Y62022220D03*
X30775000Y62022220D03*
%TD*%
D10*
%TO.C,R7*%
X64500000Y61325000D03*
X64500000Y59675000D03*
%TD*%
D35*
%TO.C,C37*%
X44000000Y45000000D03*
X42100000Y45000000D03*
%TD*%
D41*
%TO.C,U5*%
X40727500Y17340280D03*
X40727500Y17840280D03*
X40727500Y18340280D03*
X40727500Y18840280D03*
X40727500Y19340280D03*
X40727500Y19840280D03*
X40727500Y20340280D03*
X40727500Y20840280D03*
X40727500Y21340280D03*
X40727500Y21840280D03*
X40727500Y22340280D03*
X40727500Y22840280D03*
D42*
X40040000Y23527780D03*
X39540000Y23527780D03*
X39040000Y23527780D03*
X38540000Y23527780D03*
X38040000Y23527780D03*
X37540000Y23527780D03*
X37040000Y23527780D03*
X36540000Y23527780D03*
X36040000Y23527780D03*
X35540000Y23527780D03*
X35040000Y23527780D03*
X34540000Y23527780D03*
D41*
X33852500Y22840280D03*
X33852500Y22340280D03*
X33852500Y21840280D03*
X33852500Y21340280D03*
X33852500Y20840280D03*
X33852500Y20340280D03*
X33852500Y19840280D03*
X33852500Y19340280D03*
X33852500Y18840280D03*
X33852500Y18340280D03*
X33852500Y17840280D03*
X33852500Y17340280D03*
D42*
X34540000Y16652780D03*
X35040000Y16652780D03*
X35540000Y16652780D03*
X36040000Y16652780D03*
X36540000Y16652780D03*
X37040000Y16652780D03*
X37540000Y16652780D03*
X38040000Y16652780D03*
X38540000Y16652780D03*
X39040000Y16652780D03*
X39540000Y16652780D03*
X40040000Y16652780D03*
D43*
X37290000Y20090280D03*
%TD*%
D37*
%TO.C,FB1*%
X32212500Y30175000D03*
X33787500Y30175000D03*
%TD*%
D44*
%TO.C,C42*%
X43500000Y18067500D03*
X43500000Y16932500D03*
%TD*%
D15*
%TO.C,TP4*%
X52500000Y34000000D03*
%TD*%
D34*
%TO.C,C17*%
X38050000Y56022220D03*
X39950000Y56022220D03*
%TD*%
D13*
%TO.C,C2*%
X7550000Y64522220D03*
X10500000Y64522220D03*
%TD*%
D45*
%TO.C,D5*%
X27500000Y26887500D03*
X27500000Y28462500D03*
%TD*%
D46*
%TO.C,R12*%
X17000000Y85050000D03*
X17000000Y78950000D03*
%TD*%
D15*
%TO.C,TP1*%
X58500000Y60000000D03*
%TD*%
D16*
%TO.C,H3*%
X76500000Y96522220D03*
%TD*%
D31*
%TO.C,J7*%
X54500000Y6000000D03*
D32*
X51960000Y6000000D03*
X49420000Y6000000D03*
X46880000Y6000000D03*
%TD*%
D12*
%TO.C,C4*%
X7950000Y50522220D03*
X9500000Y50522220D03*
%TD*%
D30*
%TO.C,R20*%
X57650000Y51500000D03*
X56000000Y51500000D03*
%TD*%
D10*
%TO.C,R4*%
X6000000Y52347220D03*
X6000000Y50697220D03*
%TD*%
D47*
%TO.C,C9*%
X31000000Y85500000D03*
D48*
X31000000Y78000000D03*
%TD*%
D49*
%TO.C,D1*%
X14965000Y51422220D03*
X14965000Y58222220D03*
%TD*%
D12*
%TO.C,C19*%
X38275000Y60522220D03*
X39825000Y60522220D03*
%TD*%
D31*
%TO.C,J5*%
X31000000Y13675000D03*
D32*
X31000000Y11135000D03*
X31000000Y8595000D03*
%TD*%
D50*
%TO.C,C21*%
X53500000Y50450000D03*
X53500000Y52000000D03*
%TD*%
D12*
%TO.C,C18*%
X38275000Y62522220D03*
X39825000Y62522220D03*
%TD*%
D51*
%TO.C,C41*%
X43500000Y19382500D03*
X43500000Y20517500D03*
%TD*%
D12*
%TO.C,C32*%
X37725000Y25675000D03*
X39275000Y25675000D03*
%TD*%
D52*
%TO.C,J10*%
X16850000Y6022220D03*
D53*
X20350000Y6022220D03*
X23850000Y6022220D03*
%TD*%
D26*
%TO.C,C8*%
X44275000Y26500000D03*
X42725000Y26500000D03*
%TD*%
D11*
%TO.C,R24*%
X49500000Y30175000D03*
X51150000Y30175000D03*
%TD*%
D54*
%TO.C,U2*%
X46000000Y32475000D03*
X46500000Y32475000D03*
X47000000Y32475000D03*
X47500000Y32475000D03*
X48000000Y32475000D03*
X48000000Y36875000D03*
X47500000Y36875000D03*
X47000000Y36875000D03*
X46500000Y36875000D03*
X46000000Y36875000D03*
%TD*%
D15*
%TO.C,TP2*%
X26500000Y32175000D03*
%TD*%
D55*
%TO.C,R9*%
X36827500Y66722220D03*
X33902500Y66722220D03*
%TD*%
D26*
%TO.C,C25*%
X31815000Y27652780D03*
X30265000Y27652780D03*
%TD*%
D24*
%TO.C,R8*%
X66500000Y59675000D03*
X66500000Y61325000D03*
%TD*%
D34*
%TO.C,C38*%
X47725000Y42500000D03*
X49625000Y42500000D03*
%TD*%
D56*
%TO.C,L1*%
X21515000Y49322220D03*
X31415000Y49322220D03*
%TD*%
D12*
%TO.C,C33*%
X49450000Y23500000D03*
X51000000Y23500000D03*
%TD*%
D26*
%TO.C,C10*%
X32500000Y57522220D03*
X30950000Y57522220D03*
%TD*%
D11*
%TO.C,R15*%
X30000000Y66500000D03*
X31650000Y66500000D03*
%TD*%
D24*
%TO.C,TH1*%
X61000000Y59675000D03*
X61000000Y61325000D03*
%TD*%
D26*
%TO.C,C39*%
X44000000Y47000000D03*
X42450000Y47000000D03*
%TD*%
D17*
%TO.C,J6*%
X78850000Y67272220D03*
X78850000Y53772220D03*
D18*
X72850000Y64122220D03*
D19*
X72850000Y56922220D03*
%TD*%
M02*
