M48
; DRILL file {KiCad 9.0.0} date 2026-04-30T19:49:28+0900
; FORMAT={-:-/ absolute / metric / decimal}
; #@! TF.CreationDate,2026-04-30T19:49:28+09:00
; #@! TF.GenerationSoftware,Kicad,Pcbnew,9.0.0
; #@! TF.FileFunction,MixedPlating,1,4
FMAT,2
METRIC
; #@! TA.AperFunction,Plated,PTH,ViaDrill
T1C0.200
; #@! TA.AperFunction,Plated,PTH,ViaDrill
T2C0.300
; #@! TA.AperFunction,Plated,PTH,ComponentDrill
T3C0.300
; #@! TA.AperFunction,Plated,PTH,ViaDrill
T4C0.400
; #@! TA.AperFunction,Plated,PTH,ComponentDrill
T5C0.600
; #@! TA.AperFunction,Plated,PTH,ComponentDrill
T6C1.000
; #@! TA.AperFunction,Plated,PTH,ComponentDrill
T7C1.100
; #@! TA.AperFunction,Plated,PTH,ComponentDrill
T8C1.200
; #@! TA.AperFunction,Plated,PTH,ComponentDrill
T9C1.600
; #@! TA.AperFunction,Plated,PTH,ComponentDrill
T10C2.700
; #@! TA.AperFunction,NonPlated,NPTH,ComponentDrill
T11C3.200
%
G90
G05
T1
X11.5Y55.0
X13.5Y81.5
X16.0Y61.0
X27.5Y30.0
X28.5Y14.0
X28.5Y13.0
X34.0Y15.0
X34.714Y15.064
X35.587Y15.087
X40.087Y15.5
X41.0Y44.0
X41.5Y30.5
X42.482Y20.39
X42.942Y24.058
X43.0Y13.5
X43.058Y22.617
X43.196Y21.977
X43.5Y14.5
X44.149Y24.507
X44.5Y39.0
X44.5Y32.5
X46.211Y27.964
X46.417Y23.467
X46.85Y38.5
X47.5Y38.5
X47.5Y29.675
X48.05Y30.5
X49.5Y27.05
X50.0Y35.5
X51.0Y24.5
X51.409Y35.591
X51.5Y14.5
X53.5Y14.5
X57.5Y39.0
X61.0Y43.0
X63.0Y60.5
X64.5Y58.0
T2
X2.74Y41.02
X2.74Y38.48
X2.74Y35.94
X2.74Y33.4
X2.74Y30.86
X2.74Y28.32
X2.74Y25.78
X2.74Y23.24
X2.74Y20.7
X2.74Y18.16
X2.74Y15.62
X2.74Y13.08
X5.28Y41.02
X5.28Y38.48
X5.28Y35.94
X5.28Y33.4
X5.28Y30.86
X5.28Y28.32
X5.28Y25.78
X5.28Y23.24
X5.28Y20.7
X5.28Y18.16
X5.28Y15.62
X5.28Y13.08
X7.82Y41.02
X7.82Y38.48
X7.82Y35.94
X7.82Y33.4
X7.82Y30.86
X7.82Y28.32
X7.82Y25.78
X7.82Y23.24
X7.82Y20.7
X7.82Y18.16
X7.82Y15.62
X7.82Y13.08
X10.36Y41.02
X10.36Y38.48
X10.36Y35.94
X10.36Y33.4
X10.36Y30.86
X10.36Y28.32
X10.36Y25.78
X10.36Y23.24
X10.36Y20.7
X10.36Y18.16
X10.36Y15.62
X10.36Y13.08
X12.9Y41.02
X12.9Y38.48
X12.9Y35.94
X12.9Y33.4
X12.9Y30.86
X12.9Y28.32
X12.9Y25.78
X12.9Y23.24
X12.9Y20.7
X12.9Y18.16
X12.9Y15.62
X12.9Y13.08
X15.44Y41.02
X15.44Y38.48
X15.44Y35.94
X15.44Y33.4
X15.44Y30.86
X15.44Y28.32
X15.44Y25.78
X15.44Y23.24
X15.44Y20.7
X17.98Y41.02
X17.98Y38.48
X17.98Y35.94
X17.98Y33.4
X17.98Y30.86
X17.98Y28.32
X17.98Y25.78
X17.98Y23.24
X17.98Y20.7
X20.52Y41.02
X20.52Y38.48
X20.52Y35.94
X20.52Y33.4
X20.52Y30.86
X20.52Y28.32
X20.52Y25.78
X20.52Y23.24
X20.52Y20.7
X23.06Y41.02
X23.06Y38.48
X23.06Y35.94
X23.06Y33.4
X23.06Y30.86
X23.06Y28.32
X23.06Y25.78
X23.06Y23.24
X23.06Y20.7
X30.0Y29.0
X33.0Y29.0
X33.808Y51.808
X34.0Y63.5
X34.0Y61.34
X34.0Y59.0
X34.0Y56.5
X34.0Y54.0
X35.0Y30.5
X35.76Y94.36
X35.76Y91.82
X35.76Y48.64
X36.308Y51.808
X36.5Y63.5
X36.5Y61.34
X36.5Y59.0
X36.5Y56.5
X36.5Y54.0
X38.3Y94.36
X38.3Y91.82
X40.347Y27.653
X40.5Y25.675
X40.84Y94.36
X40.84Y91.82
X40.84Y89.28
X40.84Y86.74
X40.84Y84.2
X40.84Y81.66
X40.84Y79.12
X40.84Y76.58
X40.84Y74.04
X40.84Y71.5
X41.5Y26.5
X41.714Y24.214
X43.38Y94.36
X43.38Y91.82
X43.38Y89.28
X43.38Y86.74
X43.38Y84.2
X43.38Y81.66
X43.38Y79.12
X43.38Y76.58
X43.38Y74.04
X43.38Y71.5
X45.052Y25.251
X45.5Y28.904
X45.5Y15.5
X45.603Y20.897
X45.92Y94.36
X45.92Y91.82
X45.92Y89.28
X45.92Y86.74
X45.92Y84.2
X45.92Y81.66
X45.92Y79.12
X45.92Y76.58
X45.92Y74.04
X45.92Y71.5
X46.5Y15.5
X46.975Y41.0
X47.2Y20.8
X47.5Y15.5
X48.0Y21.0
X48.46Y94.36
X48.46Y91.82
X48.46Y89.28
X48.46Y86.74
X48.46Y84.2
X48.46Y81.66
X48.46Y79.12
X48.46Y76.58
X48.46Y74.04
X48.46Y71.5
X48.5Y20.5
X48.5Y19.5
X48.5Y18.5
X48.5Y17.5
X48.5Y16.5
X48.5Y15.5
X51.0Y94.36
X51.0Y91.82
X51.0Y89.28
X51.0Y86.74
X51.0Y84.2
X51.0Y81.66
X51.0Y79.12
X51.0Y76.58
X51.0Y74.04
X51.0Y71.5
X53.54Y94.36
X53.54Y91.82
X53.54Y89.28
X53.54Y86.74
X53.54Y84.2
X53.54Y81.66
X53.54Y79.12
X53.54Y76.58
X53.54Y74.04
X53.54Y71.5
X56.08Y94.36
X56.08Y91.82
X56.08Y89.28
X56.08Y86.74
X56.08Y84.2
X56.08Y81.66
X56.08Y79.12
X56.08Y76.58
X56.08Y74.04
X56.08Y71.5
X56.08Y68.96
X58.62Y94.36
X58.62Y91.82
X58.62Y89.28
X58.62Y86.74
X58.62Y84.2
X58.62Y81.66
X58.62Y79.12
X58.62Y76.58
X58.62Y74.04
X58.62Y71.5
X58.62Y68.96
X58.62Y66.42
X61.16Y94.36
X61.16Y91.82
X61.16Y89.28
X61.16Y86.74
X61.16Y84.2
X61.16Y81.66
X61.16Y79.12
X61.16Y76.58
X61.16Y74.04
X61.16Y71.5
X61.16Y68.96
X61.16Y66.42
X63.7Y94.36
X63.7Y94.36
X63.7Y91.82
X63.7Y91.82
X63.7Y89.28
X63.7Y89.28
X63.7Y86.74
X63.7Y86.74
X63.7Y84.2
X63.7Y84.2
X63.7Y81.66
X63.7Y81.66
X63.7Y79.12
X63.7Y79.12
X63.7Y76.58
X63.7Y76.58
X63.7Y74.04
X63.7Y74.04
X63.7Y71.5
X63.7Y71.5
X63.7Y68.96
X63.7Y68.96
X63.7Y66.42
X65.5Y68.0
X66.24Y94.36
X66.24Y91.82
X66.24Y89.28
X66.24Y86.74
X66.24Y84.2
X66.24Y81.66
X66.24Y79.12
X66.24Y76.58
X66.24Y74.04
X66.24Y71.5
X66.24Y66.42
X68.78Y94.36
X68.78Y91.82
X68.78Y89.28
X68.78Y86.74
X68.78Y84.2
X68.78Y81.66
X68.78Y79.12
X68.78Y76.58
X68.78Y74.04
X68.78Y71.5
X71.32Y94.36
X71.32Y91.82
X71.32Y89.28
T3
X6.565Y58.322
X6.565Y57.122
X7.665Y58.322
X7.665Y57.122
X8.965Y58.322
X8.965Y57.122
X10.165Y58.322
X10.165Y57.122
T4
X3.0Y57.0
X4.0Y48.5
X11.5Y71.0
X11.962Y68.022
X12.0Y64.5
X14.0Y10.0
X18.0Y17.5
X24.952Y12.548
X25.0Y14.0
X28.702Y59.202
X29.0Y62.0
X29.0Y57.5
X31.0Y71.5
X31.5Y68.0
X31.5Y44.5
X32.212Y32.712
X33.5Y68.5
X37.5Y20.0
X38.5Y66.722
X40.0Y13.5
X41.5Y62.5
X41.5Y60.5
X41.5Y58.5
X41.5Y56.0
X41.5Y49.0
X46.0Y58.0
X46.0Y48.0
X50.5Y44.5
X51.0Y53.5
X51.5Y42.5
X51.5Y31.5
X53.5Y53.5
X56.0Y53.0
X61.0Y63.0
X66.0Y62.5
T6
X31.0Y13.675
X31.0Y11.135
X31.0Y8.595
X46.88Y6.0
X49.42Y6.0
X51.96Y6.0
X54.5Y6.0
X60.92Y6.0
X63.46Y6.0
X66.0Y6.0
X68.54Y6.0
T7
X53.5Y25.0
X53.5Y20.5
X60.0Y25.0
X60.0Y20.5
T8
X31.0Y85.5
X31.0Y78.0
T9
X16.85Y6.022
X20.35Y6.022
X23.85Y6.022
X77.35Y45.622
X77.35Y42.122
X77.35Y32.622
X77.35Y29.122
X77.35Y17.622
X77.35Y14.122
T10
X9.0Y85.222
X9.0Y78.022
X72.85Y82.622
X72.85Y75.422
X72.85Y64.122
X72.85Y56.922
T11
X5.0Y96.522
X5.0Y5.022
X76.5Y96.522
X76.5Y4.522
T5
G00X2.45Y88.372
M15
G01X3.55Y88.372
M16
G05
G00X2.45Y74.872
M15
G01X3.55Y74.872
M16
G05
G00X79.4Y85.772
M15
G01X78.3Y85.772
M16
G05
G00X79.4Y72.272
M15
G01X78.3Y72.272
M16
G05
G00X79.4Y67.272
M15
G01X78.3Y67.272
M16
G05
G00X79.4Y53.772
M15
G01X78.3Y53.772
M16
G05
M30
